<?xml version="1.0" encoding="UTF-8"?>
<svg xmlns="http://www.w3.org/2000/svg" viewBox="0 0 160 160">
  <defs>
    <style>
      .cls-1 {
        fill: #fff;
      }
    </style>
  </defs>
  <g id="Camada_2">
    <circle cx="80" cy="79.88" r="80"/>
  </g>
  <g id="Camada_1">
    <g>
      <path class="cls-1" d="M43.41,75.03h-1.38l4.01-10.91h1.36l4.01,10.91h-1.38l-3.26-9.18h-.09l-3.26,9.18ZM43.92,70.77h5.58v1.17h-5.58v-1.17Z"/>
      <path class="cls-1" d="M56.49,66.85v1.07h-4.24v-1.07h4.24ZM53.48,64.89h1.26v7.8c0,.36.05.62.16.8.11.18.24.29.41.35s.34.09.52.09c.14,0,.25,0,.34-.02.09-.02.16-.03.21-.04l.26,1.13c-.08.03-.2.06-.36.1-.15.03-.35.05-.58.05-.35,0-.7-.08-1.04-.23-.34-.15-.62-.39-.84-.7s-.33-.71-.33-1.18v-8.14Z"/>
      <path class="cls-1" d="M59.02,65.48c-.25,0-.46-.08-.63-.25s-.26-.37-.26-.6.09-.43.26-.6.39-.25.63-.25.46.08.63.25.26.37.26.6-.09.43-.26.6-.39.25-.63.25ZM58.38,75.03v-8.18h1.26v8.18h-1.26Z"/>
      <path class="cls-1" d="M68.63,66.85l-3.03,8.18h-1.28l-3.03-8.18h1.36l2.26,6.52h.09l2.26-6.52h1.36Z"/>
      <path class="cls-1" d="M70.93,65.48c-.25,0-.46-.08-.63-.25s-.26-.37-.26-.6.09-.43.26-.6.39-.25.63-.25.46.08.63.25.26.37.26.6-.09.43-.26.6-.39.25-.63.25ZM70.29,75.03v-8.18h1.26v8.18h-1.26Z"/>
      <path class="cls-1" d="M79.65,68.68l-1.13.32c-.07-.19-.17-.37-.31-.55-.14-.18-.32-.33-.56-.44s-.53-.18-.9-.18c-.5,0-.92.11-1.25.34-.33.23-.5.52-.5.87,0,.31.11.56.34.74.23.18.58.33,1.07.45l1.21.3c.73.18,1.28.45,1.63.81.36.36.54.83.54,1.4,0,.47-.13.89-.4,1.26-.27.37-.64.66-1.12.87-.48.21-1.04.32-1.67.32-.83,0-1.52-.18-2.07-.54-.55-.36-.89-.89-1.04-1.59l1.19-.3c.11.44.33.77.65.99.32.22.73.33,1.25.33.59,0,1.05-.12,1.4-.38.35-.25.52-.55.52-.9,0-.28-.1-.52-.3-.72-.2-.19-.5-.34-.92-.43l-1.36-.32c-.75-.18-1.3-.45-1.65-.83-.35-.38-.52-.84-.52-1.41,0-.46.13-.87.39-1.23.26-.35.62-.63,1.07-.84s.97-.3,1.54-.3c.81,0,1.45.18,1.91.53.46.36.79.82.99,1.41Z"/>
      <path class="cls-1" d="M81.69,75.03v-8.18h1.21v1.28h.11c.17-.44.45-.78.83-1.02s.84-.37,1.37-.37.99.12,1.35.37.64.58.84,1.02h.08c.21-.42.52-.76.94-1.01.42-.25.92-.38,1.51-.38.73,0,1.33.23,1.79.68.46.46.7,1.17.7,2.13v5.48h-1.26v-5.48c0-.6-.17-1.04-.5-1.29-.33-.26-.72-.39-1.17-.39-.58,0-1.02.17-1.34.52-.32.35-.47.78-.47,1.31v5.33h-1.28v-5.6c0-.46-.15-.84-.45-1.13-.3-.29-.69-.43-1.17-.43-.33,0-.63.09-.91.26-.28.17-.51.41-.68.72-.17.31-.26.66-.26,1.06v5.11h-1.26Z"/>
      <path class="cls-1" d="M98.06,75.2c-.74,0-1.39-.18-1.94-.53s-.99-.84-1.3-1.48-.47-1.37-.47-2.22.16-1.6.47-2.23.74-1.13,1.3-1.48,1.2-.53,1.94-.53,1.39.18,1.94.53.99.84,1.3,1.48.47,1.38.47,2.23-.16,1.58-.47,2.22-.74,1.12-1.3,1.48-1.2.53-1.94.53ZM98.06,74.07c.56,0,1.02-.14,1.38-.43.36-.29.63-.67.8-1.13s.26-.98.26-1.52-.09-1.06-.26-1.53c-.17-.47-.44-.85-.8-1.14-.36-.29-.82-.44-1.38-.44s-1.02.15-1.38.44c-.36.29-.63.67-.8,1.14-.17.47-.26.98-.26,1.53s.09,1.05.26,1.52.44.85.8,1.13c.36.29.82.43,1.38.43Z"/>
      <path class="cls-1" d="M111.33,75.2c-.79,0-1.47-.17-2.04-.52-.57-.35-1.01-.84-1.32-1.47-.31-.63-.46-1.36-.46-2.2s.15-1.58.46-2.22c.31-.64.74-1.14,1.29-1.5s1.2-.54,1.94-.54c.43,0,.85.07,1.26.21.42.14.79.37,1.13.69.34.32.61.74.82,1.26.2.52.3,1.16.3,1.93v.53h-6.31v-1.09h5.03c0-.46-.09-.87-.27-1.24-.18-.36-.44-.65-.78-.86-.33-.21-.73-.31-1.18-.31-.5,0-.93.12-1.3.37-.36.25-.64.57-.84.96s-.29.82-.29,1.27v.72c0,.62.11,1.14.32,1.57.21.43.51.75.9.98.38.22.83.33,1.34.33.33,0,.63-.05.9-.14.27-.09.5-.24.7-.43.2-.19.35-.43.45-.71l1.21.34c-.13.41-.34.77-.64,1.08-.3.31-.67.55-1.12.72-.44.17-.94.26-1.5.26Z"/>
      <path class="cls-1" d="M36.36,84.85h1.26v8.78c0,.5-.09.94-.26,1.31s-.43.66-.78.86c-.35.2-.78.3-1.31.3h-.26v-1.17h.23c.38,0,.66-.11.84-.34.18-.23.27-.55.27-.96v-8.78ZM36.98,83.48c-.25,0-.46-.08-.63-.25s-.26-.37-.26-.6.09-.43.26-.6.39-.25.63-.25.46.08.63.25.26.37.26.6-.09.43-.26.6-.39.25-.63.25Z"/>
      <path class="cls-1" d="M45.08,89.68v-4.84h1.26v8.18h-1.26v-1.38h-.08c-.19.42-.49.77-.9,1.06-.4.29-.92.43-1.53.43-.51,0-.97-.11-1.36-.34s-.71-.57-.94-1.02c-.23-.46-.34-1.03-.34-1.73v-5.2h1.26v5.11c0,.6.17,1.07.5,1.43.33.36.76.53,1.29.53.31,0,.63-.08.96-.24.33-.16.6-.4.82-.73.22-.33.33-.75.33-1.26Z"/>
      <path class="cls-1" d="M54.43,86.68l-1.13.32c-.07-.19-.18-.37-.31-.55-.14-.18-.32-.33-.56-.44s-.54-.18-.9-.18c-.5,0-.92.11-1.25.34-.33.23-.5.52-.5.87,0,.31.11.56.34.74.23.18.58.33,1.07.45l1.21.3c.73.18,1.28.45,1.64.81.36.36.54.83.54,1.4,0,.47-.13.89-.4,1.26-.27.37-.64.66-1.12.87-.48.21-1.04.32-1.67.32-.83,0-1.53-.18-2.07-.54-.55-.36-.89-.89-1.04-1.59l1.19-.3c.11.44.33.77.65.99.32.22.73.33,1.25.33.59,0,1.05-.12,1.4-.38.35-.25.52-.55.52-.9,0-.28-.1-.52-.3-.72-.2-.19-.5-.34-.92-.43l-1.36-.32c-.75-.18-1.3-.45-1.65-.83-.35-.38-.53-.84-.53-1.41,0-.46.13-.87.39-1.23.26-.35.62-.63,1.07-.84.45-.2.97-.3,1.54-.3.81,0,1.45.18,1.91.53.46.36.79.82.99,1.41Z"/>
      <path class="cls-1" d="M60.04,84.85v1.07h-4.24v-1.07h4.24ZM57.03,82.89h1.26v7.8c0,.36.05.62.16.8s.24.29.4.35c.17.06.34.09.53.09.14,0,.25,0,.34-.02.09-.02.16-.03.21-.04l.26,1.13c-.08.03-.2.06-.36.1-.15.03-.35.05-.58.05-.36,0-.7-.08-1.04-.23-.34-.15-.62-.39-.84-.7-.22-.31-.33-.71-.33-1.18v-8.14Z"/>
      <path class="cls-1" d="M62.57,83.48c-.24,0-.46-.08-.63-.25s-.26-.37-.26-.6.09-.43.26-.6.39-.25.63-.25.46.08.63.25.26.37.26.6-.09.43-.26.6-.39.25-.63.25ZM61.93,93.03v-8.18h1.26v8.18h-1.26Z"/>
      <path class="cls-1" d="M68.81,93.2c-.77,0-1.43-.18-1.98-.54-.55-.36-.98-.86-1.28-1.5-.3-.64-.45-1.36-.45-2.18s.15-1.57.46-2.2c.31-.64.74-1.14,1.29-1.5.55-.36,1.2-.54,1.94-.54.58,0,1.09.11,1.56.32s.84.51,1.13.9c.29.38.48.83.55,1.34h-1.26c-.1-.37-.31-.7-.64-.99-.33-.29-.77-.43-1.32-.43-.49,0-.92.13-1.29.38-.37.25-.65.61-.86,1.07-.21.46-.31,1-.31,1.62s.1,1.18.3,1.65c.2.47.49.83.85,1.09.37.26.8.39,1.3.39.33,0,.62-.06.89-.17s.49-.28.68-.49.32-.47.39-.77h1.26c-.07.48-.25.92-.53,1.3-.28.39-.65.69-1.1.92-.46.23-.99.34-1.59.34ZM68.22,92.98h1.04l-.08.43c.28.04.53.16.76.35.23.19.35.49.35.91,0,.46-.19.83-.57,1.12-.38.29-.94.43-1.67.43l-.04-.83c.33,0,.6-.05.82-.16.22-.1.33-.28.33-.52s-.09-.41-.27-.5-.47-.15-.88-.18l.21-1.04Z"/>
      <path class="cls-1" d="M76.27,93.22c-.52,0-.99-.1-1.41-.3s-.76-.48-1.01-.86c-.25-.38-.37-.83-.37-1.36,0-.47.09-.85.28-1.14s.43-.52.74-.69.65-.29,1.03-.38c.38-.08.75-.15,1.13-.2.5-.06.9-.11,1.21-.15.31-.03.54-.09.68-.17.14-.08.22-.22.22-.43v-.04c0-.53-.14-.93-.43-1.22s-.72-.44-1.3-.44-1.07.13-1.41.39-.58.54-.72.84l-1.19-.43c.21-.5.5-.89.86-1.16.36-.28.75-.47,1.17-.59.42-.11.84-.17,1.25-.17.26,0,.57.03.91.09.34.06.67.19,1,.38.32.19.59.48.8.87.21.39.32.91.32,1.55v5.39h-1.26v-1.11h-.06c-.09.18-.23.37-.43.57-.2.2-.46.38-.79.52-.33.14-.73.21-1.21.21ZM76.46,92.09c.5,0,.92-.1,1.26-.29s.6-.45.78-.76c.18-.31.26-.63.26-.97v-1.15c-.05.06-.17.12-.35.17-.18.05-.39.1-.62.13s-.46.07-.68.1c-.22.03-.39.05-.53.07-.33.04-.63.11-.91.21-.28.09-.51.23-.68.42s-.26.44-.26.76c0,.44.16.77.49.99.32.22.74.33,1.24.33Z"/>
      <path class="cls-1" d="M92.34,86.68l-1.13.32c-.07-.19-.17-.37-.31-.55-.14-.18-.32-.33-.56-.44s-.53-.18-.9-.18c-.5,0-.92.11-1.25.34-.33.23-.5.52-.5.87,0,.31.11.56.34.74.23.18.58.33,1.07.45l1.21.3c.73.18,1.28.45,1.63.81.36.36.54.83.54,1.4,0,.47-.13.89-.4,1.26-.27.37-.64.66-1.12.87-.48.21-1.04.32-1.67.32-.83,0-1.52-.18-2.07-.54-.55-.36-.89-.89-1.04-1.59l1.19-.3c.11.44.33.77.65.99.32.22.73.33,1.25.33.59,0,1.05-.12,1.4-.38.35-.25.52-.55.52-.9,0-.28-.1-.52-.3-.72-.2-.19-.5-.34-.92-.43l-1.36-.32c-.75-.18-1.3-.45-1.65-.83-.35-.38-.52-.84-.52-1.41,0-.46.13-.87.39-1.23.26-.35.62-.63,1.07-.84s.97-.3,1.54-.3c.81,0,1.45.18,1.91.53.46.36.79.82.99,1.41Z"/>
      <path class="cls-1" d="M97.71,93.2c-.74,0-1.39-.18-1.94-.53s-.99-.84-1.3-1.48c-.31-.63-.47-1.37-.47-2.22s.16-1.6.47-2.23c.31-.64.74-1.13,1.3-1.48s1.2-.53,1.94-.53,1.39.18,1.94.53.99.84,1.3,1.48c.31.64.47,1.38.47,2.23s-.16,1.58-.47,2.22c-.31.63-.74,1.12-1.3,1.48s-1.2.53-1.94.53ZM97.71,92.07c.56,0,1.02-.14,1.38-.43.36-.29.63-.67.8-1.13.17-.47.26-.98.26-1.52s-.09-1.06-.26-1.53c-.17-.47-.44-.85-.8-1.14-.36-.29-.82-.44-1.38-.44s-1.02.15-1.39.44c-.36.29-.63.67-.8,1.14-.17.47-.26.98-.26,1.53s.09,1.05.26,1.52.44.85.8,1.13c.36.29.82.43,1.39.43Z"/>
      <path class="cls-1" d="M106.65,93.2c-.77,0-1.43-.18-1.98-.54-.55-.36-.98-.86-1.28-1.5-.3-.64-.45-1.36-.45-2.18s.15-1.57.46-2.2c.31-.64.74-1.14,1.29-1.5.55-.36,1.2-.54,1.94-.54.58,0,1.09.11,1.56.32s.84.51,1.13.9c.29.38.48.83.55,1.34h-1.26c-.1-.37-.31-.7-.64-.99-.33-.29-.77-.43-1.32-.43-.49,0-.92.13-1.29.38-.37.25-.65.61-.86,1.07-.21.46-.31,1-.31,1.62s.1,1.18.3,1.65c.2.47.49.83.85,1.09.37.26.8.39,1.3.39.33,0,.62-.06.89-.17s.49-.28.68-.49.32-.47.39-.77h1.26c-.07.48-.25.92-.53,1.3-.28.39-.65.69-1.1.92-.46.23-.99.34-1.59.34Z"/>
      <path class="cls-1" d="M112.34,83.48c-.24,0-.46-.08-.63-.25s-.26-.37-.26-.6.09-.43.26-.6.39-.25.63-.25.46.08.63.25.26.37.26.6-.09.43-.26.6-.39.25-.63.25ZM111.7,93.03v-8.18h1.26v8.18h-1.26Z"/>
      <path class="cls-1" d="M117.67,93.22c-.52,0-.99-.1-1.41-.3-.42-.2-.76-.48-1.01-.86-.25-.38-.37-.83-.37-1.36,0-.47.09-.85.28-1.14s.43-.52.74-.69c.31-.17.65-.29,1.03-.38.37-.08.75-.15,1.13-.2.5-.06.9-.11,1.21-.15.31-.03.54-.09.68-.17.14-.08.22-.22.22-.43v-.04c0-.53-.14-.93-.43-1.22-.29-.29-.72-.44-1.3-.44s-1.07.13-1.41.39-.58.54-.72.84l-1.19-.43c.21-.5.5-.89.85-1.16.36-.28.75-.47,1.17-.59.42-.11.84-.17,1.25-.17.26,0,.57.03.91.09.34.06.67.19,1,.38.32.19.59.48.8.87.21.39.32.91.32,1.55v5.39h-1.26v-1.11h-.06c-.08.18-.23.37-.43.57-.2.2-.46.38-.79.52-.33.14-.73.21-1.21.21ZM117.86,92.09c.5,0,.92-.1,1.26-.29s.6-.45.78-.76c.18-.31.26-.63.26-.97v-1.15c-.05.06-.17.12-.35.17-.18.05-.38.1-.62.13-.23.04-.46.07-.68.1s-.4.05-.53.07c-.33.04-.63.11-.91.21-.28.09-.51.23-.68.42-.17.19-.26.44-.26.76,0,.44.16.77.49.99.33.22.74.33,1.24.33Z"/>
      <path class="cls-1" d="M124.98,82.12v10.91h-1.26v-10.91h1.26Z"/>
    </g>
  </g>
</svg>