<?xml version="1.0" encoding="UTF-8"?>
<svg xmlns="http://www.w3.org/2000/svg" viewBox="0 0 160 160">
  <defs>
    <style>
      .cls-1 {
        fill: #fff;
      }
    </style>
  </defs>
  <g id="Camada_2">
    <circle cx="80" cy="79.88" r="80"/>
  </g>
  <g id="Camada_1">
    <g>
      <path class="cls-1" d="M53.52,75.01h-3.37v-10.91h3.52c1.06,0,1.96.22,2.72.65.75.43,1.33,1.06,1.73,1.87.4.81.6,1.78.6,2.91s-.2,2.11-.61,2.93-.99,1.45-1.77,1.89c-.77.44-1.72.66-2.82.66ZM51.47,73.83h1.96c.9,0,1.65-.17,2.24-.52.59-.35,1.04-.84,1.33-1.49.29-.64.44-1.41.44-2.3s-.14-1.64-.43-2.28c-.29-.64-.72-1.13-1.29-1.47s-1.28-.51-2.14-.51h-2.11v8.57Z"/>
      <path class="cls-1" d="M64.19,75.18c-.79,0-1.47-.17-2.04-.52-.57-.35-1.01-.84-1.32-1.47-.31-.63-.46-1.36-.46-2.2s.15-1.58.46-2.22c.31-.64.74-1.14,1.29-1.5.55-.36,1.2-.54,1.94-.54.43,0,.85.07,1.26.21.42.14.79.37,1.13.69.34.32.61.74.81,1.26.2.52.3,1.16.3,1.93v.53h-6.31v-1.09h5.03c0-.46-.09-.87-.27-1.24-.18-.36-.44-.65-.78-.86-.34-.21-.73-.31-1.19-.31-.5,0-.93.12-1.3.37-.36.25-.64.57-.84.96s-.29.82-.29,1.27v.72c0,.62.11,1.14.32,1.57.21.43.51.75.9.98.38.22.83.33,1.34.33.33,0,.63-.05.9-.14s.5-.24.7-.43c.2-.19.35-.43.45-.71l1.21.34c-.13.41-.34.77-.64,1.08-.3.31-.67.55-1.12.72-.44.17-.94.26-1.5.26Z"/>
      <path class="cls-1" d="M75.29,68.66l-1.13.32c-.07-.19-.18-.37-.31-.55-.14-.18-.32-.33-.56-.44s-.53-.18-.9-.18c-.5,0-.92.11-1.25.34-.33.23-.5.52-.5.87,0,.31.11.56.34.74.23.18.58.33,1.07.45l1.21.3c.73.18,1.28.45,1.64.81.36.36.54.83.54,1.4,0,.47-.13.89-.4,1.26s-.64.66-1.12.87c-.48.21-1.04.32-1.67.32-.83,0-1.52-.18-2.07-.54-.55-.36-.89-.89-1.04-1.59l1.19-.3c.11.44.33.77.65.99.32.22.73.33,1.25.33.59,0,1.05-.12,1.4-.38.35-.25.52-.55.52-.9,0-.28-.1-.52-.3-.72-.2-.19-.5-.34-.92-.43l-1.36-.32c-.75-.18-1.3-.45-1.65-.83-.35-.38-.52-.84-.52-1.41,0-.46.13-.87.39-1.23.26-.35.62-.63,1.07-.84.45-.2.97-.3,1.54-.3.81,0,1.45.18,1.91.53.46.36.79.82.99,1.41Z"/>
      <path class="cls-1" d="M77.98,65.46c-.24,0-.46-.08-.63-.25s-.26-.37-.26-.6.09-.43.26-.6.39-.25.63-.25.46.08.63.25.26.37.26.6-.09.43-.26.6-.39.25-.63.25ZM77.34,75.01v-8.18h1.26v8.18h-1.26Z"/>
      <path class="cls-1" d="M84.2,78.24c-.61,0-1.13-.08-1.57-.23-.44-.15-.8-.36-1.09-.61-.29-.25-.52-.52-.69-.8l1-.7c.11.15.26.32.43.51.17.19.41.36.72.51s.7.22,1.2.22c.66,0,1.21-.16,1.64-.48s.64-.82.64-1.5v-1.66h-.11c-.09.15-.22.33-.39.55-.17.22-.41.41-.72.58-.31.17-.74.25-1.27.25-.66,0-1.25-.16-1.78-.47-.52-.31-.94-.77-1.24-1.36-.3-.6-.46-1.32-.46-2.17s.15-1.57.44-2.19c.29-.62.71-1.11,1.23-1.45.53-.34,1.13-.51,1.82-.51.53,0,.96.09,1.27.26s.56.38.72.6c.17.22.3.4.39.55h.13v-1.3h1.21v8.42c0,.7-.16,1.28-.48,1.72-.32.44-.74.77-1.28.98-.53.21-1.13.31-1.78.31ZM84.16,73.75c.5,0,.93-.12,1.28-.35.35-.23.61-.56.79-1,.18-.43.27-.95.27-1.55s-.09-1.11-.27-1.56c-.18-.45-.44-.8-.79-1.06-.35-.26-.78-.38-1.29-.38s-.98.14-1.33.41c-.35.27-.62.63-.79,1.09-.18.45-.26.96-.26,1.51s.09,1.07.27,1.5c.18.43.45.78.8,1.02.35.25.79.37,1.32.37Z"/>
      <path class="cls-1" d="M91.29,70.08v4.92h-1.26v-8.18h1.21v1.28h.11c.19-.42.48-.75.87-1s.9-.38,1.51-.38c.55,0,1.04.11,1.45.34s.74.57.97,1.02c.23.46.35,1.03.35,1.73v5.2h-1.26v-5.11c0-.64-.17-1.14-.5-1.5-.33-.36-.79-.54-1.37-.54-.4,0-.76.09-1.07.26-.31.17-.56.43-.74.76-.18.33-.27.74-.27,1.21Z"/>
      <path class="cls-1" d="M106.46,75.18c-.79,0-1.47-.17-2.04-.52-.57-.35-1.01-.84-1.32-1.47-.31-.63-.46-1.36-.46-2.2s.15-1.58.46-2.22c.31-.64.74-1.14,1.29-1.5.55-.36,1.2-.54,1.94-.54.43,0,.85.07,1.26.21.42.14.79.37,1.13.69.34.32.61.74.81,1.26.2.52.3,1.16.3,1.93v.53h-6.31v-1.09h5.03c0-.46-.09-.87-.27-1.24-.18-.36-.44-.65-.78-.86-.34-.21-.73-.31-1.19-.31-.5,0-.93.12-1.3.37-.36.25-.64.57-.84.96s-.29.82-.29,1.27v.72c0,.62.11,1.14.32,1.57.21.43.51.75.9.98.38.22.83.33,1.34.33.33,0,.63-.05.9-.14s.5-.24.7-.43c.2-.19.35-.43.45-.71l1.21.34c-.13.41-.34.77-.64,1.08-.3.31-.67.55-1.12.72-.44.17-.94.26-1.5.26Z"/>
      <path class="cls-1" d="M61.32,96.24c-.61,0-1.13-.08-1.57-.23-.44-.15-.8-.36-1.09-.61-.29-.25-.52-.52-.69-.8l1-.7c.11.15.26.32.43.51.17.19.41.36.72.51s.7.22,1.2.22c.66,0,1.21-.16,1.64-.48s.64-.82.64-1.5v-1.66h-.11c-.09.15-.22.33-.39.55-.17.22-.41.41-.72.58-.31.17-.74.25-1.27.25-.66,0-1.25-.16-1.78-.47-.52-.31-.94-.77-1.24-1.36-.3-.6-.46-1.32-.46-2.17s.15-1.57.44-2.19c.29-.62.71-1.11,1.23-1.45.53-.34,1.13-.51,1.82-.51.53,0,.96.09,1.27.26s.56.38.72.6c.17.22.3.4.39.55h.13v-1.3h1.21v8.42c0,.7-.16,1.28-.48,1.72-.32.44-.74.77-1.28.98-.53.21-1.13.31-1.78.31ZM61.28,91.75c.5,0,.93-.12,1.28-.35.35-.23.61-.56.79-1,.18-.43.27-.95.27-1.55s-.09-1.11-.27-1.56c-.18-.45-.44-.8-.79-1.06-.35-.26-.78-.38-1.29-.38s-.98.14-1.33.41c-.35.27-.62.63-.79,1.09-.18.45-.26.96-.26,1.51s.09,1.07.27,1.5c.18.43.45.78.8,1.02.35.25.79.37,1.32.37Z"/>
      <path class="cls-1" d="M70.59,93.18c-.79,0-1.47-.17-2.04-.52-.57-.35-1.01-.84-1.32-1.47-.31-.63-.46-1.36-.46-2.2s.15-1.58.46-2.22c.31-.64.74-1.14,1.29-1.5.55-.36,1.2-.54,1.94-.54.43,0,.85.07,1.26.21.42.14.79.37,1.13.69.34.32.61.74.81,1.26.2.52.3,1.16.3,1.93v.53h-6.31v-1.09h5.03c0-.46-.09-.87-.27-1.24-.18-.36-.44-.65-.78-.86-.34-.21-.73-.31-1.19-.31-.5,0-.93.12-1.3.37-.36.25-.64.57-.84.96s-.29.82-.29,1.27v.72c0,.62.11,1.14.32,1.57.21.43.51.75.9.98.38.22.83.33,1.34.33.33,0,.63-.05.9-.14s.5-.24.7-.43c.2-.19.35-.43.45-.71l1.21.34c-.13.41-.34.77-.64,1.08-.3.31-.67.55-1.12.72-.44.17-.94.26-1.5.26ZM71.51,83.84l-1.11-1.49-1.11,1.49h-1.19v-.08l1.73-2.22h1.15l1.73,2.22v.08h-1.19Z"/>
      <path class="cls-1" d="M77.16,88.08v4.92h-1.26v-8.18h1.21v1.28h.11c.19-.42.48-.75.87-1s.9-.38,1.51-.38c.55,0,1.04.11,1.45.34s.74.57.97,1.02c.23.46.35,1.03.35,1.73v5.2h-1.26v-5.11c0-.64-.17-1.14-.5-1.5-.33-.36-.79-.54-1.37-.54-.4,0-.76.09-1.07.26-.31.17-.56.43-.74.76-.18.33-.27.74-.27,1.21Z"/>
      <path class="cls-1" d="M88.11,93.18c-.79,0-1.47-.17-2.04-.52-.57-.35-1.01-.84-1.32-1.47-.31-.63-.46-1.36-.46-2.2s.15-1.58.46-2.22c.31-.64.74-1.14,1.29-1.5.55-.36,1.2-.54,1.94-.54.43,0,.85.07,1.26.21.42.14.79.37,1.13.69.34.32.61.74.81,1.26.2.52.3,1.16.3,1.93v.53h-6.31v-1.09h5.03c0-.46-.09-.87-.27-1.24-.18-.36-.44-.65-.78-.86-.34-.21-.73-.31-1.19-.31-.5,0-.93.12-1.3.37-.36.25-.64.57-.84.96s-.29.82-.29,1.27v.72c0,.62.11,1.14.32,1.57.21.43.51.75.9.98.38.22.83.33,1.34.33.33,0,.63-.05.9-.14s.5-.24.7-.43c.2-.19.35-.43.45-.71l1.21.34c-.13.41-.34.77-.64,1.08-.3.31-.67.55-1.12.72-.44.17-.94.26-1.5.26Z"/>
      <path class="cls-1" d="M93.41,93.01v-8.18h1.21v1.24h.08c.15-.41.42-.73.81-.99.39-.25.83-.38,1.32-.38.09,0,.21,0,.35,0,.14,0,.24,0,.31.02v1.28s-.14-.03-.29-.05c-.15-.02-.31-.03-.48-.03-.4,0-.75.08-1.06.25-.31.17-.56.39-.73.68-.18.29-.27.62-.27.99v5.18h-1.26Z"/>
      <path class="cls-1" d="M102.32,93.18c-.74,0-1.39-.18-1.94-.53s-.99-.84-1.3-1.48c-.31-.63-.47-1.37-.47-2.22s.16-1.6.47-2.23c.31-.64.74-1.13,1.3-1.48s1.2-.53,1.94-.53,1.39.18,1.94.53.99.84,1.3,1.48c.31.64.47,1.38.47,2.23s-.16,1.58-.47,2.22c-.31.63-.74,1.12-1.3,1.48s-1.2.53-1.94.53ZM102.32,92.05c.56,0,1.02-.14,1.38-.43.36-.29.63-.67.8-1.13.17-.47.26-.98.26-1.52s-.09-1.06-.26-1.53c-.17-.47-.44-.85-.8-1.14-.36-.29-.82-.44-1.38-.44s-1.02.15-1.39.44c-.36.29-.63.67-.8,1.14-.17.47-.26.98-.26,1.53s.09,1.05.26,1.52.44.85.8,1.13c.36.29.82.43,1.39.43Z"/>
    </g>
  </g>
</svg>