<?xml version="1.0" encoding="UTF-8"?>
<svg xmlns="http://www.w3.org/2000/svg" viewBox="0 0 160 160">
  <defs>
    <style>
      .cls-1 {
        fill: #fff;
      }
    </style>
  </defs>
  <g id="Camada_2">
    <circle cx="80" cy="79.88" r="80"/>
  </g>
  <g id="Camada_1">
    <g>
      <path class="cls-1" d="M46.24,83.99v-10.91h6.58v1.17h-5.26v3.69h4.92v1.17h-4.92v3.71h5.35v1.17h-6.67Z"/>
      <path class="cls-1" d="M58.13,84.17c-.68,0-1.28-.17-1.81-.52-.52-.35-.93-.84-1.22-1.47-.29-.63-.44-1.38-.44-2.25s.15-1.61.44-2.24.71-1.12,1.23-1.46,1.13-.52,1.82-.52c.53,0,.96.09,1.27.26s.55.38.71.6.29.4.39.55h.11v-4.03h1.26v10.91h-1.21v-1.26h-.15c-.09.15-.22.34-.39.56-.17.23-.41.43-.73.6-.32.18-.74.26-1.26.26ZM58.3,83.04c.5,0,.93-.13,1.28-.4.35-.26.61-.63.79-1.1.18-.47.27-1.01.27-1.63s-.09-1.15-.27-1.61c-.18-.46-.44-.82-.79-1.08-.35-.26-.78-.39-1.29-.39s-.98.14-1.33.41c-.35.27-.62.64-.79,1.1-.18.46-.26.98-.26,1.56s.09,1.11.27,1.58c.18.47.45.85.8,1.13.35.28.79.42,1.32.42Z"/>
      <path class="cls-1" d="M69.51,80.65v-4.84h1.26v8.18h-1.26v-1.38h-.08c-.19.42-.49.77-.89,1.06-.41.29-.92.43-1.53.43-.51,0-.97-.11-1.36-.34-.4-.23-.71-.57-.94-1.02-.23-.46-.34-1.03-.34-1.73v-5.2h1.26v5.11c0,.6.17,1.07.5,1.43.34.36.76.53,1.29.53.31,0,.63-.08.96-.24.32-.16.6-.4.82-.73.22-.33.33-.75.33-1.26Z"/>
      <path class="cls-1" d="M76.39,84.17c-.77,0-1.43-.18-1.98-.54-.55-.36-.98-.86-1.28-1.5-.3-.64-.45-1.36-.45-2.18s.15-1.57.46-2.2c.31-.64.74-1.14,1.29-1.5s1.2-.54,1.94-.54c.58,0,1.09.11,1.55.32.46.21.84.51,1.13.9.29.38.48.83.55,1.34h-1.26c-.1-.37-.31-.7-.64-.99s-.77-.43-1.32-.43c-.49,0-.92.13-1.29.38-.37.25-.65.61-.86,1.07s-.31,1-.31,1.62.1,1.18.3,1.65c.2.47.48.83.85,1.09.37.26.8.39,1.3.39.33,0,.62-.06.89-.17.27-.11.49-.28.68-.49s.32-.47.39-.77h1.26c-.07.48-.25.92-.52,1.3-.28.39-.65.69-1.1.92-.46.23-.99.34-1.59.34Z"/>
      <path class="cls-1" d="M83.85,84.19c-.52,0-.99-.1-1.41-.3s-.76-.48-1.01-.86c-.25-.38-.37-.83-.37-1.36,0-.47.09-.85.28-1.14s.43-.52.74-.69.65-.29,1.03-.38c.38-.08.75-.15,1.13-.2.5-.06.9-.11,1.21-.15.31-.03.54-.09.68-.17.14-.08.22-.22.22-.43v-.04c0-.53-.14-.93-.43-1.22s-.72-.44-1.3-.44-1.07.13-1.41.39-.58.54-.72.84l-1.19-.43c.21-.5.5-.89.86-1.16.36-.28.75-.47,1.17-.59.42-.11.84-.17,1.25-.17.26,0,.57.03.91.09.34.06.67.19,1,.38.32.19.59.48.8.87.21.39.32.91.32,1.55v5.39h-1.26v-1.11h-.06c-.09.18-.23.37-.43.57-.2.2-.46.38-.79.52-.33.14-.73.21-1.21.21ZM84.04,83.06c.5,0,.92-.1,1.26-.29s.6-.45.78-.76c.18-.31.26-.63.26-.97v-1.15c-.05.06-.17.12-.35.17-.18.05-.39.1-.62.13s-.46.07-.68.1c-.22.03-.39.05-.53.07-.33.04-.63.11-.91.21-.28.09-.51.23-.68.42s-.26.44-.26.76c0,.44.16.77.49.99.32.22.74.33,1.24.33Z"/>
      <path class="cls-1" d="M93.22,84.17c-.77,0-1.43-.18-1.98-.54-.55-.36-.98-.86-1.28-1.5-.3-.64-.45-1.36-.45-2.18s.15-1.57.46-2.2c.31-.64.74-1.14,1.29-1.5s1.2-.54,1.94-.54c.58,0,1.09.11,1.55.32.46.21.84.51,1.13.9.29.38.48.83.55,1.34h-1.26c-.1-.37-.31-.7-.64-.99s-.77-.43-1.32-.43c-.49,0-.92.13-1.29.38-.37.25-.65.61-.86,1.07s-.31,1-.31,1.62.1,1.18.3,1.65c.2.47.48.83.85,1.09.37.26.8.39,1.3.39.33,0,.62-.06.89-.17.27-.11.49-.28.68-.49s.32-.47.39-.77h1.26c-.07.48-.25.92-.52,1.3-.28.39-.65.69-1.1.92-.46.23-.99.34-1.59.34ZM92.62,83.95h1.04l-.09.43c.28.04.53.16.76.35.23.19.35.49.35.91,0,.46-.19.83-.57,1.12-.38.29-.93.43-1.67.43l-.04-.83c.33,0,.61-.05.82-.16.22-.1.33-.28.33-.52s-.09-.41-.27-.5c-.18-.09-.47-.15-.88-.18l.21-1.04Z"/>
      <path class="cls-1" d="M100.68,84.19c-.52,0-.99-.1-1.41-.3-.42-.2-.76-.48-1.01-.86-.25-.38-.37-.83-.37-1.36,0-.47.09-.85.28-1.14s.43-.52.74-.69c.31-.17.65-.29,1.03-.38.37-.08.75-.15,1.13-.2.5-.06.9-.11,1.21-.15.31-.03.54-.09.68-.17.14-.08.22-.22.22-.43v-.04c0-.53-.14-.93-.43-1.22-.29-.29-.72-.44-1.3-.44s-1.07.13-1.41.39-.58.54-.72.84l-1.19-.43c.21-.5.5-.89.85-1.16.36-.28.75-.47,1.17-.59.42-.11.84-.17,1.25-.17.26,0,.57.03.91.09.34.06.67.19,1,.38.32.19.59.48.8.87.21.39.32.91.32,1.55v5.39h-1.26v-1.11h-.06c-.08.18-.23.37-.43.57-.2.2-.46.38-.79.52-.33.14-.73.21-1.21.21ZM99.85,74.83l-.98-.04c0-.54.16-.99.47-1.33.31-.35.69-.52,1.15-.52.2,0,.38.03.54.1s.31.15.45.24c.14.09.29.17.44.24.15.07.32.1.51.1.2,0,.37-.08.51-.24.14-.16.21-.35.21-.57l.96.08c0,.55-.16.99-.47,1.32-.31.33-.69.49-1.15.49-.24,0-.45-.04-.61-.1-.16-.07-.3-.15-.43-.24-.12-.09-.26-.17-.39-.24-.14-.07-.31-.1-.51-.1s-.37.08-.5.24c-.13.16-.2.35-.2.57ZM100.87,83.06c.5,0,.92-.1,1.26-.29s.6-.45.78-.76c.18-.31.26-.63.26-.97v-1.15c-.05.06-.17.12-.35.17-.18.05-.38.1-.62.13-.23.04-.46.07-.68.1s-.4.05-.53.07c-.33.04-.63.11-.91.21-.28.09-.51.23-.68.42-.17.19-.26.44-.26.76,0,.44.16.77.49.99.33.22.74.33,1.24.33Z"/>
      <path class="cls-1" d="M110.05,84.17c-.74,0-1.39-.18-1.94-.53s-.99-.84-1.3-1.48c-.31-.63-.47-1.37-.47-2.22s.16-1.6.47-2.23c.31-.64.74-1.13,1.3-1.48s1.2-.53,1.94-.53,1.39.18,1.94.53.99.84,1.3,1.48c.31.64.47,1.38.47,2.23s-.16,1.58-.47,2.22c-.31.63-.74,1.12-1.3,1.48s-1.2.53-1.94.53ZM110.05,83.04c.56,0,1.02-.14,1.38-.43.36-.29.63-.67.8-1.13.17-.47.26-.98.26-1.52s-.09-1.06-.26-1.53c-.17-.47-.44-.85-.8-1.14-.36-.29-.82-.44-1.38-.44s-1.02.15-1.39.44c-.36.29-.63.67-.8,1.14-.17.47-.26.98-.26,1.53s.09,1.05.26,1.52.44.85.8,1.13c.36.29.82.43,1.39.43Z"/>
    </g>
  </g>
</svg>