<?xml version="1.0" encoding="UTF-8"?>
<svg id="Camada_1" xmlns="http://www.w3.org/2000/svg" version="1.1" viewBox="0 0 160 160">
  <!-- Generator: Adobe Illustrator 29.8.3, SVG Export Plug-In . SVG Version: 2.1.1 Build 3)  -->
  <defs>
    <style>
      .st0 {
        fill: #fff;
      }
    </style>
  </defs>
  <g id="Camada_2">
    <circle cx="80" cy="-280" r="80"/>
  </g>
  <g>
    <path class="st0" d="M26.3-284.9v-10.9h6.8v1.4h-5.2v3.3h4.8v1.4h-4.8v3.3h5.3v1.4h-6.9Z"/>
    <path class="st0" d="M36.5-293.1l1.8,3.2,1.8-3.2h1.7l-2.6,4.1,2.6,4.1h-1.7l-1.8-3.1-1.8,3.1h-1.7l2.5-4.1-2.5-4.1h1.7Z"/>
    <path class="st0" d="M43.5-281.9v-11.2h1.6v1.3h.1c0-.2.2-.4.4-.6.2-.2.4-.4.7-.6.3-.2.7-.3,1.2-.3s1.2.2,1.8.5.9.8,1.2,1.4c.3.6.4,1.4.4,2.3s-.1,1.6-.4,2.3-.7,1.1-1.2,1.5c-.5.3-1.1.5-1.8.5s-.9,0-1.2-.2c-.3-.2-.6-.4-.7-.6-.2-.2-.3-.4-.4-.6h0v4.3h-1.6ZM45-289c0,.6,0,1.1.2,1.5s.4.8.7,1c.3.2.7.4,1.2.4s.9-.1,1.2-.4c.3-.3.6-.6.7-1,.2-.4.2-.9.2-1.5s0-1-.2-1.5c-.2-.4-.4-.8-.7-1s-.7-.4-1.2-.4-.9.1-1.2.4c-.3.2-.6.6-.7,1-.2.4-.2.9-.2,1.5Z"/>
    <path class="st0" d="M56.3-284.8c-.8,0-1.5-.2-2.1-.5-.6-.3-1-.8-1.3-1.5s-.5-1.4-.5-2.2.2-1.6.5-2.2.8-1.1,1.3-1.5c.6-.4,1.2-.5,2-.5s.9,0,1.3.2c.4.2.8.4,1.2.7.3.3.6.8.8,1.3.2.5.3,1.2.3,1.9v.6h-6.5v-1.2h4.9c0-.4,0-.8-.3-1.1-.2-.3-.4-.6-.7-.8-.3-.2-.7-.3-1.1-.3s-.8.1-1.2.3-.6.5-.8.9c-.2.4-.3.7-.3,1.1v.9c0,.5,0,1,.3,1.4.2.4.5.7.8.9.3.2.8.3,1.2.3s.6,0,.8-.1c.2,0,.5-.2.6-.4.2-.2.3-.4.4-.6l1.5.3c-.1.4-.3.8-.6,1.2-.3.3-.7.6-1.2.8-.5.2-1,.3-1.6.3Z"/>
    <path class="st0" d="M61.5-284.9v-8.2h1.5v1.3h0c.1-.4.4-.8.8-1s.8-.4,1.3-.4.2,0,.4,0c.1,0,.2,0,.3,0v1.5c0,0-.2,0-.3,0-.2,0-.3,0-.5,0-.4,0-.7,0-1,.2-.3.2-.5.4-.7.7-.2.3-.3.6-.3,1v5h-1.6Z"/>
    <path class="st0" d="M68.1-294.4c-.3,0-.5,0-.7-.3-.2-.2-.3-.4-.3-.7s0-.5.3-.7c.2-.2.4-.3.7-.3s.5,0,.7.3c.2.2.3.4.3.7s0,.5-.3.7c-.2.2-.4.3-.7.3ZM67.3-284.9v-8.2h1.6v8.2h-1.6Z"/>
    <path class="st0" d="M74.6-284.8c-.8,0-1.5-.2-2.1-.5-.6-.3-1-.8-1.3-1.5s-.5-1.4-.5-2.2.2-1.6.5-2.2.8-1.1,1.3-1.5c.6-.4,1.2-.5,2-.5s.9,0,1.3.2c.4.2.8.4,1.2.7.3.3.6.8.8,1.3.2.5.3,1.2.3,1.9v.6h-6.5v-1.2h4.9c0-.4,0-.8-.3-1.1-.2-.3-.4-.6-.7-.8-.3-.2-.7-.3-1.1-.3s-.8.1-1.2.3-.6.5-.8.9c-.2.4-.3.7-.3,1.1v.9c0,.5,0,1,.3,1.4.2.4.5.7.8.9.3.2.8.3,1.2.3s.6,0,.8-.1c.2,0,.5-.2.6-.4.2-.2.3-.4.4-.6l1.5.3c-.1.4-.3.8-.6,1.2-.3.3-.7.6-1.2.8-.5.2-1,.3-1.6.3ZM75.5-294.1l-1.1-1.4-1.1,1.4h-1.4c0,0,1.9-2.3,1.9-2.3h1.3l1.9,2.3h0c0,0-1.4,0-1.4,0Z"/>
    <path class="st0" d="M81.4-289.8v4.9h-1.6v-8.2h1.5v1.3h0c.2-.4.5-.8.9-1,.4-.3.9-.4,1.5-.4s1,.1,1.5.3c.4.2.7.6,1,1s.3,1,.3,1.7v5.2h-1.6v-5c0-.6-.2-1.1-.5-1.4-.3-.3-.7-.5-1.3-.5s-.7,0-1,.2c-.3.2-.5.4-.7.7-.2.3-.2.7-.2,1.1Z"/>
    <path class="st0" d="M92.3-284.8c-.8,0-1.5-.2-2-.5-.6-.4-1-.9-1.3-1.5-.3-.6-.5-1.4-.5-2.2s.2-1.6.5-2.2c.3-.6.8-1.1,1.3-1.5.6-.4,1.2-.5,2-.5s1.2.1,1.7.3.9.5,1.2,1c.3.4.5.9.5,1.4h-1.5c0-.4-.3-.7-.6-1-.3-.3-.7-.4-1.2-.4s-.8.1-1.2.3c-.3.2-.6.6-.8,1-.2.4-.3.9-.3,1.5s0,1.1.3,1.5c.2.4.4.8.8,1,.3.2.7.4,1.2.4s.6,0,.8-.2c.2-.1.5-.3.6-.5.2-.2.3-.5.4-.8h1.5c0,.5-.2,1-.5,1.4s-.7.7-1.2,1c-.5.2-1,.4-1.7.4Z"/>
    <path class="st0" d="M98.1-294.4c-.3,0-.5,0-.7-.3-.2-.2-.3-.4-.3-.7s0-.5.3-.7c.2-.2.4-.3.7-.3s.5,0,.7.3c.2.2.3.4.3.7s0,.5-.3.7c-.2.2-.4.3-.7.3ZM97.3-284.9v-8.2h1.6v8.2h-1.6Z"/>
    <path class="st0" d="M103.4-284.7c-.5,0-1,0-1.4-.3-.4-.2-.8-.5-1-.8-.2-.4-.4-.8-.4-1.4s0-.8.3-1.1.4-.5.7-.7c.3-.2.6-.3,1-.4s.8-.2,1.1-.2c.5,0,.9-.1,1.2-.1.3,0,.5,0,.7-.2.1,0,.2-.2.2-.4h0c0-.5-.1-.9-.4-1.1-.3-.3-.7-.4-1.2-.4s-1,.1-1.3.4-.5.5-.6.8l-1.5-.3c.2-.5.4-.9.8-1.2.3-.3.7-.5,1.2-.7.4-.1.9-.2,1.4-.2s.7,0,1,.1.7.2,1,.4c.3.2.6.5.8.9.2.4.3.9.3,1.5v5.4h-1.6v-1.1h0c-.1.2-.3.4-.5.6-.2.2-.5.4-.8.5-.3.1-.7.2-1.2.2ZM103.8-286c.4,0,.8,0,1.1-.3.3-.2.6-.4.7-.7.2-.3.2-.6.2-.9v-1.1c0,0-.2.1-.3.2s-.3,0-.6.1c-.2,0-.4,0-.6,0-.2,0-.4,0-.5,0-.3,0-.6.1-.8.2s-.5.2-.6.4c-.2.2-.2.4-.2.7s.1.7.4.9c.3.2.7.3,1.1.3Z"/>
    <path class="st0" d="M116.6-284.8c-.7,0-1.2-.2-1.8-.5-.5-.3-.9-.8-1.2-1.5s-.4-1.4-.4-2.3.1-1.6.4-2.3c.3-.6.7-1.1,1.2-1.4.5-.3,1.1-.5,1.8-.5s.9,0,1.2.3c.3.2.6.4.7.6.2.2.3.4.4.6h0v-4.1h1.6v10.9h-1.6v-1.3h-.1c0,.2-.2.4-.4.6-.2.2-.4.4-.7.6-.3.2-.7.2-1.2.2ZM117-286.1c.5,0,.8-.1,1.2-.4.3-.2.6-.6.7-1,.2-.4.2-.9.2-1.5s0-1.1-.2-1.5c-.2-.4-.4-.8-.7-1-.3-.2-.7-.4-1.2-.4s-.9.1-1.2.4-.6.6-.7,1c-.2.4-.2.9-.2,1.5s0,1,.2,1.5c.2.4.4.8.7,1,.3.3.7.4,1.2.4Z"/>
    <path class="st0" d="M126.4-284.8c-.8,0-1.4-.2-2-.5-.6-.4-1-.8-1.3-1.5-.3-.6-.5-1.4-.5-2.2s.2-1.6.5-2.2c.3-.6.8-1.1,1.3-1.5.6-.4,1.2-.5,2-.5s1.4.2,2,.5c.6.4,1,.8,1.3,1.5.3.6.5,1.4.5,2.2s-.2,1.6-.5,2.2c-.3.6-.8,1.1-1.3,1.5-.6.4-1.2.5-2,.5ZM126.4-286.1c.5,0,.9-.1,1.2-.4s.6-.6.7-1c.2-.4.2-.9.2-1.4s0-1-.2-1.4c-.2-.4-.4-.8-.7-1.1-.3-.3-.7-.4-1.2-.4s-.9.1-1.2.4c-.3.3-.6.6-.7,1.1-.2.4-.2.9-.2,1.4s0,1,.2,1.4c.2.4.4.8.7,1,.3.3.7.4,1.2.4Z"/>
    <path class="st0" d="M63.2-274.3h-1.7c0-.4-.2-.7-.4-.9-.2-.3-.4-.5-.6-.7-.3-.2-.5-.3-.8-.4-.3,0-.6-.1-1-.1-.6,0-1.2.2-1.7.5s-.9.8-1.2,1.4-.4,1.4-.4,2.2.1,1.6.4,2.2.7,1.1,1.2,1.4c.5.3,1.1.5,1.7.5s.7,0,1-.1.6-.2.8-.4c.3-.2.5-.4.6-.7s.3-.6.4-.9h1.7c0,.5-.3,1-.5,1.5s-.6.8-1,1.2c-.4.3-.8.6-1.4.8s-1.1.3-1.7.3c-.9,0-1.8-.2-2.5-.7-.7-.4-1.3-1.1-1.7-1.9-.4-.8-.6-1.8-.6-3s.2-2.2.6-3c.4-.8,1-1.5,1.7-1.9s1.6-.7,2.5-.7,1.1,0,1.6.2c.5.2,1,.4,1.4.7s.7.7,1,1.2c.3.5.4,1,.5,1.6Z"/>
    <path class="st0" d="M66.6-277.8v10.9h-1.6v-10.9h1.6Z"/>
    <path class="st0" d="M69.6-276.4c-.3,0-.5,0-.7-.3-.2-.2-.3-.4-.3-.7s0-.5.3-.7c.2-.2.4-.3.7-.3s.5,0,.7.3c.2.2.3.4.3.7s0,.5-.3.7c-.2.2-.4.3-.7.3ZM68.7-266.9v-8.2h1.6v8.2h-1.6Z"/>
    <path class="st0" d="M76-266.8c-.8,0-1.5-.2-2.1-.5-.6-.3-1-.8-1.3-1.5s-.5-1.4-.5-2.2.2-1.6.5-2.2.8-1.1,1.3-1.5c.6-.4,1.2-.5,2-.5s.9,0,1.3.2c.4.2.8.4,1.2.7.3.3.6.8.8,1.3.2.5.3,1.2.3,1.9v.6h-6.5v-1.2h4.9c0-.4,0-.8-.3-1.1-.2-.3-.4-.6-.7-.8-.3-.2-.7-.3-1.1-.3s-.8.1-1.2.3-.6.5-.8.9c-.2.4-.3.7-.3,1.1v.9c0,.5,0,1,.3,1.4.2.4.5.7.8.9.3.2.8.3,1.2.3s.6,0,.8-.1c.2,0,.5-.2.6-.4.2-.2.3-.4.4-.6l1.5.3c-.1.4-.3.8-.6,1.2-.3.3-.7.6-1.2.8-.5.2-1,.3-1.6.3Z"/>
    <path class="st0" d="M82.9-271.8v4.9h-1.6v-8.2h1.5v1.3h0c.2-.4.5-.8.9-1,.4-.3.9-.4,1.5-.4s1,.1,1.5.3c.4.2.7.6,1,1s.3,1,.3,1.7v5.2h-1.6v-5c0-.6-.2-1.1-.5-1.4-.3-.3-.7-.5-1.3-.5s-.7,0-1,.2c-.3.2-.5.4-.7.7-.2.3-.2.7-.2,1.1Z"/>
    <path class="st0" d="M94.1-275.1v1.3h-4.5v-1.3h4.5ZM90.8-277.1h1.6v7.7c0,.3,0,.5.1.7,0,.2.2.3.4.3.1,0,.3,0,.5,0s.2,0,.3,0,.2,0,.2,0l.3,1.3c0,0-.2,0-.4.1-.2,0-.4,0-.6,0-.4,0-.8,0-1.2-.2-.4-.2-.7-.4-.9-.7-.2-.3-.3-.7-.3-1.2v-8.1Z"/>
    <path class="st0" d="M99.4-266.8c-.8,0-1.5-.2-2.1-.5-.6-.3-1-.8-1.3-1.5s-.5-1.4-.5-2.2.2-1.6.5-2.2.8-1.1,1.3-1.5c.6-.4,1.2-.5,2-.5s.9,0,1.3.2c.4.2.8.4,1.2.7s.6.8.8,1.3c.2.5.3,1.2.3,1.9v.6h-6.5v-1.2h4.9c0-.4,0-.8-.3-1.1-.2-.3-.4-.6-.7-.8-.3-.2-.7-.3-1.1-.3s-.8.1-1.2.3-.6.5-.8.9c-.2.4-.3.7-.3,1.1v.9c0,.5,0,1,.3,1.4.2.4.5.7.8.9.3.2.8.3,1.2.3s.6,0,.8-.1c.2,0,.5-.2.6-.4.2-.2.3-.4.4-.6l1.5.3c-.1.4-.3.8-.6,1.2s-.7.6-1.2.8c-.5.2-1,.3-1.6.3Z"/>
  </g>
  <g id="Camada_21" data-name="Camada_2">
    <circle cx="80" cy="-100" r="80"/>
  </g>
  <g>
    <path class="st0" d="M41.9-104.9h-3.5v-10.9h3.6c1.1,0,2,.2,2.8.7.8.4,1.4,1.1,1.8,1.9s.6,1.8.6,2.9-.2,2.1-.6,2.9c-.4.8-1,1.4-1.8,1.9s-1.7.7-2.8.7ZM40-106.4h1.8c.8,0,1.5-.2,2.1-.5.5-.3,1-.8,1.2-1.4.3-.6.4-1.3.4-2.2s-.1-1.6-.4-2.2c-.3-.6-.7-1-1.2-1.4-.5-.3-1.2-.5-2-.5h-1.9v8Z"/>
    <path class="st0" d="M52.6-104.8c-.8,0-1.5-.2-2.1-.5-.6-.3-1-.8-1.3-1.5s-.5-1.4-.5-2.2.2-1.6.5-2.2.8-1.1,1.3-1.5c.6-.4,1.2-.5,2-.5s.9,0,1.3.2c.4.2.8.4,1.2.7.3.3.6.8.8,1.3.2.5.3,1.2.3,1.9v.6h-6.5v-1.2h4.9c0-.4,0-.8-.3-1.1-.2-.3-.4-.6-.7-.8-.3-.2-.7-.3-1.1-.3s-.8.1-1.2.3-.6.5-.8.9c-.2.4-.3.7-.3,1.1v.9c0,.5,0,1,.3,1.4.2.4.5.7.8.9.3.2.8.3,1.2.3s.6,0,.8-.1c.2,0,.5-.2.6-.4.2-.2.3-.4.4-.6l1.5.3c-.1.4-.3.8-.6,1.2-.3.3-.7.6-1.2.8-.5.2-1,.3-1.6.3Z"/>
    <path class="st0" d="M64-111.1l-1.4.3c0-.2-.2-.4-.3-.5-.1-.2-.3-.3-.5-.4-.2-.1-.5-.2-.8-.2s-.8.1-1.1.3-.5.5-.5.8.1.5.3.7c.2.2.5.3,1,.4l1.3.3c.8.2,1.3.4,1.7.8.4.4.6.8.6,1.4s-.1.9-.4,1.3c-.3.4-.7.7-1.2.9-.5.2-1.1.3-1.7.3s-1.7-.2-2.2-.6c-.6-.4-.9-1-1.1-1.7l1.5-.2c0,.4.3.7.6.9.3.2.7.3,1.2.3s.9-.1,1.3-.3.5-.5.5-.8,0-.5-.3-.6c-.2-.2-.5-.3-.9-.4l-1.4-.3c-.8-.2-1.3-.5-1.7-.8-.4-.4-.5-.9-.5-1.4s.1-.9.4-1.3c.3-.4.6-.6,1.1-.8s1-.3,1.6-.3c.9,0,1.6.2,2.1.6s.8.9,1,1.5Z"/>
    <path class="st0" d="M66.7-114.4c-.3,0-.5,0-.7-.3-.2-.2-.3-.4-.3-.7s0-.5.3-.7c.2-.2.4-.3.7-.3s.5,0,.7.3c.2.2.3.4.3.7s0,.5-.3.7c-.2.2-.4.3-.7.3ZM65.9-104.9v-8.2h1.6v8.2h-1.6Z"/>
    <path class="st0" d="M73.1-101.7c-.6,0-1.2,0-1.7-.3-.5-.2-.8-.4-1.1-.7-.3-.3-.5-.6-.7-.9l1.4-.6c0,.2.2.3.4.5.2.2.4.3.7.5.3.1.6.2,1.1.2s1.1-.1,1.5-.4c.4-.3.6-.8.6-1.4v-1.6h-.1c0,.2-.2.4-.4.6-.2.2-.4.4-.7.6s-.7.2-1.2.2-1.2-.2-1.7-.5c-.5-.3-.9-.8-1.2-1.3-.3-.6-.5-1.3-.5-2.2s.1-1.6.4-2.2c.3-.6.7-1.1,1.2-1.4.5-.3,1.1-.5,1.8-.5s.9,0,1.2.3c.3.2.6.4.7.6s.3.4.4.6h.1v-1.3h1.6v8.4c0,.7-.2,1.3-.5,1.7-.3.5-.8.8-1.3,1-.6.2-1.2.3-1.9.3ZM73-106.4c.5,0,.8-.1,1.2-.3.3-.2.6-.5.7-.9.2-.4.2-.9.2-1.5s0-1-.2-1.5c-.2-.4-.4-.7-.7-1-.3-.2-.7-.4-1.2-.4s-.9.1-1.2.4c-.3.2-.6.6-.7,1-.2.4-.2.9-.2,1.4s0,1,.2,1.4.4.7.7.9c.3.2.7.3,1.2.3Z"/>
    <path class="st0" d="M80.5-109.8v4.9h-1.6v-8.2h1.5v1.3h.1c.2-.4.5-.8.9-1s.9-.4,1.5-.4,1,.1,1.5.3c.4.2.7.6,1,1,.2.5.3,1,.3,1.7v5.2h-1.6v-5c0-.6-.2-1.1-.5-1.4s-.7-.5-1.3-.5-.7,0-1,.2-.5.4-.7.7c-.2.3-.2.7-.2,1.1Z"/>
    <path class="st0" d="M91.8-101.9v-11.2h1.6v1.3h.1c0-.2.2-.4.4-.6s.4-.4.7-.6c.3-.2.7-.3,1.2-.3s1.2.2,1.8.5c.5.3.9.8,1.2,1.4.3.6.4,1.4.4,2.3s-.1,1.6-.4,2.3-.7,1.1-1.2,1.5c-.5.3-1.1.5-1.8.5s-.9,0-1.2-.2c-.3-.2-.6-.4-.7-.6-.2-.2-.3-.4-.4-.6h0v4.3h-1.6ZM93.4-109c0,.6,0,1.1.2,1.5.2.4.4.8.7,1s.7.4,1.2.4.9-.1,1.2-.4c.3-.3.6-.6.7-1,.2-.4.2-.9.2-1.5s0-1-.2-1.5c-.2-.4-.4-.8-.7-1-.3-.2-.7-.4-1.2-.4s-.9.1-1.2.4c-.3.2-.6.6-.7,1-.2.4-.2.9-.2,1.5Z"/>
    <path class="st0" d="M103.5-104.7c-.5,0-1,0-1.4-.3-.4-.2-.8-.5-1-.8-.2-.4-.4-.8-.4-1.4s0-.8.3-1.1.4-.5.7-.7c.3-.2.6-.3,1-.4s.8-.2,1.1-.2c.5,0,.9-.1,1.2-.1.3,0,.5,0,.7-.2.1,0,.2-.2.2-.4h0c0-.5-.1-.9-.4-1.1-.3-.3-.7-.4-1.2-.4s-1,.1-1.3.4-.5.5-.6.8l-1.5-.3c.2-.5.4-.9.8-1.2.3-.3.7-.5,1.2-.7.4-.1.9-.2,1.4-.2s.7,0,1,.1.7.2,1,.4c.3.2.6.5.8.9.2.4.3.9.3,1.5v5.4h-1.6v-1.1h0c-.1.2-.3.4-.5.6-.2.2-.5.4-.8.5-.3.1-.7.2-1.2.2ZM103.8-106c.4,0,.8,0,1.1-.3.3-.2.6-.4.7-.7.2-.3.2-.6.2-.9v-1.1c0,0-.2.1-.3.2s-.3,0-.6.1c-.2,0-.4,0-.6,0-.2,0-.4,0-.5,0-.3,0-.6.1-.8.2s-.5.2-.6.4c-.2.2-.2.4-.2.7s.1.7.4.9c.3.2.7.3,1.1.3Z"/>
    <path class="st0" d="M109.6-104.9v-8.2h1.5v1.3h0c.1-.4.4-.8.8-1,.4-.3.8-.4,1.3-.4s.2,0,.4,0c.1,0,.2,0,.3,0v1.5c0,0-.2,0-.3,0-.2,0-.3,0-.5,0-.4,0-.7,0-1,.2-.3.2-.5.4-.7.7-.2.3-.3.6-.3,1v5h-1.6Z"/>
    <path class="st0" d="M117.8-104.7c-.5,0-1,0-1.4-.3-.4-.2-.8-.5-1-.8-.2-.4-.4-.8-.4-1.4s0-.8.3-1.1.4-.5.7-.7c.3-.2.6-.3,1-.4s.8-.2,1.1-.2c.5,0,.9-.1,1.2-.1.3,0,.5,0,.7-.2.1,0,.2-.2.2-.4h0c0-.5-.1-.9-.4-1.1-.3-.3-.7-.4-1.2-.4s-1,.1-1.3.4-.5.5-.6.8l-1.5-.3c.2-.5.4-.9.8-1.2.3-.3.7-.5,1.2-.7.4-.1.9-.2,1.4-.2s.7,0,1,.1.7.2,1,.4c.3.2.6.5.8.9.2.4.3.9.3,1.5v5.4h-1.6v-1.1h0c-.1.2-.3.4-.5.6-.2.2-.5.4-.8.5-.3.1-.7.2-1.2.2ZM118.1-106c.4,0,.8,0,1.1-.3.3-.2.6-.4.7-.7.2-.3.2-.6.2-.9v-1.1c0,0-.2.1-.3.2s-.3,0-.6.1c-.2,0-.4,0-.6,0-.2,0-.4,0-.5,0-.3,0-.6.1-.8.2s-.5.2-.6.4c-.2.2-.2.4-.2.7s.1.7.4.9c.3.2.7.3,1.1.3Z"/>
    <path class="st0" d="M30.1-97.8v10.9h-1.6v-10.9h1.6Z"/>
    <path class="st0" d="M32.4-86.9v-8.2h1.5v1.3h.1c.2-.5.4-.8.8-1.1.4-.3.9-.4,1.4-.4s1,.1,1.4.4.6.6.8,1.1h0c.2-.4.5-.8.9-1,.4-.3.9-.4,1.5-.4s1.3.2,1.8.7.7,1.2.7,2.1v5.5h-1.6v-5.3c0-.6-.2-1-.5-1.2-.3-.2-.7-.4-1.1-.4s-.9.2-1.2.5c-.3.3-.4.7-.4,1.2v5.2h-1.6v-5.4c0-.4-.1-.8-.4-1.1-.3-.3-.6-.4-1.1-.4s-.6,0-.8.2c-.3.2-.5.4-.6.7-.2.3-.2.6-.2,1v5h-1.6Z"/>
    <path class="st0" d="M45.7-83.9v-11.2h1.6v1.3h.1c0-.2.2-.4.4-.6.2-.2.4-.4.7-.6.3-.2.7-.3,1.2-.3s1.2.2,1.8.5.9.8,1.2,1.4c.3.6.4,1.4.4,2.3s-.1,1.6-.4,2.3c-.3.6-.7,1.1-1.2,1.5-.5.3-1.1.5-1.8.5s-.9,0-1.2-.2-.6-.4-.7-.6c-.2-.2-.3-.4-.4-.6h0v4.3h-1.6ZM47.2-91c0,.6,0,1.1.2,1.5.2.4.4.8.7,1,.3.2.7.4,1.2.4s.9-.1,1.2-.4c.3-.3.6-.6.7-1,.2-.4.2-.9.2-1.5s0-1-.2-1.5c-.2-.4-.4-.8-.7-1-.3-.2-.7-.4-1.2-.4s-.9.1-1.2.4c-.3.2-.6.6-.7,1-.2.4-.2.9-.2,1.5Z"/>
    <path class="st0" d="M57.3-86.7c-.5,0-1,0-1.4-.3-.4-.2-.8-.5-1-.8-.2-.4-.4-.8-.4-1.4s0-.8.3-1.1c.2-.3.4-.5.7-.7s.6-.3,1-.4.8-.2,1.1-.2c.5,0,.9-.1,1.2-.1s.5,0,.7-.2.2-.2.2-.4h0c0-.5-.1-.9-.4-1.1s-.6-.4-1.2-.4-1,.1-1.3.4c-.3.2-.5.5-.6.8l-1.5-.3c.2-.5.4-.9.8-1.2.3-.3.7-.5,1.2-.7s.9-.2,1.4-.2.7,0,1,.1c.4,0,.7.2,1,.4s.6.5.8.9c.2.4.3.9.3,1.5v5.4h-1.6v-1.1h0c-.1.2-.3.4-.5.6-.2.2-.5.4-.8.5-.3.1-.7.2-1.2.2ZM57.6-88c.4,0,.8,0,1.1-.3s.6-.4.7-.7c.2-.3.2-.6.2-.9v-1.1c0,0-.2.1-.3.2-.2,0-.3,0-.6.1-.2,0-.4,0-.6,0s-.4,0-.5,0c-.3,0-.6.1-.8.2-.3,0-.5.2-.6.4-.2.2-.2.4-.2.7s.1.7.4.9.7.3,1.1.3Z"/>
    <path class="st0" d="M66.9-86.8c-.8,0-1.5-.2-2-.5-.6-.4-1-.9-1.3-1.5s-.5-1.4-.5-2.2.2-1.6.5-2.2c.3-.6.8-1.1,1.3-1.5.6-.4,1.2-.5,2-.5s1.2.1,1.7.3c.5.2.9.5,1.2,1s.5.9.5,1.4h-1.5c0-.4-.3-.7-.6-1-.3-.3-.7-.4-1.2-.4s-.8.1-1.2.3c-.3.2-.6.6-.8,1s-.3.9-.3,1.5,0,1.1.3,1.5c.2.4.4.8.8,1,.3.2.7.4,1.2.4s.6,0,.8-.2.5-.3.6-.5c.2-.2.3-.5.4-.8h1.5c0,.5-.2,1-.5,1.4-.3.4-.7.7-1.2,1-.5.2-1,.4-1.7.4Z"/>
    <path class="st0" d="M75.8-95.1v1.3h-4.5v-1.3h4.5ZM72.5-97.1h1.6v7.7c0,.3,0,.5.1.7,0,.2.2.3.4.3.1,0,.3,0,.5,0s.2,0,.3,0c0,0,.2,0,.2,0l.3,1.3c0,0-.2,0-.4.1-.2,0-.4,0-.6,0-.4,0-.8,0-1.2-.2s-.7-.4-.9-.7-.3-.7-.3-1.2v-8.1Z"/>
    <path class="st0" d="M81-86.8c-.8,0-1.4-.2-2-.5-.6-.4-1-.8-1.3-1.5-.3-.6-.5-1.4-.5-2.2s.2-1.6.5-2.2c.3-.6.8-1.1,1.3-1.5.6-.4,1.2-.5,2-.5s1.4.2,2,.5c.6.4,1,.8,1.3,1.5.3.6.5,1.4.5,2.2s-.2,1.6-.5,2.2c-.3.6-.8,1.1-1.3,1.5-.6.4-1.2.5-2,.5ZM81-88.1c.5,0,.9-.1,1.2-.4s.6-.6.7-1c.2-.4.2-.9.2-1.4s0-1-.2-1.4-.4-.8-.7-1.1-.7-.4-1.2-.4-.9.1-1.2.4c-.3.3-.6.6-.7,1.1s-.2.9-.2,1.4,0,1,.2,1.4c.2.4.4.8.7,1,.3.3.7.4,1.2.4Z"/>
    <path class="st0" d="M96.6-95c0-.5-.3-.9-.7-1.2-.4-.3-.9-.4-1.6-.4s-.8,0-1.2.2-.6.3-.8.6-.3.5-.3.8,0,.5.2.7c.1.2.3.3.5.5.2.1.4.2.6.3.2,0,.5.2.7.2l1.1.3c.3,0,.7.2,1.1.3.4.1.7.3,1,.6.3.2.6.5.8.9s.3.8.3,1.3-.2,1.2-.5,1.6c-.3.5-.8.9-1.4,1.1-.6.3-1.3.4-2.2.4s-1.5-.1-2.1-.4c-.6-.3-1.1-.6-1.4-1.1s-.5-1-.6-1.7h1.7c0,.4.2.7.4,1,.2.3.5.5.9.6.4.1.7.2,1.2.2s.9,0,1.2-.2.7-.4.9-.6c.2-.3.3-.6.3-.9s0-.6-.3-.8c-.2-.2-.4-.4-.7-.5s-.7-.3-1.1-.4l-1.3-.4c-.9-.2-1.6-.6-2.1-1s-.8-1.1-.8-1.8.2-1.2.5-1.6c.3-.5.8-.8,1.4-1.1.6-.3,1.2-.4,2-.4s1.4.1,2,.4c.6.3,1,.6,1.3,1.1.3.5.5,1,.5,1.6h-1.6Z"/>
    <path class="st0" d="M103.7-86.8c-.8,0-1.4-.2-2-.5-.6-.4-1-.8-1.3-1.5-.3-.6-.5-1.4-.5-2.2s.2-1.6.5-2.2c.3-.6.8-1.1,1.3-1.5.6-.4,1.2-.5,2-.5s1.4.2,2,.5c.6.4,1,.8,1.3,1.5.3.6.5,1.4.5,2.2s-.2,1.6-.5,2.2c-.3.6-.8,1.1-1.3,1.5-.6.4-1.2.5-2,.5ZM103.7-88.1c.5,0,.9-.1,1.2-.4s.6-.6.7-1c.2-.4.2-.9.2-1.4s0-1-.2-1.4-.4-.8-.7-1.1-.7-.4-1.2-.4-.9.1-1.2.4c-.3.3-.6.6-.7,1.1s-.2.9-.2,1.4,0,1,.2,1.4c.2.4.4.8.7,1,.3.3.7.4,1.2.4Z"/>
    <path class="st0" d="M112.7-86.8c-.8,0-1.5-.2-2-.5s-1-.9-1.3-1.5c-.3-.6-.5-1.4-.5-2.2s.2-1.6.5-2.2c.3-.6.8-1.1,1.3-1.5.6-.4,1.2-.5,2-.5s1.2.1,1.7.3c.5.2.9.5,1.2,1,.3.4.5.9.5,1.4h-1.6c0-.4-.3-.7-.6-1-.3-.3-.7-.4-1.2-.4s-.8.1-1.2.3c-.3.2-.6.6-.8,1-.2.4-.3.9-.3,1.5s0,1.1.3,1.5c.2.4.4.8.8,1,.3.2.7.4,1.2.4s.6,0,.8-.2c.2-.1.5-.3.6-.5.2-.2.3-.5.4-.8h1.6c0,.5-.2,1-.5,1.4-.3.4-.7.7-1.2,1-.5.2-1,.4-1.7.4Z"/>
    <path class="st0" d="M118.6-96.4c-.3,0-.5,0-.7-.3-.2-.2-.3-.4-.3-.7s0-.5.3-.7.4-.3.7-.3.5,0,.7.3.3.4.3.7,0,.5-.3.7c-.2.2-.4.3-.7.3ZM117.8-86.9v-8.2h1.6v8.2h-1.6Z"/>
    <path class="st0" d="M123.9-86.7c-.5,0-1,0-1.4-.3-.4-.2-.8-.5-1-.8-.2-.4-.4-.8-.4-1.4s0-.8.3-1.1c.2-.3.4-.5.7-.7.3-.2.6-.3,1-.4s.8-.2,1.1-.2c.5,0,.9-.1,1.2-.1.3,0,.5,0,.7-.2s.2-.2.2-.4h0c0-.5-.1-.9-.4-1.1-.3-.3-.6-.4-1.2-.4s-1,.1-1.3.4c-.3.2-.5.5-.6.8l-1.5-.3c.2-.5.4-.9.8-1.2.3-.3.7-.5,1.2-.7s.9-.2,1.4-.2.7,0,1,.1c.4,0,.7.2,1,.4.3.2.6.5.8.9.2.4.3.9.3,1.5v5.4h-1.6v-1.1h0c-.1.2-.3.4-.5.6-.2.2-.5.4-.8.5-.3.1-.7.2-1.2.2ZM124.2-88c.4,0,.8,0,1.1-.3s.6-.4.7-.7c.2-.3.2-.6.2-.9v-1.1c0,0-.2.1-.3.2-.2,0-.3,0-.6.1-.2,0-.4,0-.6,0s-.4,0-.5,0c-.3,0-.6.1-.8.2-.3,0-.5.2-.6.4-.2.2-.2.4-.2.7s.1.7.4.9.7.3,1.1.3Z"/>
    <path class="st0" d="M131.6-97.8v10.9h-1.6v-10.9h1.6Z"/>
  </g>
  <g id="Camada_22" data-name="Camada_2">
    <circle cx="80" cy="80" r="80"/>
  </g>
  <g>
    <path class="st0" d="M50,84.1v-10.9h4c.8,0,1.4.1,1.9.4s.9.6,1.1,1c.3.4.4.9.4,1.5s0,.8-.3,1.1c-.2.3-.4.6-.7.7-.3.2-.6.3-.9.4h0c.4.1.7.2,1.1.5.3.2.6.5.9.9s.3.9.3,1.4-.1,1.1-.4,1.5c-.3.4-.7.8-1.2,1-.5.3-1.2.4-2.1.4h-4.2ZM51.6,77.9h2.2c.4,0,.7,0,1-.2.3-.1.5-.3.7-.6.2-.3.3-.6.3-.9s-.2-.8-.5-1.1c-.3-.3-.8-.5-1.5-.5h-2.2v3.3ZM51.6,82.7h2.4c.8,0,1.4-.2,1.7-.5.3-.3.5-.7.5-1.1s0-.7-.3-.9c-.2-.3-.4-.5-.7-.7-.3-.2-.7-.3-1.1-.3h-2.4v3.5Z"/>
    <path class="st0" d="M59.7,84.1v-8.2h1.5v1.3h0c.1-.4.4-.8.8-1s.8-.4,1.3-.4.2,0,.4,0c.1,0,.2,0,.3,0v1.5c0,0-.2,0-.3,0s-.3,0-.5,0c-.4,0-.7,0-1,.2-.3.2-.5.4-.7.7-.2.3-.3.6-.3,1v5h-1.6Z"/>
    <path class="st0" d="M67.8,84.3c-.5,0-1,0-1.4-.3-.4-.2-.8-.5-1-.8s-.4-.8-.4-1.4,0-.8.3-1.1c.2-.3.4-.5.7-.7s.6-.3,1-.4.8-.2,1.1-.2c.5,0,.9-.1,1.2-.1s.5,0,.7-.2c.1,0,.2-.2.2-.4h0c0-.5-.1-.9-.4-1.1s-.6-.4-1.2-.4-1,.1-1.3.4c-.3.2-.5.5-.6.8l-1.5-.3c.2-.5.4-.9.8-1.2.3-.3.7-.5,1.2-.7.4-.1.9-.2,1.4-.2s.7,0,1,.1c.4,0,.7.2,1,.4.3.2.6.5.8.9.2.4.3.9.3,1.5v5.4h-1.6v-1.1h0c-.1.2-.3.4-.5.6-.2.2-.5.4-.8.5-.3.1-.7.2-1.2.2ZM68.2,83c.4,0,.8,0,1.1-.3.3-.2.6-.4.7-.7.2-.3.2-.6.2-.9v-1.1c0,0-.2.1-.3.2-.2,0-.3,0-.6.1-.2,0-.4,0-.6,0-.2,0-.4,0-.5,0-.3,0-.6.1-.8.2-.3,0-.5.2-.6.4-.2.2-.2.4-.2.7s.1.7.4.9c.3.2.7.3,1.1.3Z"/>
    <path class="st0" d="M75.6,79.2v4.9h-1.6v-8.2h1.5v1.3h.1c.2-.4.5-.8.9-1,.4-.3.9-.4,1.5-.4s1,.1,1.5.3.7.6,1,1c.2.5.3,1,.3,1.7v5.2h-1.6v-5c0-.6-.2-1.1-.5-1.4-.3-.3-.7-.5-1.3-.5s-.7,0-1,.2c-.3.2-.5.4-.7.7-.2.3-.2.7-.2,1.1Z"/>
    <path class="st0" d="M86,84.2c-.7,0-1.2-.2-1.8-.5-.5-.3-.9-.8-1.2-1.5-.3-.6-.4-1.4-.4-2.3s.1-1.6.4-2.3c.3-.6.7-1.1,1.2-1.4s1.1-.5,1.8-.5.9,0,1.2.3.6.4.7.6c.2.2.3.4.4.6h0v-4.1h1.6v10.9h-1.6v-1.3h-.1c0,.2-.2.4-.4.6-.2.2-.4.4-.7.6-.3.2-.7.2-1.2.2ZM86.4,82.9c.5,0,.8-.1,1.2-.4.3-.2.6-.6.7-1,.2-.4.2-.9.2-1.5s0-1.1-.2-1.5-.4-.8-.7-1c-.3-.2-.7-.4-1.2-.4s-.9.1-1.2.4c-.3.2-.6.6-.7,1-.2.4-.2.9-.2,1.5s0,1,.2,1.5.4.8.7,1c.3.3.7.4,1.2.4Z"/>
    <path class="st0" d="M93.1,74.6c-.3,0-.5,0-.7-.3s-.3-.4-.3-.7,0-.5.3-.7c.2-.2.4-.3.7-.3s.5,0,.7.3c.2.2.3.4.3.7s0,.5-.3.7-.4.3-.7.3ZM92.3,84.1v-8.2h1.6v8.2h-1.6Z"/>
    <path class="st0" d="M97.7,79.2v4.9h-1.6v-8.2h1.5v1.3h.1c.2-.4.5-.8.9-1,.4-.3.9-.4,1.5-.4s1,.1,1.5.3.7.6,1,1c.2.5.3,1,.3,1.7v5.2h-1.6v-5c0-.6-.2-1.1-.5-1.4-.3-.3-.7-.5-1.3-.5s-.7,0-1,.2c-.3.2-.5.4-.7.7-.2.3-.2.7-.2,1.1Z"/>
    <path class="st0" d="M108.4,87.3c-.6,0-1.2,0-1.7-.3-.5-.2-.8-.4-1.1-.7-.3-.3-.5-.6-.7-.9l1.4-.6c0,.2.2.3.4.5.2.2.4.3.7.5.3.1.6.2,1.1.2s1.1-.1,1.5-.4c.4-.3.6-.8.6-1.4v-1.6h-.1c0,.2-.2.4-.4.6-.2.2-.4.4-.7.6s-.7.2-1.2.2-1.2-.2-1.7-.5c-.5-.3-.9-.8-1.2-1.3-.3-.6-.5-1.3-.5-2.2s.1-1.6.4-2.2c.3-.6.7-1.1,1.2-1.4s1.1-.5,1.8-.5.9,0,1.2.3.6.4.7.6.3.4.4.6h.1v-1.3h1.6v8.4c0,.7-.2,1.3-.5,1.7-.3.5-.8.8-1.3,1s-1.2.3-1.9.3ZM108.4,82.6c.5,0,.8-.1,1.2-.3.3-.2.6-.5.7-.9s.2-.9.2-1.5,0-1-.2-1.5c-.2-.4-.4-.7-.7-1-.3-.2-.7-.4-1.2-.4s-.9.1-1.2.4c-.3.2-.6.6-.7,1-.2.4-.2.9-.2,1.4s0,1,.2,1.4c.2.4.4.7.7.9.3.2.7.3,1.2.3Z"/>
  </g>
  <g id="Camada_23" data-name="Camada_2">
    <circle cx="80" cy="260" r="80"/>
  </g>
  <g>
    <path class="st0" d="M54.9,259.1h-1.7c0-.4-.2-.7-.4-.9s-.4-.5-.6-.7c-.3-.2-.5-.3-.8-.4s-.6-.1-1-.1c-.6,0-1.2.2-1.7.5-.5.3-.9.8-1.2,1.4-.3.6-.4,1.4-.4,2.2s.1,1.6.4,2.2c.3.6.7,1.1,1.2,1.4.5.3,1.1.5,1.7.5s.7,0,1-.1c.3,0,.6-.2.8-.4.3-.2.5-.4.6-.7.2-.3.3-.6.4-.9h1.7c0,.5-.3,1-.5,1.5s-.6.8-1,1.2c-.4.3-.8.6-1.4.8s-1.1.3-1.7.3c-.9,0-1.8-.2-2.5-.7-.7-.4-1.3-1.1-1.7-1.9-.4-.8-.6-1.8-.6-3s.2-2.2.6-3c.4-.8,1-1.5,1.7-1.9s1.6-.7,2.5-.7,1.1,0,1.6.2c.5.2,1,.4,1.4.7.4.3.7.7,1,1.2s.4,1,.5,1.6Z"/>
    <path class="st0" d="M61.9,263.1v-4.8h1.6v8.2h-1.6v-1.4h0c-.2.4-.5.8-.9,1.1-.4.3-.9.4-1.5.4s-1-.1-1.4-.3-.7-.6-.9-1c-.2-.5-.3-1-.3-1.7v-5.2h1.6v5c0,.6.2,1,.5,1.3.3.3.7.5,1.2.5s.6,0,.9-.2c.3-.1.5-.4.7-.7.2-.3.3-.7.3-1.2Z"/>
    <path class="st0" d="M65.7,266.5v-8.2h1.5v1.3h0c.1-.4.4-.8.8-1s.8-.4,1.3-.4.2,0,.4,0c.1,0,.2,0,.3,0v1.5c0,0-.2,0-.3,0s-.3,0-.5,0c-.4,0-.7,0-1,.2-.3.2-.5.4-.7.7-.2.3-.3.6-.3,1v5h-1.6Z"/>
    <path class="st0" d="M73.8,266.7c-.5,0-1,0-1.4-.3-.4-.2-.8-.5-1-.8s-.4-.8-.4-1.4,0-.8.3-1.1c.2-.3.4-.5.7-.7s.6-.3,1-.4.8-.2,1.1-.2c.5,0,.9-.1,1.2-.1s.5,0,.7-.2c.1,0,.2-.2.2-.4h0c0-.5-.1-.9-.4-1.1s-.6-.4-1.2-.4-1,.1-1.3.4c-.3.2-.5.5-.6.8l-1.5-.3c.2-.5.4-.9.8-1.2.3-.3.7-.5,1.2-.7.4-.1.9-.2,1.4-.2s.7,0,1,.1c.4,0,.7.2,1,.4.3.2.6.5.8.9.2.4.3.9.3,1.5v5.4h-1.6v-1.1h0c-.1.2-.3.4-.5.6-.2.2-.5.4-.8.5-.3.1-.7.2-1.2.2ZM74.2,265.4c.4,0,.8,0,1.1-.3.3-.2.6-.4.7-.7.2-.3.2-.6.2-.9v-1.1c0,0-.2.1-.3.2-.2,0-.3,0-.6.1-.2,0-.4,0-.6,0-.2,0-.4,0-.5,0-.3,0-.6.1-.8.2-.3,0-.5.2-.6.4-.2.2-.2.4-.2.7s.1.7.4.9c.3.2.7.3,1.1.3Z"/>
    <path class="st0" d="M83,266.6c-.7,0-1.2-.2-1.8-.5-.5-.3-.9-.8-1.2-1.5-.3-.6-.4-1.4-.4-2.3s.1-1.6.4-2.3c.3-.6.7-1.1,1.2-1.4.5-.3,1.1-.5,1.8-.5s.9,0,1.2.3.6.4.7.6.3.4.4.6h0v-4.1h1.6v10.9h-1.6v-1.3h-.1c0,.2-.2.4-.4.6-.2.2-.4.4-.7.6-.3.2-.7.2-1.2.2ZM83.4,265.3c.5,0,.8-.1,1.2-.4s.6-.6.7-1c.2-.4.2-.9.2-1.5s0-1.1-.2-1.5c-.2-.4-.4-.8-.7-1s-.7-.4-1.2-.4-.9.1-1.2.4c-.3.2-.6.6-.7,1s-.2.9-.2,1.5,0,1,.2,1.5c.2.4.4.8.7,1,.3.3.7.4,1.2.4Z"/>
    <path class="st0" d="M92.8,266.6c-.8,0-1.4-.2-2-.5s-1-.8-1.3-1.5c-.3-.6-.5-1.4-.5-2.2s.2-1.6.5-2.2.8-1.1,1.3-1.5,1.2-.5,2-.5,1.4.2,2,.5,1,.8,1.3,1.5.5,1.4.5,2.2-.2,1.6-.5,2.2c-.3.6-.8,1.1-1.3,1.5s-1.2.5-2,.5ZM92.8,265.3c.5,0,.9-.1,1.2-.4.3-.3.6-.6.7-1s.2-.9.2-1.4,0-1-.2-1.4c-.2-.4-.4-.8-.7-1.1-.3-.3-.7-.4-1.2-.4s-.9.1-1.2.4c-.3.3-.6.6-.7,1.1-.2.4-.2.9-.2,1.4s0,1,.2,1.4.4.8.7,1,.7.4,1.2.4Z"/>
    <path class="st0" d="M98.4,266.5v-8.2h1.5v1.3h0c.1-.4.4-.8.8-1,.4-.3.8-.4,1.3-.4s.2,0,.4,0c.1,0,.2,0,.3,0v1.5c0,0-.2,0-.3,0-.2,0-.3,0-.5,0-.4,0-.7,0-1,.2-.3.2-.5.4-.7.7-.2.3-.3.6-.3,1v5h-1.6Z"/>
    <path class="st0" d="M105,257c-.3,0-.5,0-.7-.3s-.3-.4-.3-.7,0-.5.3-.7c.2-.2.4-.3.7-.3s.5,0,.7.3c.2.2.3.4.3.7s0,.5-.3.7-.4.3-.7.3ZM104.2,266.5v-8.2h1.6v8.2h-1.6Z"/>
    <path class="st0" d="M110.3,266.7c-.5,0-1,0-1.4-.3-.4-.2-.8-.5-1-.8-.2-.4-.4-.8-.4-1.4s0-.8.3-1.1c.2-.3.4-.5.7-.7.3-.2.6-.3,1-.4s.8-.2,1.1-.2c.5,0,.9-.1,1.2-.1.3,0,.5,0,.7-.2.1,0,.2-.2.2-.4h0c0-.5-.1-.9-.4-1.1-.3-.3-.7-.4-1.2-.4s-1,.1-1.3.4-.5.5-.6.8l-1.5-.3c.2-.5.4-.9.8-1.2.3-.3.7-.5,1.2-.7.4-.1.9-.2,1.4-.2s.7,0,1,.1.7.2,1,.4c.3.2.6.5.8.9.2.4.3.9.3,1.5v5.4h-1.6v-1.1h0c-.1.2-.3.4-.5.6-.2.2-.5.4-.8.5-.3.1-.7.2-1.2.2ZM110.6,265.4c.4,0,.8,0,1.1-.3.3-.2.6-.4.7-.7.2-.3.2-.6.2-.9v-1.1c0,0-.2.1-.3.2s-.3,0-.6.1c-.2,0-.4,0-.6,0-.2,0-.4,0-.5,0-.3,0-.6.1-.8.2-.3,0-.5.2-.6.4-.2.2-.2.4-.2.7s.1.7.4.9c.3.2.7.3,1.1.3Z"/>
  </g>
  <g id="Camada_24" data-name="Camada_2">
    <circle cx="80" cy="440" r="80"/>
  </g>
  <g>
    <path class="st0" d="M17.7,444.1v-10.9h6.8v1.4h-5.2v3.3h4.8v1.4h-4.8v3.3h5.3v1.4h-6.9Z"/>
    <path class="st0" d="M30.1,444.2c-.8,0-1.5-.2-2-.5-.6-.4-1-.9-1.3-1.5s-.5-1.4-.5-2.2.2-1.6.5-2.2.8-1.1,1.3-1.5c.6-.4,1.2-.5,2-.5s1.2.1,1.7.3c.5.2.9.5,1.2,1,.3.4.5.9.5,1.4h-1.5c0-.4-.3-.7-.6-1s-.7-.4-1.2-.4-.8.1-1.2.3c-.3.2-.6.6-.8,1-.2.4-.3.9-.3,1.5s0,1.1.3,1.5c.2.4.4.8.8,1s.7.4,1.2.4.6,0,.8-.2c.2-.1.5-.3.6-.5.2-.2.3-.5.4-.8h1.5c0,.5-.2,1-.5,1.4-.3.4-.7.7-1.2,1-.5.2-1,.4-1.7.4Z"/>
    <path class="st0" d="M38.6,444.2c-.8,0-1.4-.2-2-.5-.6-.4-1-.8-1.3-1.5-.3-.6-.5-1.4-.5-2.2s.2-1.6.5-2.2c.3-.6.8-1.1,1.3-1.5.6-.4,1.2-.5,2-.5s1.4.2,2,.5c.6.4,1,.8,1.3,1.5.3.6.5,1.4.5,2.2s-.2,1.6-.5,2.2c-.3.6-.8,1.1-1.3,1.5-.6.4-1.2.5-2,.5ZM38.6,442.9c.5,0,.9-.1,1.2-.4.3-.3.6-.6.7-1s.2-.9.2-1.4,0-1-.2-1.4c-.2-.4-.4-.8-.7-1.1-.3-.3-.7-.4-1.2-.4s-.9.1-1.2.4c-.3.3-.6.6-.7,1.1-.2.4-.2.9-.2,1.4s0,1,.2,1.4.4.8.7,1c.3.3.7.4,1.2.4Z"/>
    <path class="st0" d="M45.8,439.2v4.9h-1.6v-8.2h1.5v1.3h.1c.2-.4.5-.8.9-1,.4-.3.9-.4,1.5-.4s1,.1,1.5.3.7.6,1,1c.2.5.3,1,.3,1.7v5.2h-1.6v-5c0-.6-.2-1.1-.5-1.4-.3-.3-.7-.5-1.3-.5s-.7,0-1,.2c-.3.2-.5.4-.7.7-.2.3-.2.7-.2,1.1Z"/>
    <path class="st0" d="M56.6,444.2c-.8,0-1.4-.2-2-.5-.6-.4-1-.8-1.3-1.5-.3-.6-.5-1.4-.5-2.2s.2-1.6.5-2.2c.3-.6.8-1.1,1.3-1.5.6-.4,1.2-.5,2-.5s1.4.2,2,.5c.6.4,1,.8,1.3,1.5.3.6.5,1.4.5,2.2s-.2,1.6-.5,2.2c-.3.6-.8,1.1-1.3,1.5-.6.4-1.2.5-2,.5ZM56.6,442.9c.5,0,.9-.1,1.2-.4.3-.3.6-.6.7-1s.2-.9.2-1.4,0-1-.2-1.4c-.2-.4-.4-.8-.7-1.1-.3-.3-.7-.4-1.2-.4s-.9.1-1.2.4c-.3.3-.6.6-.7,1.1-.2.4-.2.9-.2,1.4s0,1,.2,1.4.4.8.7,1c.3.3.7.4,1.2.4Z"/>
    <path class="st0" d="M62.2,444.1v-8.2h1.5v1.3h.1c.2-.5.4-.8.8-1.1.4-.3.9-.4,1.4-.4s1,.1,1.4.4.6.6.8,1.1h0c.2-.4.5-.8.9-1s.9-.4,1.5-.4,1.3.2,1.8.7c.5.5.7,1.2.7,2.1v5.5h-1.6v-5.3c0-.6-.2-1-.5-1.2-.3-.2-.7-.4-1.1-.4s-.9.2-1.2.5c-.3.3-.4.7-.4,1.2v5.2h-1.6v-5.4c0-.4-.1-.8-.4-1.1-.3-.3-.6-.4-1.1-.4s-.6,0-.8.2-.5.4-.6.7c-.2.3-.2.6-.2,1v5h-1.6Z"/>
    <path class="st0" d="M76.2,434.6c-.3,0-.5,0-.7-.3s-.3-.4-.3-.7,0-.5.3-.7c.2-.2.4-.3.7-.3s.5,0,.7.3c.2.2.3.4.3.7s0,.5-.3.7-.4.3-.7.3ZM75.4,444.1v-8.2h1.6v8.2h-1.6Z"/>
    <path class="st0" d="M81.5,444.3c-.5,0-1,0-1.4-.3-.4-.2-.8-.5-1-.8s-.4-.8-.4-1.4,0-.8.3-1.1c.2-.3.4-.5.7-.7s.6-.3,1-.4.8-.2,1.1-.2c.5,0,.9-.1,1.2-.1s.5,0,.7-.2c.1,0,.2-.2.2-.4h0c0-.5-.1-.9-.4-1.1s-.6-.4-1.2-.4-1,.1-1.3.4c-.3.2-.5.5-.6.8l-1.5-.3c.2-.5.4-.9.8-1.2.3-.3.7-.5,1.2-.7.4-.1.9-.2,1.4-.2s.7,0,1,.1c.4,0,.7.2,1,.4.3.2.6.5.8.9.2.4.3.9.3,1.5v5.4h-1.6v-1.1h0c-.1.2-.3.4-.5.6-.2.2-.5.4-.8.5-.3.1-.7.2-1.2.2ZM81.9,443c.4,0,.8,0,1.1-.3.3-.2.6-.4.7-.7.2-.3.2-.6.2-.9v-1.1c0,0-.2.1-.3.2-.2,0-.3,0-.6.1-.2,0-.4,0-.6,0-.2,0-.4,0-.5,0-.3,0-.6.1-.8.2-.3,0-.5.2-.6.4-.2.2-.2.4-.2.7s.1.7.4.9c.3.2.7.3,1.1.3Z"/>
    <path class="st0" d="M95.1,444.2c-.8,0-1.5-.2-2-.5-.6-.4-1-.9-1.3-1.5s-.5-1.4-.5-2.2.2-1.6.5-2.2.8-1.1,1.3-1.5c.6-.4,1.2-.5,2-.5s1.2.1,1.7.3c.5.2.9.5,1.2,1,.3.4.5.9.5,1.4h-1.5c0-.4-.3-.7-.6-1s-.7-.4-1.2-.4-.8.1-1.2.3c-.3.2-.6.6-.8,1-.2.4-.3.9-.3,1.5s0,1.1.3,1.5c.2.4.4.8.8,1s.7.4,1.2.4.6,0,.8-.2c.2-.1.5-.3.6-.5.2-.2.3-.5.4-.8h1.5c0,.5-.2,1-.5,1.4-.3.4-.7.7-1.2,1-.5.2-1,.4-1.7.4Z"/>
    <path class="st0" d="M100.2,444.1v-8.2h1.5v1.3h0c.1-.4.4-.8.8-1s.8-.4,1.3-.4.2,0,.4,0c.1,0,.2,0,.3,0v1.5c0,0-.2,0-.3,0s-.3,0-.5,0c-.4,0-.7,0-1,.2-.3.2-.5.4-.7.7-.2.3-.3.6-.3,1v5h-1.6Z"/>
    <path class="st0" d="M106.8,434.6c-.3,0-.5,0-.7-.3s-.3-.4-.3-.7,0-.5.3-.7c.2-.2.4-.3.7-.3s.5,0,.7.3c.2.2.3.4.3.7s0,.5-.3.7-.4.3-.7.3ZM105.9,444.1v-8.2h1.6v8.2h-1.6Z"/>
    <path class="st0" d="M112.1,444.3c-.5,0-1,0-1.4-.3-.4-.2-.8-.5-1-.8s-.4-.8-.4-1.4,0-.8.3-1.1c.2-.3.4-.5.7-.7s.6-.3,1-.4.8-.2,1.1-.2c.5,0,.9-.1,1.2-.1s.5,0,.7-.2c.1,0,.2-.2.2-.4h0c0-.5-.1-.9-.4-1.1s-.6-.4-1.2-.4-1,.1-1.3.4c-.3.2-.5.5-.6.8l-1.5-.3c.2-.5.4-.9.8-1.2.3-.3.7-.5,1.2-.7.4-.1.9-.2,1.4-.2s.7,0,1,.1c.4,0,.7.2,1,.4.3.2.6.5.8.9.2.4.3.9.3,1.5v5.4h-1.6v-1.1h0c-.1.2-.3.4-.5.6-.2.2-.5.4-.8.5-.3.1-.7.2-1.2.2ZM112.4,443c.4,0,.8,0,1.1-.3.3-.2.6-.4.7-.7.2-.3.2-.6.2-.9v-1.1c0,0-.2.1-.3.2-.2,0-.3,0-.6.1-.2,0-.4,0-.6,0-.2,0-.4,0-.5,0-.3,0-.6.1-.8.2-.3,0-.5.2-.6.4-.2.2-.2.4-.2.7s.1.7.4.9c.3.2.7.3,1.1.3Z"/>
    <path class="st0" d="M122,435.9v1.3h-4.5v-1.3h4.5ZM118.8,433.9h1.6v7.7c0,.3,0,.5.1.7,0,.2.2.3.4.3s.3,0,.5,0,.2,0,.3,0c0,0,.2,0,.2,0l.3,1.3c0,0-.2,0-.4.1-.2,0-.4,0-.6,0-.4,0-.8,0-1.2-.2s-.7-.4-.9-.7c-.2-.3-.3-.7-.3-1.2v-8.1Z"/>
    <path class="st0" d="M124.6,434.6c-.3,0-.5,0-.7-.3s-.3-.4-.3-.7,0-.5.3-.7c.2-.2.4-.3.7-.3s.5,0,.7.3c.2.2.3.4.3.7s0,.5-.3.7-.4.3-.7.3ZM123.8,444.1v-8.2h1.6v8.2h-1.6Z"/>
    <path class="st0" d="M134.5,435.9l-3,8.2h-1.7l-3-8.2h1.7l2.1,6.3h0l2.1-6.3h1.7Z"/>
    <path class="st0" d="M138.4,444.3c-.5,0-1,0-1.4-.3-.4-.2-.8-.5-1-.8s-.4-.8-.4-1.4,0-.8.3-1.1c.2-.3.4-.5.7-.7s.6-.3,1-.4.8-.2,1.1-.2c.5,0,.9-.1,1.2-.1s.5,0,.7-.2c.1,0,.2-.2.2-.4h0c0-.5-.1-.9-.4-1.1s-.6-.4-1.2-.4-1,.1-1.3.4c-.3.2-.5.5-.6.8l-1.5-.3c.2-.5.4-.9.8-1.2.3-.3.7-.5,1.2-.7.4-.1.9-.2,1.4-.2s.7,0,1,.1c.4,0,.7.2,1,.4.3.2.6.5.8.9.2.4.3.9.3,1.5v5.4h-1.6v-1.1h0c-.1.2-.3.4-.5.6-.2.2-.5.4-.8.5-.3.1-.7.2-1.2.2ZM138.8,443c.4,0,.8,0,1.1-.3.3-.2.6-.4.7-.7.2-.3.2-.6.2-.9v-1.1c0,0-.2.1-.3.2-.2,0-.3,0-.6.1-.2,0-.4,0-.6,0-.2,0-.4,0-.5,0-.3,0-.6.1-.8.2-.3,0-.5.2-.6.4-.2.2-.2.4-.2.7s.1.7.4.9c.3.2.7.3,1.1.3Z"/>
  </g>
</svg>