<?xml version="1.0" encoding="UTF-8"?>
<svg xmlns="http://www.w3.org/2000/svg" viewBox="0 0 160 160">
  <defs>
    <style>
      .cls-1 {
        fill: #fff;
      }
    </style>
  </defs>
  <g id="Camada_2">
    <circle cx="80" cy="79.88" r="80"/>
  </g>
  <g id="Camada_1">
    <g>
      <path class="cls-1" d="M47.03,75.08h-3.37v-10.91h3.52c1.06,0,1.96.22,2.72.65.75.44,1.33,1.06,1.73,1.87s.6,1.78.6,2.91-.2,2.11-.61,2.93c-.41.82-1,1.45-1.77,1.89-.77.44-1.72.66-2.82.66ZM44.98,73.91h1.96c.9,0,1.65-.17,2.24-.52.59-.35,1.04-.84,1.33-1.49.29-.64.44-1.41.44-2.3s-.14-1.64-.43-2.28c-.29-.64-.72-1.13-1.29-1.47-.57-.34-1.28-.51-2.14-.51h-2.11v8.57Z"/>
      <path class="cls-1" d="M57.7,75.25c-.79,0-1.47-.17-2.04-.52-.57-.35-1.01-.84-1.32-1.47-.31-.63-.46-1.37-.46-2.2s.15-1.58.46-2.22c.31-.64.74-1.14,1.29-1.5s1.2-.54,1.94-.54c.43,0,.85.07,1.26.21.42.14.79.37,1.13.69.34.32.61.74.82,1.26s.3,1.17.3,1.93v.53h-6.31v-1.09h5.03c0-.46-.09-.87-.27-1.24-.18-.36-.44-.65-.78-.86-.33-.21-.73-.31-1.18-.31-.5,0-.93.12-1.3.37-.36.25-.64.57-.84.96-.2.39-.29.82-.29,1.27v.72c0,.62.11,1.14.32,1.57s.51.75.9.97c.38.22.83.33,1.34.33.33,0,.63-.05.9-.14.27-.09.5-.24.7-.43.2-.19.35-.43.45-.71l1.21.34c-.13.41-.34.77-.64,1.08s-.67.55-1.12.72c-.44.17-.94.26-1.5.26Z"/>
      <path class="cls-1" d="M68.8,68.73l-1.13.32c-.07-.19-.18-.37-.31-.55-.14-.18-.32-.33-.56-.45s-.54-.18-.9-.18c-.5,0-.92.11-1.25.34s-.5.52-.5.87c0,.31.11.56.34.74.23.18.58.33,1.07.45l1.21.3c.73.18,1.28.45,1.64.81.36.36.54.83.54,1.4,0,.47-.13.89-.4,1.26-.27.37-.64.66-1.12.87s-1.04.32-1.67.32c-.83,0-1.53-.18-2.07-.54s-.89-.89-1.04-1.59l1.19-.3c.11.44.33.77.65.99.32.22.73.33,1.25.33.59,0,1.05-.12,1.4-.38.35-.25.52-.55.52-.9,0-.28-.1-.52-.3-.72-.2-.19-.5-.34-.92-.43l-1.36-.32c-.75-.18-1.3-.45-1.65-.83-.35-.38-.53-.84-.53-1.41,0-.46.13-.87.39-1.22.26-.36.62-.63,1.07-.84.45-.2.97-.3,1.54-.3.81,0,1.45.18,1.91.53.46.36.79.82.99,1.41Z"/>
      <path class="cls-1" d="M71.49,65.53c-.25,0-.46-.08-.63-.25s-.26-.37-.26-.6.09-.43.26-.6.39-.25.63-.25.46.08.63.25.26.37.26.6-.09.44-.26.6-.39.25-.63.25ZM70.85,75.08v-8.18h1.26v8.18h-1.26Z"/>
      <path class="cls-1" d="M77.71,78.32c-.61,0-1.13-.08-1.57-.23s-.8-.36-1.09-.61c-.29-.25-.52-.52-.69-.8l1-.7c.11.15.26.32.43.51.17.19.41.36.72.51.3.14.7.22,1.2.22.66,0,1.21-.16,1.63-.48.43-.32.64-.82.64-1.5v-1.66h-.11c-.09.15-.22.33-.39.55-.17.22-.41.41-.72.58-.31.17-.74.25-1.27.25-.66,0-1.25-.16-1.78-.47-.52-.31-.94-.77-1.24-1.36-.3-.6-.46-1.32-.46-2.17s.15-1.57.44-2.19c.29-.62.71-1.11,1.23-1.45s1.13-.51,1.82-.51c.53,0,.96.09,1.27.26s.56.38.72.6c.17.22.3.4.39.55h.13v-1.3h1.21v8.42c0,.7-.16,1.28-.48,1.72-.32.44-.74.77-1.28.97-.53.21-1.13.31-1.78.31ZM77.67,73.82c.5,0,.93-.12,1.28-.35.35-.23.61-.56.79-1,.18-.43.27-.95.27-1.56s-.09-1.11-.27-1.56c-.18-.45-.44-.8-.79-1.06-.35-.26-.78-.38-1.29-.38s-.98.13-1.33.4c-.35.27-.62.63-.79,1.09-.18.46-.26.96-.26,1.51s.09,1.07.27,1.5c.18.44.45.78.8,1.02.35.25.79.37,1.32.37Z"/>
      <path class="cls-1" d="M84.8,70.16v4.92h-1.26v-8.18h1.21v1.28h.11c.19-.42.48-.75.87-1,.39-.25.9-.38,1.51-.38.55,0,1.04.11,1.45.34.42.23.74.57.97,1.02s.35,1.03.35,1.73v5.2h-1.26v-5.11c0-.64-.17-1.14-.5-1.5-.33-.36-.79-.54-1.38-.54-.4,0-.76.09-1.07.26s-.56.43-.74.76c-.18.33-.27.74-.27,1.21Z"/>
      <path class="cls-1" d="M99.63,75.25c-.68,0-1.28-.17-1.81-.52-.52-.35-.93-.84-1.22-1.47s-.44-1.38-.44-2.25.15-1.6.44-2.24c.29-.63.71-1.12,1.23-1.46.53-.34,1.13-.52,1.82-.52.53,0,.96.09,1.27.26s.55.38.71.6c.17.22.29.4.39.55h.11v-4.03h1.26v10.91h-1.21v-1.26h-.15c-.09.15-.22.34-.39.56-.17.23-.41.43-.73.6-.32.18-.74.26-1.26.26ZM99.8,74.12c.5,0,.93-.13,1.28-.4.35-.26.61-.63.79-1.1.18-.47.27-1.01.27-1.63s-.09-1.15-.27-1.61c-.18-.46-.44-.82-.79-1.08-.35-.26-.78-.39-1.29-.39s-.98.14-1.33.41-.62.64-.79,1.1c-.18.46-.26.98-.26,1.56s.09,1.11.27,1.58c.18.47.45.85.8,1.13.35.28.79.42,1.32.42Z"/>
      <path class="cls-1" d="M109.29,75.25c-.79,0-1.47-.17-2.04-.52-.57-.35-1.01-.84-1.32-1.47-.31-.63-.46-1.37-.46-2.2s.15-1.58.46-2.22c.31-.64.74-1.14,1.29-1.5.55-.36,1.2-.54,1.94-.54.43,0,.85.07,1.26.21.42.14.79.37,1.13.69.34.32.61.74.81,1.26.2.52.3,1.17.3,1.93v.53h-6.31v-1.09h5.03c0-.46-.09-.87-.27-1.24s-.44-.65-.78-.86c-.34-.21-.73-.31-1.19-.31-.5,0-.93.12-1.3.37s-.64.57-.84.96c-.2.39-.29.82-.29,1.27v.72c0,.62.11,1.14.32,1.57s.51.75.9.97.83.33,1.34.33c.33,0,.63-.05.9-.14.27-.09.5-.24.7-.43.2-.19.35-.43.45-.71l1.21.34c-.13.41-.34.77-.64,1.08s-.67.55-1.12.72c-.44.17-.94.26-1.5.26Z"/>
      <path class="cls-1" d="M48.4,83.53c-.24,0-.46-.08-.63-.25s-.26-.37-.26-.6.09-.43.26-.6.39-.25.63-.25.46.08.63.25.26.37.26.6-.09.44-.26.6-.39.25-.63.25ZM47.76,93.08v-8.18h1.26v8.18h-1.26Z"/>
      <path class="cls-1" d="M52.58,88.16v4.92h-1.26v-8.18h1.21v1.28h.11c.19-.42.48-.75.87-1,.39-.25.89-.38,1.51-.38.55,0,1.04.11,1.45.34.42.23.74.57.97,1.02.23.46.35,1.03.35,1.73v5.2h-1.26v-5.11c0-.64-.17-1.14-.5-1.5-.33-.36-.79-.54-1.37-.54-.4,0-.76.09-1.07.26s-.56.43-.74.76c-.18.33-.27.74-.27,1.21Z"/>
      <path class="cls-1" d="M63.66,84.9v1.06h-4.24v-1.06h4.24ZM60.65,82.94h1.26v7.8c0,.35.05.62.16.8s.24.29.4.35c.17.06.34.09.53.09.14,0,.25,0,.34-.02.09-.02.16-.03.21-.04l.26,1.13c-.08.03-.2.06-.36.1-.15.03-.35.05-.58.05-.36,0-.7-.08-1.04-.23-.34-.15-.62-.38-.84-.7-.22-.31-.33-.71-.33-1.18v-8.14Z"/>
      <path class="cls-1" d="M68.99,93.25c-.79,0-1.47-.17-2.04-.52-.57-.35-1.01-.84-1.32-1.47-.31-.63-.46-1.37-.46-2.2s.15-1.58.46-2.22c.31-.64.74-1.14,1.29-1.5s1.2-.54,1.94-.54c.43,0,.85.07,1.26.21.42.14.79.37,1.13.69.34.32.61.74.82,1.26s.3,1.17.3,1.93v.53h-6.31v-1.09h5.03c0-.46-.09-.87-.27-1.24-.18-.36-.44-.65-.78-.86-.33-.21-.73-.31-1.18-.31-.5,0-.93.12-1.3.37-.36.25-.64.57-.84.96-.2.39-.29.82-.29,1.27v.72c0,.62.11,1.14.32,1.57s.51.75.9.97c.38.22.83.33,1.34.33.33,0,.63-.05.9-.14.27-.09.5-.24.7-.43.2-.19.35-.43.45-.71l1.21.34c-.13.41-.34.77-.64,1.08s-.67.55-1.12.72c-.44.17-.94.26-1.5.26Z"/>
      <path class="cls-1" d="M74.29,93.08v-8.18h1.21v1.24h.08c.15-.41.42-.73.81-.99s.83-.38,1.32-.38c.09,0,.21,0,.35,0,.14,0,.24,0,.31.02v1.28s-.14-.03-.29-.05c-.15-.02-.31-.04-.48-.04-.4,0-.75.08-1.06.25s-.56.39-.74.68c-.18.29-.27.62-.27.99v5.18h-1.26Z"/>
      <path class="cls-1" d="M80.51,83.53c-.25,0-.46-.08-.63-.25s-.26-.37-.26-.6.09-.43.26-.6.39-.25.63-.25.46.08.63.25.26.37.26.6-.09.44-.26.6-.39.25-.63.25ZM79.87,93.08v-8.18h1.26v8.18h-1.26Z"/>
      <path class="cls-1" d="M86.75,93.25c-.74,0-1.39-.18-1.94-.53s-.99-.84-1.3-1.48c-.31-.63-.47-1.37-.47-2.22s.16-1.6.47-2.23c.31-.64.74-1.13,1.3-1.48s1.2-.53,1.94-.53,1.39.18,1.94.53.99.85,1.3,1.48c.31.64.47,1.38.47,2.23s-.16,1.58-.47,2.22c-.31.63-.74,1.12-1.3,1.48s-1.2.53-1.94.53ZM86.75,92.12c.56,0,1.02-.14,1.38-.43.36-.29.63-.67.8-1.13.17-.47.26-.98.26-1.52s-.09-1.06-.26-1.53c-.17-.47-.44-.85-.8-1.15s-.82-.44-1.38-.44-1.02.15-1.39.44-.63.67-.8,1.15-.26.98-.26,1.53.09,1.05.26,1.52.44.85.8,1.13c.36.29.82.43,1.39.43Z"/>
      <path class="cls-1" d="M92.38,93.08v-8.18h1.21v1.24h.08c.15-.41.42-.73.81-.99s.83-.38,1.32-.38c.09,0,.21,0,.35,0,.14,0,.24,0,.31.02v1.28s-.14-.03-.29-.05c-.15-.02-.31-.04-.48-.04-.4,0-.75.08-1.06.25s-.56.39-.74.68c-.18.29-.27.62-.27.99v5.18h-1.26Z"/>
      <path class="cls-1" d="M101.39,93.25c-.79,0-1.47-.17-2.04-.52-.57-.35-1.01-.84-1.32-1.47-.31-.63-.46-1.37-.46-2.2s.15-1.58.46-2.22c.31-.64.74-1.14,1.29-1.5s1.2-.54,1.94-.54c.43,0,.85.07,1.26.21.42.14.79.37,1.13.69.34.32.61.74.82,1.26s.3,1.17.3,1.93v.53h-6.31v-1.09h5.03c0-.46-.09-.87-.27-1.24-.18-.36-.44-.65-.78-.86-.33-.21-.73-.31-1.18-.31-.5,0-.93.12-1.3.37-.36.25-.64.57-.84.96-.2.39-.29.82-.29,1.27v.72c0,.62.11,1.14.32,1.57s.51.75.9.97c.38.22.83.33,1.34.33.33,0,.63-.05.9-.14.27-.09.5-.24.7-.43.2-.19.35-.43.45-.71l1.21.34c-.13.41-.34.77-.64,1.08s-.67.55-1.12.72c-.44.17-.94.26-1.5.26Z"/>
      <path class="cls-1" d="M112.49,86.73l-1.13.32c-.07-.19-.18-.37-.31-.55-.14-.18-.32-.33-.56-.45s-.54-.18-.9-.18c-.5,0-.92.11-1.25.34s-.5.52-.5.87c0,.31.11.56.34.74.23.18.58.33,1.07.45l1.21.3c.73.18,1.28.45,1.64.81.36.36.54.83.54,1.4,0,.47-.13.89-.4,1.26-.27.37-.64.66-1.12.87s-1.04.32-1.67.32c-.83,0-1.53-.18-2.07-.54s-.89-.89-1.04-1.59l1.19-.3c.11.44.33.77.65.99.32.22.73.33,1.25.33.59,0,1.05-.12,1.4-.38.35-.25.52-.55.52-.9,0-.28-.1-.52-.3-.72-.2-.19-.5-.34-.92-.43l-1.36-.32c-.75-.18-1.3-.45-1.65-.83-.35-.38-.53-.84-.53-1.41,0-.46.13-.87.39-1.22.26-.36.62-.63,1.07-.84.45-.2.97-.3,1.54-.3.81,0,1.45.18,1.91.53.46.36.79.82.99,1.41Z"/>
    </g>
  </g>
</svg>