<?xml version="1.0" encoding="UTF-8"?>
<svg xmlns="http://www.w3.org/2000/svg" viewBox="0 0 160 160">
  <defs>
    <style>
      .cls-1 {
        fill: #fff;
      }
    </style>
  </defs>
  <g id="Camada_2">
    <circle cx="80" cy="79.88" r="80"/>
  </g>
  <g id="Camada_1">
    <g>
      <path class="cls-1" d="M49.14,75.08h-3.37v-10.91h3.52c1.06,0,1.96.22,2.72.65s1.33,1.06,1.73,1.87c.4.81.6,1.78.6,2.91s-.2,2.11-.61,2.93-.99,1.45-1.77,1.89c-.77.44-1.72.66-2.82.66ZM47.09,73.91h1.96c.9,0,1.65-.17,2.24-.52.59-.35,1.04-.84,1.33-1.49.29-.64.44-1.41.44-2.3s-.14-1.64-.43-2.28c-.29-.64-.72-1.13-1.29-1.47s-1.28-.51-2.14-.51h-2.11v8.57Z"/>
      <path class="cls-1" d="M59.81,75.25c-.79,0-1.47-.17-2.04-.52-.57-.35-1.01-.84-1.32-1.47-.31-.63-.46-1.37-.46-2.2s.15-1.58.46-2.22c.31-.64.74-1.14,1.29-1.5.55-.36,1.2-.54,1.94-.54.43,0,.85.07,1.26.21.42.14.79.37,1.13.69s.61.74.81,1.26c.2.52.3,1.17.3,1.93v.53h-6.31v-1.09h5.03c0-.46-.09-.87-.27-1.24-.18-.36-.44-.65-.78-.86-.34-.21-.73-.31-1.19-.31-.5,0-.93.12-1.3.37-.36.25-.64.57-.84.96s-.29.82-.29,1.27v.72c0,.62.11,1.14.32,1.57.21.43.51.75.9.98.38.22.83.33,1.34.33.33,0,.63-.05.9-.14.27-.09.5-.24.7-.43s.35-.43.45-.71l1.21.34c-.13.41-.34.77-.64,1.08s-.67.55-1.12.72c-.44.17-.94.26-1.5.26Z"/>
      <path class="cls-1" d="M70.91,68.73l-1.13.32c-.07-.19-.18-.37-.31-.55-.14-.18-.32-.33-.56-.44s-.53-.18-.9-.18c-.5,0-.92.11-1.25.34s-.5.52-.5.87c0,.31.11.56.34.74.23.18.58.33,1.07.45l1.21.3c.73.18,1.28.45,1.64.81.36.36.54.83.54,1.4,0,.47-.13.89-.4,1.26s-.64.66-1.12.87c-.48.21-1.04.32-1.67.32-.83,0-1.52-.18-2.07-.54-.55-.36-.89-.89-1.04-1.59l1.19-.3c.11.44.33.77.65.99.32.22.73.33,1.25.33.59,0,1.05-.12,1.4-.38.35-.25.52-.55.52-.9,0-.28-.1-.52-.3-.72-.2-.19-.5-.34-.92-.43l-1.36-.32c-.75-.18-1.3-.45-1.65-.83-.35-.38-.52-.84-.52-1.41,0-.46.13-.87.39-1.22.26-.36.62-.63,1.07-.84.45-.2.97-.3,1.54-.3.81,0,1.45.18,1.91.53s.79.82.99,1.41Z"/>
      <path class="cls-1" d="M73.6,65.53c-.24,0-.46-.08-.63-.25-.18-.17-.26-.37-.26-.6s.09-.43.26-.6.39-.25.63-.25.46.08.63.25.26.37.26.6-.09.44-.26.6c-.18.17-.39.25-.63.25ZM72.96,75.08v-8.18h1.26v8.18h-1.26Z"/>
      <path class="cls-1" d="M79.82,78.32c-.61,0-1.13-.08-1.57-.23-.44-.15-.8-.36-1.09-.61-.29-.25-.52-.52-.69-.8l1-.7c.11.15.26.32.43.51.17.19.41.36.72.51.3.14.7.22,1.2.22.66,0,1.21-.16,1.64-.48.43-.32.64-.82.64-1.5v-1.66h-.11c-.09.15-.22.33-.39.55s-.41.41-.72.58c-.31.17-.74.25-1.27.25-.66,0-1.25-.16-1.78-.47-.52-.31-.94-.77-1.24-1.36-.3-.6-.46-1.32-.46-2.17s.15-1.57.44-2.19c.29-.62.71-1.11,1.23-1.45.53-.34,1.13-.51,1.82-.51.53,0,.96.09,1.27.26s.56.38.72.6c.17.22.3.4.39.55h.13v-1.3h1.21v8.42c0,.7-.16,1.28-.48,1.72-.32.44-.74.77-1.28.98s-1.13.31-1.78.31ZM79.78,73.82c.5,0,.93-.12,1.28-.35s.61-.56.79-1,.27-.95.27-1.56-.09-1.11-.27-1.56c-.18-.45-.44-.8-.79-1.06-.35-.26-.78-.38-1.29-.38s-.98.14-1.33.41c-.35.27-.62.63-.79,1.09s-.26.96-.26,1.51.09,1.07.27,1.5c.18.44.45.78.8,1.02.35.25.79.37,1.32.37Z"/>
      <path class="cls-1" d="M86.91,70.16v4.92h-1.26v-8.18h1.21v1.28h.11c.19-.42.48-.75.87-1s.9-.38,1.51-.38c.55,0,1.04.11,1.45.34.42.23.74.57.97,1.02.23.46.35,1.03.35,1.73v5.2h-1.26v-5.11c0-.64-.17-1.14-.5-1.5-.33-.36-.79-.54-1.37-.54-.4,0-.76.09-1.07.26s-.56.43-.74.76-.27.74-.27,1.21Z"/>
      <path class="cls-1" d="M101.74,75.25c-.68,0-1.28-.17-1.81-.52-.52-.35-.93-.84-1.23-1.47-.29-.63-.44-1.38-.44-2.25s.15-1.61.44-2.24c.29-.63.71-1.12,1.23-1.46.53-.35,1.13-.52,1.82-.52.53,0,.95.09,1.27.26s.55.38.71.6.29.4.39.55h.11v-4.03h1.26v10.91h-1.21v-1.26h-.15c-.09.15-.22.34-.39.56-.17.22-.41.43-.73.6s-.74.26-1.26.26ZM101.91,74.12c.5,0,.93-.13,1.28-.4.35-.27.61-.63.79-1.1s.27-1.01.27-1.63-.09-1.15-.27-1.61c-.18-.46-.44-.82-.79-1.08-.35-.26-.78-.39-1.29-.39s-.98.14-1.33.41c-.35.27-.62.64-.79,1.1s-.26.98-.26,1.56.09,1.11.27,1.58c.18.47.45.85.8,1.13.35.28.79.42,1.32.42Z"/>
      <path class="cls-1" d="M111.4,75.25c-.79,0-1.47-.17-2.04-.52-.57-.35-1.01-.84-1.32-1.47-.31-.63-.46-1.37-.46-2.2s.15-1.58.46-2.22c.31-.64.74-1.14,1.29-1.5.55-.36,1.2-.54,1.94-.54.43,0,.85.07,1.26.21.42.14.79.37,1.13.69s.61.74.81,1.26c.2.52.3,1.17.3,1.93v.53h-6.31v-1.09h5.03c0-.46-.09-.87-.27-1.24-.18-.36-.44-.65-.78-.86-.34-.21-.73-.31-1.19-.31-.5,0-.93.12-1.3.37-.36.25-.64.57-.84.96s-.29.82-.29,1.27v.72c0,.62.11,1.14.32,1.57.21.43.51.75.9.98.38.22.83.33,1.34.33.33,0,.63-.05.9-.14.27-.09.5-.24.7-.43s.35-.43.45-.71l1.21.34c-.13.41-.34.77-.64,1.08s-.67.55-1.12.72c-.44.17-.94.26-1.5.26Z"/>
      <path class="cls-1" d="M46.89,93.08v-8.18h1.21v1.28h.11c.17-.44.45-.78.83-1.02.38-.24.84-.37,1.37-.37s.99.12,1.35.37.64.58.84,1.02h.08c.21-.42.52-.76.94-1.01.42-.25.92-.38,1.51-.38.73,0,1.33.23,1.79.68s.7,1.17.7,2.13v5.48h-1.26v-5.48c0-.6-.17-1.04-.5-1.29s-.72-.39-1.17-.39c-.58,0-1.02.17-1.34.52-.32.35-.47.78-.47,1.31v5.33h-1.28v-5.6c0-.47-.15-.84-.45-1.13-.3-.29-.69-.43-1.17-.43-.33,0-.63.09-.91.26-.28.17-.51.41-.68.72s-.26.66-.26,1.06v5.11h-1.26Z"/>
      <path class="cls-1" d="M63.25,93.25c-.74,0-1.39-.18-1.94-.53s-.99-.84-1.3-1.48c-.31-.63-.47-1.37-.47-2.22s.16-1.6.47-2.23c.31-.63.74-1.13,1.3-1.48s1.2-.53,1.94-.53,1.39.18,1.94.53.99.85,1.3,1.48c.31.64.47,1.38.47,2.23s-.16,1.58-.47,2.22c-.31.63-.74,1.12-1.3,1.48s-1.2.53-1.94.53ZM63.25,92.12c.56,0,1.02-.14,1.38-.43s.63-.67.8-1.13c.17-.47.26-.98.26-1.52s-.09-1.06-.26-1.53c-.17-.47-.44-.85-.8-1.14s-.82-.44-1.38-.44-1.02.15-1.39.44-.63.67-.8,1.14c-.17.47-.26.98-.26,1.53s.09,1.05.26,1.52.44.85.8,1.13.82.43,1.39.43Z"/>
      <path class="cls-1" d="M69.05,93.08v-10.91h1.26v4.03h.11c.09-.14.22-.32.39-.55s.4-.42.71-.6c.31-.18.73-.26,1.27-.26.69,0,1.3.17,1.82.52.53.34.94.83,1.23,1.46.29.63.44,1.38.44,2.24s-.15,1.62-.44,2.25c-.29.63-.7,1.12-1.23,1.47-.52.35-1.12.52-1.81.52-.53,0-.95-.09-1.26-.26s-.56-.38-.73-.6c-.17-.23-.3-.41-.39-.56h-.15v1.26h-1.21ZM70.28,88.99c0,.62.09,1.16.27,1.63s.45.84.79,1.1c.35.26.77.4,1.28.4s.97-.14,1.32-.42c.35-.28.62-.66.8-1.13.18-.47.27-1,.27-1.58s-.09-1.09-.26-1.56-.44-.83-.79-1.1-.8-.41-1.33-.41-.94.13-1.29.39c-.35.26-.61.62-.79,1.08-.18.46-.27,1-.27,1.61Z"/>
      <path class="cls-1" d="M78.83,83.53c-.24,0-.46-.08-.63-.25-.18-.17-.26-.37-.26-.6s.09-.43.26-.6.39-.25.63-.25.46.08.63.25.26.37.26.6-.09.44-.26.6c-.18.17-.39.25-.63.25ZM78.19,93.08v-8.18h1.26v8.18h-1.26Z"/>
      <path class="cls-1" d="M83,82.17v10.91h-1.26v-10.91h1.26Z"/>
      <path class="cls-1" d="M85.94,83.53c-.24,0-.46-.08-.63-.25-.18-.17-.26-.37-.26-.6s.09-.43.26-.6.39-.25.63-.25.46.08.63.25.26.37.26.6-.09.44-.26.6c-.18.17-.39.25-.63.25ZM85.31,93.08v-8.18h1.26v8.18h-1.26Z"/>
      <path class="cls-1" d="M91.27,93.27c-.52,0-.99-.1-1.41-.3-.42-.2-.76-.48-1.01-.86-.25-.37-.37-.83-.37-1.36,0-.47.09-.85.28-1.14s.43-.52.74-.69c.31-.17.65-.29,1.03-.38.37-.08.75-.15,1.13-.2.5-.06.9-.11,1.21-.15.31-.03.54-.09.68-.17.14-.08.22-.22.22-.43v-.04c0-.53-.14-.93-.43-1.22-.29-.29-.72-.44-1.3-.44s-1.07.13-1.41.39c-.34.26-.58.54-.72.84l-1.19-.43c.21-.5.5-.88.85-1.16s.75-.47,1.17-.59.84-.17,1.25-.17c.26,0,.57.03.91.09s.67.19,1,.38.59.48.8.87c.21.39.32.91.32,1.56v5.39h-1.26v-1.11h-.06c-.09.18-.23.37-.43.57-.2.2-.46.38-.79.52-.33.14-.73.21-1.21.21ZM91.46,92.14c.5,0,.92-.1,1.26-.29s.6-.45.78-.76.26-.63.26-.97v-1.15c-.05.06-.17.12-.35.17-.18.05-.39.1-.62.13-.23.04-.46.07-.68.1-.22.03-.4.05-.53.07-.33.04-.63.11-.91.21-.28.09-.51.23-.68.42-.17.19-.26.44-.26.76,0,.44.16.77.49.99.32.22.74.33,1.24.33ZM91.51,83.79l1.3-2.47h1.47l-1.66,2.47h-1.11Z"/>
      <path class="cls-1" d="M97.32,93.08v-8.18h1.21v1.24h.08c.15-.41.42-.73.81-.99s.83-.38,1.32-.38c.09,0,.21,0,.35,0s.24,0,.31.02v1.28s-.14-.03-.29-.05c-.15-.02-.31-.04-.48-.04-.4,0-.75.08-1.06.25-.31.17-.56.39-.73.68-.18.29-.27.62-.27.99v5.18h-1.26Z"/>
      <path class="cls-1" d="M103.54,83.53c-.24,0-.46-.08-.63-.25-.18-.17-.26-.37-.26-.6s.09-.43.26-.6.39-.25.63-.25.46.08.63.25.26.37.26.6-.09.44-.26.6c-.18.17-.39.25-.63.25ZM102.9,93.08v-8.18h1.26v8.18h-1.26Z"/>
      <path class="cls-1" d="M109.79,93.25c-.74,0-1.39-.18-1.94-.53s-.99-.84-1.3-1.48c-.31-.63-.47-1.37-.47-2.22s.16-1.6.47-2.23c.31-.63.74-1.13,1.3-1.48s1.2-.53,1.94-.53,1.39.18,1.94.53.99.85,1.3,1.48c.31.64.47,1.38.47,2.23s-.16,1.58-.47,2.22c-.31.63-.74,1.12-1.3,1.48s-1.2.53-1.94.53ZM109.79,92.12c.56,0,1.02-.14,1.38-.43s.63-.67.8-1.13c.17-.47.26-.98.26-1.52s-.09-1.06-.26-1.53c-.17-.47-.44-.85-.8-1.14s-.82-.44-1.38-.44-1.02.15-1.39.44-.63.67-.8,1.14c-.17.47-.26.98-.26,1.53s.09,1.05.26,1.52.44.85.8,1.13.82.43,1.39.43Z"/>
    </g>
  </g>
</svg>