<?xml version="1.0" encoding="UTF-8"?>
<svg xmlns="http://www.w3.org/2000/svg" viewBox="0 0 160 160">
  <defs>
    <style>
      .cls-1 {
        fill: #fff;
      }
    </style>
  </defs>
  <g id="Camada_2">
    <circle cx="80" cy="79.88" r="80"/>
  </g>
  <g id="Camada_1">
    <g>
      <path class="cls-1" d="M39.96,84.08v-10.91h6.58v1.17h-5.26v3.69h4.92v1.17h-4.92v3.71h5.35v1.17h-6.67Z"/>
      <path class="cls-1" d="M48.76,84.08v-8.18h1.21v1.28h.11c.17-.44.45-.78.83-1.02s.84-.37,1.37-.37.99.12,1.35.37.64.58.84,1.02h.08c.21-.42.52-.76.94-1.01s.92-.38,1.51-.38c.73,0,1.33.23,1.79.68.46.46.7,1.17.7,2.13v5.48h-1.26v-5.48c0-.6-.17-1.03-.5-1.29-.33-.26-.72-.39-1.17-.39-.58,0-1.02.17-1.34.52-.32.35-.47.78-.47,1.31v5.33h-1.28v-5.6c0-.47-.15-.84-.45-1.13s-.69-.43-1.17-.43c-.33,0-.63.09-.91.26s-.51.42-.68.72c-.17.31-.26.66-.26,1.06v5.11h-1.26Z"/>
      <path class="cls-1" d="M61.97,84.08v-10.91h1.26v4.03h.11c.09-.14.22-.32.39-.55.17-.22.4-.42.71-.6.31-.18.73-.26,1.26-.26.69,0,1.3.17,1.82.52.53.34.94.83,1.23,1.46.29.63.44,1.38.44,2.24s-.15,1.62-.44,2.25c-.29.63-.7,1.12-1.23,1.47-.52.35-1.12.52-1.81.52-.53,0-.95-.09-1.26-.26-.32-.18-.56-.38-.73-.6s-.3-.41-.39-.56h-.15v1.26h-1.21ZM63.21,79.99c0,.62.09,1.16.27,1.63.18.47.45.84.79,1.1.35.26.77.4,1.28.4s.97-.14,1.32-.42c.35-.28.62-.66.8-1.13.18-.47.27-1,.27-1.58s-.09-1.09-.26-1.56c-.18-.46-.44-.83-.79-1.1s-.8-.41-1.33-.41-.94.13-1.29.39c-.35.26-.61.62-.79,1.08s-.27,1-.27,1.61Z"/>
      <path class="cls-1" d="M73.52,84.27c-.52,0-.99-.1-1.41-.3-.42-.2-.76-.48-1.01-.86-.25-.37-.37-.83-.37-1.36,0-.47.09-.85.28-1.14s.43-.52.74-.69.65-.29,1.03-.38c.38-.08.75-.15,1.13-.2.5-.06.9-.11,1.21-.15.31-.03.54-.09.68-.17s.22-.22.22-.43v-.04c0-.53-.14-.93-.43-1.23-.29-.29-.72-.44-1.3-.44s-1.07.13-1.41.39-.58.54-.72.84l-1.19-.43c.21-.5.5-.88.86-1.16.36-.28.75-.47,1.17-.59.42-.11.84-.17,1.25-.17.26,0,.57.03.91.09s.67.19,1,.38.59.48.8.87.32.91.32,1.56v5.39h-1.26v-1.11h-.06c-.09.18-.23.37-.43.57-.2.2-.46.38-.79.52-.33.14-.73.21-1.21.21ZM73.71,83.14c.5,0,.92-.1,1.26-.29s.6-.45.78-.76c.18-.31.26-.63.26-.97v-1.15c-.05.06-.17.12-.35.17-.18.05-.39.1-.62.13-.23.04-.46.07-.68.1-.22.03-.39.05-.53.07-.33.04-.63.11-.91.21s-.51.23-.68.42-.26.44-.26.76c0,.44.16.77.49.99.32.22.74.33,1.24.33Z"/>
      <path class="cls-1" d="M80.83,73.17v10.91h-1.26v-10.91h1.26Z"/>
      <path class="cls-1" d="M85.54,84.27c-.52,0-.99-.1-1.41-.3-.42-.2-.76-.48-1.01-.86-.25-.37-.37-.83-.37-1.36,0-.47.09-.85.28-1.14s.43-.52.74-.69.65-.29,1.03-.38c.38-.08.75-.15,1.13-.2.5-.06.9-.11,1.21-.15.31-.03.54-.09.68-.17s.22-.22.22-.43v-.04c0-.53-.14-.93-.43-1.23-.29-.29-.72-.44-1.3-.44s-1.07.13-1.41.39-.58.54-.72.84l-1.19-.43c.21-.5.5-.88.86-1.16.36-.28.75-.47,1.17-.59.42-.11.84-.17,1.25-.17.26,0,.57.03.91.09s.67.19,1,.38.59.48.8.87.32.91.32,1.56v5.39h-1.26v-1.11h-.06c-.09.18-.23.37-.43.57-.2.2-.46.38-.79.52-.33.14-.73.21-1.21.21ZM85.73,83.14c.5,0,.92-.1,1.26-.29s.6-.45.78-.76c.18-.31.26-.63.26-.97v-1.15c-.05.06-.17.12-.35.17-.18.05-.39.1-.62.13-.23.04-.46.07-.68.1-.22.03-.39.05-.53.07-.33.04-.63.11-.91.21s-.51.23-.68.42-.26.44-.26.76c0,.44.16.77.49.99.32.22.74.33,1.24.33Z"/>
      <path class="cls-1" d="M94.89,87.32c-.61,0-1.13-.08-1.57-.23s-.8-.36-1.09-.61c-.29-.25-.52-.52-.69-.8l1-.7c.11.15.26.32.43.51.17.19.41.36.72.51.3.14.7.22,1.2.22.66,0,1.21-.16,1.63-.48.43-.32.64-.82.64-1.5v-1.66h-.11c-.09.15-.22.33-.39.55-.17.22-.41.41-.72.58-.31.17-.74.25-1.27.25-.66,0-1.25-.16-1.78-.47-.52-.31-.94-.77-1.24-1.36-.3-.6-.46-1.32-.46-2.17s.15-1.57.44-2.19c.29-.62.71-1.11,1.23-1.45s1.13-.51,1.82-.51c.53,0,.96.09,1.27.26s.56.38.72.6c.17.22.3.4.39.55h.13v-1.3h1.21v8.42c0,.7-.16,1.28-.48,1.72-.32.44-.74.77-1.28.97-.53.21-1.13.31-1.78.31ZM94.85,82.82c.5,0,.93-.12,1.28-.35.35-.23.61-.56.79-1,.18-.43.27-.95.27-1.56s-.09-1.11-.27-1.56c-.18-.45-.44-.8-.79-1.06-.35-.26-.78-.38-1.29-.38s-.98.13-1.33.4c-.35.27-.62.63-.79,1.09-.18.46-.26.96-.26,1.51s.09,1.07.27,1.5c.18.44.45.78.8,1.02.35.25.79.37,1.32.37Z"/>
      <path class="cls-1" d="M104.16,84.25c-.79,0-1.47-.17-2.04-.52-.57-.35-1.01-.84-1.32-1.47-.31-.63-.46-1.37-.46-2.2s.15-1.58.46-2.22c.31-.64.74-1.14,1.29-1.5s1.2-.54,1.94-.54c.43,0,.85.07,1.26.21.42.14.79.37,1.13.69.34.32.61.74.82,1.26s.3,1.17.3,1.93v.53h-6.31v-1.09h5.03c0-.46-.09-.87-.27-1.24-.18-.36-.44-.65-.78-.86-.33-.21-.73-.31-1.18-.31-.5,0-.93.12-1.3.37-.36.25-.64.57-.84.96-.2.39-.29.82-.29,1.27v.72c0,.62.11,1.14.32,1.57s.51.75.9.97c.38.22.83.33,1.34.33.33,0,.63-.05.9-.14.27-.09.5-.24.7-.43.2-.19.35-.43.45-.71l1.21.34c-.13.41-.34.77-.64,1.08s-.67.55-1.12.72c-.44.17-.94.26-1.5.26Z"/>
      <path class="cls-1" d="M109.47,84.08v-8.18h1.21v1.28h.11c.17-.44.45-.78.83-1.02.38-.24.84-.37,1.37-.37s.99.12,1.35.37.64.58.84,1.02h.08c.21-.42.52-.76.94-1.01s.92-.38,1.51-.38c.73,0,1.33.23,1.79.68.47.46.7,1.17.7,2.13v5.48h-1.26v-5.48c0-.6-.17-1.03-.5-1.29-.33-.26-.72-.39-1.17-.39-.58,0-1.02.17-1.34.52-.32.35-.47.78-.47,1.31v5.33h-1.28v-5.6c0-.47-.15-.84-.45-1.13s-.69-.43-1.17-.43c-.33,0-.63.09-.91.26-.28.17-.51.42-.68.72-.17.31-.26.66-.26,1.06v5.11h-1.26Z"/>
    </g>
  </g>
</svg>