<?xml version="1.0" encoding="UTF-8"?>
<svg xmlns="http://www.w3.org/2000/svg" viewBox="0 0 160 160">
  <defs>
    <style>
      .cls-1 {
        fill: #fff;
      }
    </style>
  </defs>
  <g id="Camada_2">
    <circle cx="80" cy="79.88" r="80"/>
  </g>
  <g id="Camada_1">
    <g>
      <path class="cls-1" d="M52.71,64.17h1.58l3.71,9.06h.13l3.71-9.06h1.58v10.91h-1.24v-8.29h-.11l-3.41,8.29h-1.19l-3.41-8.29h-.11v8.29h-1.24v-10.91Z"/>
      <path class="cls-1" d="M69.2,75.25c-.74,0-1.39-.18-1.94-.53s-.99-.84-1.3-1.48c-.31-.63-.47-1.37-.47-2.22s.16-1.6.47-2.23c.31-.64.74-1.13,1.3-1.48s1.2-.53,1.94-.53,1.39.18,1.94.53.99.85,1.3,1.48c.31.64.47,1.38.47,2.23s-.16,1.58-.47,2.22c-.31.63-.74,1.12-1.3,1.48s-1.2.53-1.94.53ZM69.2,74.12c.56,0,1.02-.14,1.38-.43.36-.29.63-.67.8-1.13.17-.47.26-.98.26-1.52s-.09-1.06-.26-1.53c-.17-.47-.44-.85-.8-1.15s-.82-.44-1.38-.44-1.02.15-1.39.44-.63.67-.8,1.15-.26.98-.26,1.53.09,1.05.26,1.52.44.85.8,1.13c.36.29.82.43,1.39.43Z"/>
      <path class="cls-1" d="M77.91,75.25c-.68,0-1.28-.17-1.81-.52-.52-.35-.93-.84-1.23-1.47-.29-.63-.44-1.38-.44-2.25s.15-1.6.44-2.24c.29-.63.71-1.12,1.23-1.46.53-.34,1.13-.52,1.82-.52.53,0,.95.09,1.27.26s.55.38.71.6c.17.22.29.4.39.55h.11v-4.03h1.26v10.91h-1.21v-1.26h-.15c-.09.15-.22.34-.39.56s-.41.43-.73.6-.74.26-1.26.26ZM78.08,74.12c.5,0,.93-.13,1.28-.4s.61-.63.79-1.1c.18-.47.27-1.01.27-1.63s-.09-1.15-.27-1.61c-.18-.46-.44-.82-.79-1.08-.35-.26-.78-.39-1.29-.39s-.98.14-1.33.41c-.35.27-.62.64-.79,1.1-.18.46-.26.98-.26,1.56s.09,1.11.27,1.58c.18.47.45.85.8,1.13.35.28.79.42,1.32.42Z"/>
      <path class="cls-1" d="M86.54,75.27c-.52,0-.99-.1-1.41-.3-.42-.2-.76-.48-1.01-.86-.25-.37-.37-.83-.37-1.36,0-.47.09-.85.28-1.14s.43-.52.74-.69c.31-.17.65-.29,1.03-.38.37-.08.75-.15,1.13-.2.5-.06.9-.11,1.21-.15.31-.03.54-.09.68-.17.14-.08.22-.22.22-.43v-.04c0-.53-.14-.93-.43-1.23-.29-.29-.72-.44-1.3-.44s-1.07.13-1.41.39-.58.54-.72.84l-1.19-.43c.21-.5.5-.88.85-1.16.36-.28.75-.47,1.17-.59.42-.11.84-.17,1.25-.17.26,0,.57.03.91.09s.67.19,1,.38.59.48.8.87c.21.39.32.91.32,1.56v5.39h-1.26v-1.11h-.06c-.09.18-.23.37-.43.57s-.46.38-.79.52c-.33.14-.73.21-1.21.21ZM86.73,74.14c.5,0,.92-.1,1.26-.29s.6-.45.78-.76c.18-.31.26-.63.26-.97v-1.15c-.05.06-.17.12-.35.17s-.39.1-.62.13c-.23.04-.46.07-.68.1-.22.03-.4.05-.53.07-.33.04-.63.11-.91.21s-.51.23-.68.42c-.17.19-.26.44-.26.76,0,.44.16.77.49.99.32.22.74.33,1.24.33Z"/>
      <path class="cls-1" d="M100.24,75.25c-.79,0-1.47-.17-2.04-.52s-1.01-.84-1.32-1.47c-.31-.63-.46-1.37-.46-2.2s.15-1.58.46-2.22c.31-.64.74-1.14,1.29-1.5.55-.36,1.2-.54,1.94-.54.43,0,.85.07,1.26.21.42.14.79.37,1.13.69.34.32.61.74.81,1.26.2.52.3,1.17.3,1.93v.53h-6.31v-1.09h5.03c0-.46-.09-.87-.27-1.24-.18-.36-.44-.65-.78-.86-.34-.21-.73-.31-1.19-.31-.5,0-.93.12-1.3.37-.36.25-.64.57-.84.96-.2.39-.29.82-.29,1.27v.72c0,.62.11,1.14.32,1.57s.51.75.9.97c.38.22.83.33,1.34.33.33,0,.63-.05.9-.14.27-.09.5-.24.7-.43.2-.19.35-.43.45-.71l1.21.34c-.13.41-.34.77-.64,1.08s-.67.55-1.12.72c-.44.17-.94.26-1.5.26Z"/>
      <path class="cls-1" d="M67.28,84.9v1.06h-4.24v-1.06h4.24ZM64.28,82.94h1.26v7.8c0,.35.05.62.16.8.1.18.24.29.4.35.17.06.34.09.52.09.14,0,.25,0,.34-.02.09-.02.16-.03.21-.04l.26,1.13c-.08.03-.2.06-.36.1s-.35.05-.58.05c-.35,0-.7-.08-1.04-.23-.34-.15-.62-.38-.84-.7-.22-.31-.33-.71-.33-1.18v-8.14Z"/>
      <path class="cls-1" d="M72.61,93.25c-.79,0-1.47-.17-2.04-.52s-1.01-.84-1.32-1.47c-.31-.63-.46-1.37-.46-2.2s.15-1.58.46-2.22c.31-.64.74-1.14,1.29-1.5.55-.36,1.2-.54,1.94-.54.43,0,.85.07,1.26.21.42.14.79.37,1.13.69.34.32.61.74.81,1.26.2.52.3,1.17.3,1.93v.53h-6.31v-1.09h5.03c0-.46-.09-.87-.27-1.24-.18-.36-.44-.65-.78-.86-.34-.21-.73-.31-1.19-.31-.5,0-.93.12-1.3.37-.36.25-.64.57-.84.96-.2.39-.29.82-.29,1.27v.72c0,.62.11,1.14.32,1.57s.51.75.9.97c.38.22.83.33,1.34.33.33,0,.63-.05.9-.14.27-.09.5-.24.7-.43.2-.19.35-.43.45-.71l1.21.34c-.13.41-.34.77-.64,1.08s-.67.55-1.12.72c-.44.17-.94.26-1.5.26ZM73.52,83.92l-1.11-1.49-1.11,1.49h-1.19v-.08l1.73-2.22h1.15l1.73,2.22v.08h-1.19Z"/>
      <path class="cls-1" d="M78.85,84.9l1.96,3.34,1.96-3.34h1.45l-2.64,4.09,2.64,4.09h-1.45l-1.96-3.17-1.96,3.17h-1.45l2.6-4.09-2.6-4.09h1.45Z"/>
      <path class="cls-1" d="M89.57,84.9v1.06h-4.24v-1.06h4.24ZM86.56,82.94h1.26v7.8c0,.35.05.62.16.8.1.18.24.29.4.35.17.06.34.09.52.09.14,0,.25,0,.34-.02.09-.02.16-.03.21-.04l.26,1.13c-.08.03-.2.06-.36.1s-.35.05-.58.05c-.35,0-.7-.08-1.04-.23-.34-.15-.62-.38-.84-.7-.22-.31-.33-.71-.33-1.18v-8.14Z"/>
      <path class="cls-1" d="M92.1,83.53c-.24,0-.46-.08-.63-.25s-.26-.37-.26-.6.09-.43.26-.6.39-.25.63-.25.46.08.63.25.26.37.26.6-.09.44-.26.6-.39.25-.63.25ZM91.46,93.08v-8.18h1.26v8.18h-1.26Z"/>
      <path class="cls-1" d="M96.28,82.17v10.91h-1.26v-10.91h1.26Z"/>
    </g>
  </g>
</svg>