<?xml version="1.0" encoding="UTF-8"?>
<svg xmlns="http://www.w3.org/2000/svg" viewBox="0 0 160 160">
  <defs>
    <style>
      .cls-1 {
        fill: #fff;
      }
    </style>
  </defs>
  <g id="Camada_2">
    <circle cx="80" cy="79.88" r="80"/>
  </g>
  <g id="Camada_1">
    <g>
      <path class="cls-1" d="M40.42,84.08v-10.91h3.69c.86,0,1.56.15,2.1.46.54.31.95.72,1.21,1.24.26.52.39,1.1.39,1.75s-.13,1.23-.39,1.75c-.26.53-.66.94-1.21,1.25-.54.31-1.24.47-2.09.47h-2.64v-1.17h2.6c.59,0,1.06-.1,1.41-.3.35-.2.61-.48.77-.82.16-.35.24-.74.24-1.17s-.08-.83-.24-1.17c-.16-.34-.42-.62-.78-.81-.36-.2-.83-.3-1.43-.3h-2.32v9.74h-1.32Z"/>
      <path class="cls-1" d="M49.78,84.08v-8.18h1.21v1.24h.08c.15-.41.42-.73.81-.99s.83-.38,1.32-.38c.09,0,.21,0,.35,0,.14,0,.24,0,.31.02v1.28s-.14-.03-.29-.05c-.15-.02-.31-.04-.48-.04-.4,0-.75.08-1.06.25-.31.17-.56.39-.73.68-.18.29-.27.62-.27.99v5.18h-1.26Z"/>
      <path class="cls-1" d="M57.77,84.27c-.52,0-.99-.1-1.41-.3-.42-.2-.76-.48-1.01-.86-.25-.37-.37-.83-.37-1.36,0-.47.09-.85.28-1.14s.43-.52.74-.69c.31-.17.65-.29,1.03-.38.37-.08.75-.15,1.13-.2.5-.06.9-.11,1.21-.15.31-.03.54-.09.68-.17.14-.08.22-.22.22-.43v-.04c0-.53-.14-.93-.43-1.23-.29-.29-.72-.44-1.3-.44s-1.07.13-1.41.39-.58.54-.72.84l-1.19-.43c.21-.5.5-.88.85-1.16.36-.28.75-.47,1.17-.59.42-.11.84-.17,1.25-.17.26,0,.57.03.91.09s.67.19,1,.38.59.48.8.87c.21.39.32.91.32,1.56v5.39h-1.26v-1.11h-.06c-.09.18-.23.37-.43.57s-.46.38-.79.52c-.33.14-.73.21-1.21.21ZM57.96,83.14c.5,0,.92-.1,1.26-.29s.6-.45.78-.76c.18-.31.26-.63.26-.97v-1.15c-.05.06-.17.12-.35.17s-.39.1-.62.13c-.23.04-.46.07-.68.1-.22.03-.4.05-.53.07-.33.04-.63.11-.91.21s-.51.23-.68.42c-.17.19-.26.44-.26.76,0,.44.16.77.49.99.32.22.74.33,1.24.33ZM58,74.79l1.3-2.47h1.47l-1.66,2.47h-1.11Z"/>
      <path class="cls-1" d="M67.38,75.9v1.06h-4.24v-1.06h4.24ZM64.37,73.94h1.26v7.8c0,.35.05.62.16.8.1.18.24.29.4.35.17.06.34.09.52.09.14,0,.25,0,.34-.02.09-.02.16-.03.21-.04l.26,1.13c-.08.03-.2.06-.36.1s-.35.05-.58.05c-.35,0-.7-.08-1.04-.23-.34-.15-.62-.38-.84-.7-.22-.31-.33-.71-.33-1.18v-8.14Z"/>
      <path class="cls-1" d="M69.91,74.53c-.24,0-.46-.08-.63-.25s-.26-.37-.26-.6.09-.43.26-.6.39-.25.63-.25.46.08.63.25.26.37.26.6-.09.44-.26.6-.39.25-.63.25ZM69.27,84.08v-8.18h1.26v8.18h-1.26Z"/>
      <path class="cls-1" d="M76.15,84.25c-.77,0-1.43-.18-1.98-.54-.55-.36-.98-.86-1.28-1.5s-.45-1.36-.45-2.18.15-1.56.46-2.2c.31-.64.74-1.14,1.29-1.5.55-.36,1.2-.54,1.94-.54.58,0,1.09.11,1.56.32.46.21.84.51,1.13.89s.48.83.55,1.34h-1.26c-.1-.37-.31-.7-.64-.99-.33-.29-.77-.43-1.32-.43-.49,0-.92.13-1.29.38s-.65.61-.86,1.07c-.2.46-.31,1-.31,1.62s.1,1.18.3,1.65.48.83.85,1.09c.37.26.8.39,1.3.39.33,0,.62-.06.89-.17.27-.11.49-.28.68-.49.18-.21.32-.47.39-.77h1.26c-.07.48-.25.92-.52,1.3-.28.38-.65.69-1.1.92-.46.23-.99.34-1.59.34Z"/>
      <path class="cls-1" d="M83.61,84.27c-.52,0-.99-.1-1.41-.3-.42-.2-.76-.48-1.01-.86-.25-.37-.37-.83-.37-1.36,0-.47.09-.85.28-1.14s.43-.52.74-.69c.31-.17.65-.29,1.03-.38.37-.08.75-.15,1.13-.2.5-.06.9-.11,1.21-.15.31-.03.54-.09.68-.17.14-.08.22-.22.22-.43v-.04c0-.53-.14-.93-.43-1.23-.29-.29-.72-.44-1.3-.44s-1.07.13-1.41.39-.58.54-.72.84l-1.19-.43c.21-.5.5-.88.85-1.16.36-.28.75-.47,1.17-.59.42-.11.84-.17,1.25-.17.26,0,.57.03.91.09s.67.19,1,.38.59.48.8.87c.21.39.32.91.32,1.56v5.39h-1.26v-1.11h-.06c-.09.18-.23.37-.43.57s-.46.38-.79.52c-.33.14-.73.21-1.21.21ZM83.8,83.14c.5,0,.92-.1,1.26-.29s.6-.45.78-.76c.18-.31.26-.63.26-.97v-1.15c-.05.06-.17.12-.35.17s-.39.1-.62.13c-.23.04-.46.07-.68.1-.22.03-.4.05-.53.07-.33.04-.63.11-.91.21s-.51.23-.68.42c-.17.19-.26.44-.26.76,0,.44.16.77.49.99.32.22.74.33,1.24.33Z"/>
      <path class="cls-1" d="M95.46,77.73l-1.13.32c-.07-.19-.18-.37-.31-.55-.14-.18-.32-.33-.56-.45s-.53-.18-.9-.18c-.5,0-.92.11-1.25.34s-.5.52-.5.87c0,.31.11.56.34.74.23.18.58.33,1.07.45l1.21.3c.73.18,1.28.45,1.64.81s.54.83.54,1.4c0,.47-.13.89-.4,1.26-.27.37-.64.66-1.12.87s-1.04.32-1.67.32c-.83,0-1.52-.18-2.07-.54s-.89-.89-1.04-1.59l1.19-.3c.11.44.33.77.65.99.32.22.73.33,1.25.33.59,0,1.05-.12,1.4-.38.35-.25.52-.55.52-.9,0-.28-.1-.52-.3-.72s-.5-.34-.92-.43l-1.36-.32c-.75-.18-1.3-.45-1.65-.83-.35-.38-.52-.84-.52-1.41,0-.46.13-.87.39-1.22.26-.36.62-.63,1.07-.84.45-.2.97-.3,1.54-.3.81,0,1.45.18,1.91.53s.79.82.99,1.41Z"/>
      <path class="cls-1" d="M105.39,84.23c-.7,0-1.33-.12-1.88-.36-.55-.24-.98-.58-1.3-1.01-.32-.43-.5-.93-.52-1.5h1.34c.03.35.15.65.36.91s.49.45.84.59c.34.14.73.21,1.15.21.47,0,.88-.08,1.25-.24.36-.16.65-.39.85-.68.21-.29.31-.63.31-1.01s-.1-.76-.3-1.06c-.2-.31-.49-.55-.87-.72-.38-.17-.85-.26-1.41-.26h-.87v-1.17h.87c.43,0,.81-.08,1.14-.23.33-.16.59-.38.77-.66s.28-.62.28-1-.08-.69-.25-.96c-.16-.27-.39-.49-.69-.64s-.65-.23-1.05-.23c-.38,0-.73.07-1.06.21s-.6.33-.81.59c-.21.26-.32.57-.34.93h-1.28c.02-.57.19-1.07.52-1.5.32-.43.75-.77,1.27-1.01s1.1-.36,1.73-.36c.67,0,1.25.14,1.74.41.48.27.85.63,1.11,1.07.26.44.39.92.39,1.44,0,.61-.16,1.14-.48,1.57-.32.43-.76.73-1.31.9v.08c.69.11,1.23.41,1.61.88.39.47.58,1.05.58,1.74,0,.59-.16,1.12-.48,1.6-.32.47-.76.84-1.31,1.11-.55.27-1.18.4-1.89.4Z"/>
      <path class="cls-1" d="M114.8,84.08h-3.37v-10.91h3.52c1.06,0,1.96.22,2.72.65.75.44,1.33,1.06,1.73,1.87.4.81.6,1.78.6,2.91s-.2,2.11-.61,2.93-.99,1.45-1.77,1.89c-.77.44-1.72.66-2.82.66ZM112.76,82.91h1.96c.9,0,1.65-.17,2.24-.52.59-.35,1.04-.84,1.33-1.49.29-.64.44-1.41.44-2.3s-.14-1.64-.43-2.28c-.29-.64-.72-1.13-1.29-1.47s-1.28-.51-2.14-.51h-2.11v8.57Z"/>
    </g>
  </g>
</svg>