<?xml version="1.0" encoding="UTF-8"?>
<svg xmlns="http://www.w3.org/2000/svg" viewBox="0 0 160 160">
  <defs>
    <style>
      .cls-1 {
        fill: #fff;
      }
    </style>
  </defs>
  <g id="Camada_2">
    <circle cx="80" cy="79.88" r="80"/>
  </g>
  <g id="Camada_1">
    <g>
      <path class="cls-1" d="M40.05,85.36h-1.39l4.01-10.91h1.36l4,10.91h-1.38l-3.26-9.18h-.08l-3.26,9.18ZM40.56,81.1h5.58v1.17h-5.58v-1.17Z"/>
      <path class="cls-1" d="M49.57,85.36v-8.18h1.21v1.24h.08c.15-.41.42-.73.81-.99.39-.25.83-.38,1.32-.38.09,0,.21,0,.35,0s.24,0,.31.02v1.28s-.14-.03-.29-.05-.31-.03-.48-.03c-.4,0-.75.08-1.06.25-.31.17-.56.39-.74.68-.18.29-.27.62-.27.99v5.18h-1.26Z"/>
      <path class="cls-1" d="M58.71,77.18v1.06h-4.24v-1.06h4.24ZM55.71,75.22h1.26v7.8c0,.35.05.62.16.8.1.18.24.29.4.35.17.06.34.09.53.09.14,0,.25,0,.34-.02.09-.02.16-.03.21-.04l.26,1.13c-.08.03-.2.06-.36.1-.15.03-.35.05-.58.05-.35,0-.7-.08-1.04-.23-.34-.15-.62-.39-.84-.7-.22-.31-.33-.71-.33-1.18v-8.14Z"/>
      <path class="cls-1" d="M64.04,85.53c-.79,0-1.47-.17-2.04-.52-.57-.35-1.01-.84-1.32-1.47s-.46-1.36-.46-2.2.15-1.58.46-2.22.74-1.14,1.29-1.5,1.2-.54,1.94-.54c.43,0,.85.07,1.26.21.42.14.79.37,1.13.69s.61.74.81,1.26c.2.52.3,1.16.3,1.93v.53h-6.31v-1.09h5.03c0-.46-.09-.87-.27-1.24-.18-.36-.44-.65-.78-.86-.33-.21-.73-.31-1.18-.31-.5,0-.93.12-1.3.37-.37.25-.64.57-.84.96-.2.39-.29.82-.29,1.27v.72c0,.62.11,1.14.32,1.57.21.43.51.75.9.98.38.22.83.33,1.34.33.33,0,.63-.05.9-.14.27-.09.5-.24.7-.43s.35-.43.45-.71l1.21.34c-.13.41-.34.77-.64,1.08-.3.31-.67.55-1.12.72-.44.17-.94.26-1.5.26Z"/>
      <path class="cls-1" d="M78.72,82.01v-4.84h1.26v8.18h-1.26v-1.38h-.08c-.19.42-.49.77-.89,1.06-.41.29-.92.43-1.54.43-.51,0-.96-.11-1.36-.34-.4-.23-.71-.57-.94-1.02-.23-.46-.34-1.03-.34-1.73v-5.2h1.26v5.11c0,.6.17,1.07.5,1.43s.76.53,1.29.53c.31,0,.63-.08.96-.24.33-.16.6-.4.82-.73.22-.33.33-.75.33-1.26Z"/>
      <path class="cls-1" d="M82.28,85.36v-8.18h1.21v1.24h.09c.15-.41.42-.73.81-.99.39-.25.83-.38,1.32-.38.09,0,.21,0,.35,0s.24,0,.31.02v1.28s-.14-.03-.29-.05c-.15-.02-.31-.03-.48-.03-.4,0-.75.08-1.06.25-.31.17-.56.39-.73.68-.18.29-.27.62-.27.99v5.18h-1.26Z"/>
      <path class="cls-1" d="M88.03,85.36v-10.91h1.26v4.03h.11c.09-.14.22-.32.39-.55.17-.22.4-.42.71-.6s.73-.26,1.27-.26c.69,0,1.29.17,1.82.52.53.34.94.83,1.23,1.46.29.63.44,1.38.44,2.24s-.15,1.62-.44,2.25c-.29.63-.7,1.12-1.23,1.47-.52.35-1.12.52-1.81.52-.53,0-.95-.09-1.26-.26-.32-.18-.56-.38-.73-.6s-.3-.41-.39-.56h-.15v1.26h-1.21ZM89.27,81.27c0,.62.09,1.16.27,1.63.18.47.45.84.79,1.1.35.26.77.4,1.28.4s.97-.14,1.32-.42c.35-.28.62-.66.8-1.13.18-.47.27-1,.27-1.58s-.09-1.09-.26-1.56-.44-.83-.79-1.1c-.35-.27-.8-.41-1.33-.41s-.94.13-1.29.39c-.35.26-.61.62-.79,1.08-.18.46-.27,1-.27,1.61Z"/>
      <path class="cls-1" d="M99.58,85.55c-.52,0-.99-.1-1.41-.3s-.76-.48-1.01-.86c-.25-.37-.37-.83-.37-1.36,0-.47.09-.85.28-1.14s.43-.52.74-.69.65-.29,1.03-.38.75-.15,1.13-.2c.5-.06.9-.11,1.21-.15s.54-.09.68-.17c.14-.08.22-.22.22-.43v-.04c0-.53-.14-.93-.43-1.23-.29-.29-.72-.44-1.3-.44s-1.07.13-1.41.39c-.34.26-.58.54-.72.84l-1.19-.43c.21-.5.5-.89.86-1.16s.75-.47,1.17-.59.84-.17,1.25-.17c.26,0,.57.03.91.09.34.06.68.19,1,.38.32.19.59.48.8.87.21.39.32.91.32,1.56v5.39h-1.26v-1.11h-.06c-.09.18-.23.37-.43.57-.2.2-.46.38-.79.52-.33.14-.73.21-1.21.21ZM99.77,84.42c.5,0,.92-.1,1.26-.29s.6-.45.78-.76.26-.63.26-.97v-1.15c-.05.06-.17.12-.35.17-.18.05-.38.1-.62.13-.23.04-.46.07-.68.1-.22.03-.39.05-.53.07-.33.04-.63.11-.91.21-.28.09-.51.23-.68.42s-.26.44-.26.76c0,.44.16.77.49.99.33.22.74.33,1.24.33Z"/>
      <path class="cls-1" d="M106.89,80.44v4.92h-1.26v-8.18h1.21v1.28h.11c.19-.42.48-.75.87-1,.39-.25.9-.38,1.51-.38.55,0,1.04.11,1.45.34.42.23.74.57.97,1.02.23.46.35,1.03.35,1.73v5.2h-1.26v-5.11c0-.64-.17-1.14-.5-1.5-.33-.36-.79-.54-1.38-.54-.4,0-.76.09-1.07.26-.31.17-.56.43-.74.76-.18.33-.27.74-.27,1.21Z"/>
      <path class="cls-1" d="M116.82,85.55c-.52,0-.99-.1-1.41-.3-.42-.2-.76-.48-1.01-.86-.25-.37-.37-.83-.37-1.36,0-.47.09-.85.28-1.14s.43-.52.74-.69c.31-.17.65-.29,1.03-.38.37-.08.75-.15,1.13-.2.5-.06.9-.11,1.21-.15.31-.03.54-.09.68-.17.14-.08.21-.22.21-.43v-.04c0-.53-.14-.93-.43-1.23-.29-.29-.72-.44-1.3-.44s-1.07.13-1.41.39c-.34.26-.58.54-.72.84l-1.19-.43c.21-.5.5-.89.85-1.16s.75-.47,1.17-.59.84-.17,1.25-.17c.26,0,.56.03.91.09.34.06.67.19,1,.38.32.19.59.48.8.87.21.39.32.91.32,1.56v5.39h-1.26v-1.11h-.06c-.08.18-.23.37-.43.57-.2.2-.46.38-.79.52-.33.14-.73.21-1.21.21ZM117.01,84.42c.5,0,.92-.1,1.26-.29s.6-.45.78-.76.26-.63.26-.97v-1.15c-.05.06-.17.12-.35.17-.18.05-.39.1-.62.13-.23.04-.46.07-.68.1-.22.03-.4.05-.53.07-.33.04-.63.11-.91.21-.28.09-.51.23-.68.42-.17.19-.26.44-.26.76,0,.44.16.77.49.99.32.22.74.33,1.24.33Z"/>
    </g>
  </g>
</svg>