<?xml version="1.0" encoding="UTF-8"?>
<svg xmlns="http://www.w3.org/2000/svg" viewBox="0 0 160 160">
  <defs>
    <style>
      .cls-1 {
        fill: #fff;
      }
    </style>
  </defs>
  <g id="Camada_2">
    <circle cx="80" cy="79.88" r="80"/>
  </g>
  <g id="Camada_1">
    <g>
      <path class="cls-1" d="M60.27,75.01h-3.37v-10.91h3.52c1.06,0,1.96.22,2.72.65.75.44,1.33,1.06,1.73,1.87.4.81.6,1.78.6,2.91s-.2,2.11-.61,2.93-.99,1.45-1.77,1.89c-.77.44-1.72.66-2.82.66ZM58.22,73.83h1.96c.9,0,1.65-.17,2.24-.52.59-.35,1.04-.84,1.33-1.49.29-.64.44-1.41.44-2.3s-.14-1.64-.43-2.28c-.29-.64-.72-1.13-1.29-1.47s-1.28-.51-2.14-.51h-2.11v8.57Z"/>
      <path class="cls-1" d="M70.94,75.18c-.79,0-1.47-.17-2.04-.52s-1.01-.84-1.32-1.47c-.31-.63-.46-1.37-.46-2.2s.15-1.58.46-2.22c.31-.64.74-1.14,1.29-1.5.55-.36,1.2-.54,1.94-.54.43,0,.85.07,1.26.21.42.14.79.37,1.13.69.34.32.61.74.81,1.26.2.52.3,1.17.3,1.93v.53h-6.31v-1.09h5.03c0-.46-.09-.87-.27-1.24-.18-.36-.44-.65-.78-.86-.34-.21-.73-.31-1.19-.31-.5,0-.93.12-1.3.37-.36.25-.64.57-.84.96-.2.39-.29.82-.29,1.27v.72c0,.62.11,1.14.32,1.57s.51.75.9.97c.38.22.83.33,1.34.33.33,0,.63-.05.9-.14.27-.09.5-.24.7-.43.2-.19.35-.43.45-.71l1.21.34c-.13.41-.34.77-.64,1.08s-.67.55-1.12.72c-.44.17-.94.26-1.5.26Z"/>
      <path class="cls-1" d="M82.05,68.66l-1.13.32c-.07-.19-.18-.37-.31-.55-.14-.18-.32-.33-.56-.45s-.53-.18-.9-.18c-.5,0-.92.11-1.25.34s-.5.52-.5.87c0,.31.11.56.34.74.23.18.58.33,1.07.45l1.21.3c.73.18,1.28.45,1.64.81s.54.83.54,1.4c0,.47-.13.89-.4,1.26-.27.37-.64.66-1.12.87s-1.04.32-1.67.32c-.83,0-1.52-.18-2.07-.54s-.89-.89-1.04-1.59l1.19-.3c.11.44.33.77.65.99.32.22.73.33,1.25.33.59,0,1.05-.12,1.4-.38.35-.25.52-.55.52-.9,0-.28-.1-.52-.3-.72s-.5-.34-.92-.43l-1.36-.32c-.75-.18-1.3-.45-1.65-.83-.35-.38-.52-.84-.52-1.41,0-.46.13-.87.39-1.22.26-.36.62-.63,1.07-.84.45-.2.97-.3,1.54-.3.81,0,1.45.18,1.91.53s.79.82.99,1.41Z"/>
      <path class="cls-1" d="M84.73,65.46c-.24,0-.46-.08-.63-.25s-.26-.37-.26-.6.09-.43.26-.6.39-.25.63-.25.46.08.63.25.26.37.26.6-.09.44-.26.6-.39.25-.63.25ZM84.09,75.01v-8.18h1.26v8.18h-1.26Z"/>
      <path class="cls-1" d="M90.95,78.24c-.61,0-1.13-.08-1.57-.23-.44-.15-.8-.36-1.09-.61-.29-.25-.52-.52-.69-.8l1-.7c.11.15.26.32.43.51.17.19.41.36.72.51.3.14.7.22,1.2.22.66,0,1.21-.16,1.64-.48.43-.32.64-.82.64-1.5v-1.66h-.11c-.09.15-.22.33-.39.55-.17.22-.41.41-.72.58-.31.17-.74.25-1.27.25-.66,0-1.25-.16-1.78-.47-.52-.31-.94-.77-1.24-1.36-.3-.6-.46-1.32-.46-2.17s.15-1.57.44-2.19c.29-.62.71-1.11,1.23-1.45.53-.34,1.13-.51,1.82-.51.53,0,.96.09,1.27.26s.56.38.72.6c.17.22.3.4.39.55h.13v-1.3h1.21v8.42c0,.7-.16,1.28-.48,1.72s-.74.77-1.28.97-1.13.31-1.78.31ZM90.91,73.75c.5,0,.93-.12,1.28-.35s.61-.56.79-1,.27-.95.27-1.56-.09-1.11-.27-1.56c-.18-.45-.44-.8-.79-1.06-.35-.26-.78-.38-1.29-.38s-.98.13-1.33.4c-.35.27-.62.63-.79,1.09-.18.46-.26.96-.26,1.51s.09,1.07.27,1.5c.18.44.45.78.8,1.02.35.25.79.37,1.32.37Z"/>
      <path class="cls-1" d="M98.05,70.08v4.92h-1.26v-8.18h1.21v1.28h.11c.19-.42.48-.75.87-1,.39-.25.9-.38,1.51-.38.55,0,1.04.11,1.45.34s.74.57.97,1.02c.23.46.35,1.03.35,1.73v5.2h-1.26v-5.11c0-.64-.17-1.14-.5-1.5-.33-.36-.79-.54-1.37-.54-.4,0-.76.09-1.07.26s-.56.43-.74.76-.27.74-.27,1.21Z"/>
      <path class="cls-1" d="M59.72,96.24c-.61,0-1.13-.08-1.57-.23-.44-.15-.8-.36-1.09-.61-.29-.25-.52-.52-.69-.8l1-.7c.11.15.26.32.43.51.17.19.41.36.72.51.3.14.7.22,1.2.22.66,0,1.21-.16,1.64-.48.43-.32.64-.82.64-1.5v-1.66h-.11c-.09.15-.22.33-.39.55-.17.22-.41.41-.72.58-.31.17-.74.25-1.27.25-.66,0-1.25-.16-1.78-.47-.52-.31-.94-.77-1.24-1.36-.3-.6-.46-1.32-.46-2.17s.15-1.57.44-2.19c.29-.62.71-1.11,1.23-1.45.53-.34,1.13-.51,1.82-.51.53,0,.96.09,1.27.26s.56.38.72.6c.17.22.3.4.39.55h.13v-1.3h1.21v8.42c0,.7-.16,1.28-.48,1.72s-.74.77-1.28.97-1.13.31-1.78.31ZM59.67,91.75c.5,0,.93-.12,1.28-.35s.61-.56.79-1,.27-.95.27-1.56-.09-1.11-.27-1.56c-.18-.45-.44-.8-.79-1.06-.35-.26-.78-.38-1.29-.38s-.98.13-1.33.4c-.35.27-.62.63-.79,1.09-.18.46-.26.96-.26,1.51s.09,1.07.27,1.5c.18.44.45.78.8,1.02.35.25.79.37,1.32.37Z"/>
      <path class="cls-1" d="M65.55,93.01v-8.18h1.21v1.24h.08c.15-.41.42-.73.81-.99s.83-.38,1.32-.38c.09,0,.21,0,.35,0,.14,0,.24,0,.31.02v1.28s-.14-.03-.29-.05c-.15-.02-.31-.04-.48-.04-.4,0-.75.08-1.06.25-.31.17-.56.39-.73.68-.18.29-.27.62-.27.99v5.18h-1.26Z"/>
      <path class="cls-1" d="M73.54,93.2c-.52,0-.99-.1-1.41-.3-.42-.2-.76-.48-1.01-.86-.25-.37-.37-.83-.37-1.36,0-.47.09-.85.28-1.14s.43-.52.74-.69c.31-.17.65-.29,1.03-.38.37-.08.75-.15,1.13-.2.5-.06.9-.11,1.21-.15.31-.03.54-.09.68-.17.14-.08.22-.22.22-.43v-.04c0-.53-.14-.93-.43-1.23-.29-.29-.72-.44-1.3-.44s-1.07.13-1.41.39-.58.54-.72.84l-1.19-.43c.21-.5.5-.88.85-1.16.36-.28.75-.47,1.17-.59.42-.11.84-.17,1.25-.17.26,0,.57.03.91.09s.67.19,1,.38.59.48.8.87c.21.39.32.91.32,1.56v5.39h-1.26v-1.11h-.06c-.09.18-.23.37-.43.57s-.46.38-.79.52c-.33.14-.73.21-1.21.21ZM73.74,92.07c.5,0,.92-.1,1.26-.29s.6-.45.78-.76c.18-.31.26-.63.26-.97v-1.15c-.05.06-.17.12-.35.17s-.39.1-.62.13c-.23.04-.46.07-.68.1-.22.03-.4.05-.53.07-.33.04-.63.11-.91.21s-.51.23-.68.42c-.17.19-.26.44-.26.76,0,.44.16.77.49.99.32.22.74.33,1.24.33ZM73.78,83.72l1.3-2.47h1.47l-1.66,2.47h-1.11Z"/>
      <path class="cls-1" d="M83.24,84.82v1.06h-4.41v-1.06h4.41ZM80.15,93.01v-9.31c0-.47.11-.86.33-1.17s.51-.55.86-.7.72-.23,1.11-.23c.31,0,.56.03.76.08s.34.1.44.14l-.36,1.09c-.06-.02-.15-.05-.26-.08-.11-.03-.26-.05-.44-.05-.42,0-.71.11-.9.31-.18.21-.27.52-.27.92v9.01h-1.26Z"/>
      <path class="cls-1" d="M85.65,83.46c-.24,0-.46-.08-.63-.25s-.26-.37-.26-.6.09-.43.26-.6.39-.25.63-.25.46.08.63.25.26.37.26.6-.09.44-.26.6-.39.25-.63.25ZM85.01,93.01v-8.18h1.26v8.18h-1.26Z"/>
      <path class="cls-1" d="M91.89,93.18c-.77,0-1.43-.18-1.98-.54-.55-.36-.98-.86-1.28-1.5s-.45-1.36-.45-2.18.15-1.56.46-2.2c.31-.64.74-1.14,1.29-1.5.55-.36,1.2-.54,1.94-.54.58,0,1.09.11,1.56.32.46.21.84.51,1.13.89s.48.83.55,1.34h-1.26c-.1-.37-.31-.7-.64-.99-.33-.29-.77-.43-1.32-.43-.49,0-.92.13-1.29.38s-.65.61-.86,1.07c-.2.46-.31,1-.31,1.62s.1,1.18.3,1.65.48.83.85,1.09c.37.26.8.39,1.3.39.33,0,.62-.06.89-.17.27-.11.49-.28.68-.49.18-.21.32-.47.39-.77h1.26c-.07.48-.25.92-.52,1.3-.28.38-.65.69-1.1.92-.46.23-.99.34-1.59.34Z"/>
      <path class="cls-1" d="M100.26,93.18c-.74,0-1.39-.18-1.94-.53s-.99-.84-1.3-1.48c-.31-.63-.47-1.37-.47-2.22s.16-1.6.47-2.23c.31-.64.74-1.13,1.3-1.48s1.2-.53,1.94-.53,1.39.18,1.94.53.99.85,1.3,1.48c.31.64.47,1.38.47,2.23s-.16,1.58-.47,2.22c-.31.63-.74,1.12-1.3,1.48s-1.2.53-1.94.53ZM100.26,92.05c.56,0,1.02-.14,1.38-.43.36-.29.63-.67.8-1.13.17-.47.26-.98.26-1.52s-.09-1.06-.26-1.53c-.17-.47-.44-.85-.8-1.15s-.82-.44-1.38-.44-1.02.15-1.39.44-.63.67-.8,1.15-.26.98-.26,1.53.09,1.05.26,1.52.44.85.8,1.13c.36.29.82.43,1.39.43Z"/>
    </g>
  </g>
</svg>