<?xml version="1.0" encoding="UTF-8"?>
<svg xmlns="http://www.w3.org/2000/svg" viewBox="0 0 160 160">
  <defs>
    <style>
      .cls-1 {
        fill: #fff;
      }
    </style>
  </defs>
  <g id="Camada_2">
    <circle cx="80" cy="79.88" r="80"/>
  </g>
  <g id="Camada_1">
    <g>
      <path class="cls-1" d="M44.83,65.62v10.91h-1.32v-10.91h1.32Z"/>
      <path class="cls-1" d="M50.39,76.7c-.68,0-1.28-.17-1.81-.52-.52-.35-.93-.84-1.23-1.47-.29-.63-.44-1.38-.44-2.25s.15-1.6.44-2.24c.29-.63.71-1.12,1.23-1.46.53-.34,1.13-.52,1.82-.52.53,0,.95.09,1.27.26s.55.38.71.6c.17.22.29.4.39.55h.11v-4.03h1.26v10.91h-1.21v-1.26h-.15c-.09.15-.22.34-.39.56-.17.23-.41.43-.73.6s-.74.26-1.26.26ZM50.56,75.57c.5,0,.93-.13,1.28-.4s.61-.63.79-1.1c.18-.47.27-1.01.27-1.63s-.09-1.15-.27-1.61c-.18-.46-.44-.82-.79-1.08-.35-.26-.78-.39-1.29-.39s-.98.14-1.33.41c-.35.27-.62.64-.79,1.1s-.26.98-.26,1.56.09,1.11.27,1.58c.18.47.45.85.8,1.13.35.28.79.42,1.32.42Z"/>
      <path class="cls-1" d="M60.05,76.7c-.79,0-1.47-.17-2.04-.52-.57-.35-1.01-.84-1.32-1.47-.31-.63-.46-1.36-.46-2.2s.15-1.58.46-2.22c.31-.64.74-1.14,1.29-1.5.55-.36,1.2-.54,1.94-.54.43,0,.85.07,1.26.21.42.14.79.37,1.13.69s.61.74.81,1.26c.2.52.3,1.16.3,1.93v.53h-6.31v-1.09h5.03c0-.46-.09-.87-.27-1.24-.18-.36-.44-.65-.78-.86-.34-.21-.73-.31-1.19-.31-.5,0-.93.12-1.3.37-.36.25-.64.57-.84.96-.2.39-.29.82-.29,1.27v.72c0,.62.11,1.14.32,1.57.21.43.51.75.9.98.38.22.83.33,1.34.33.33,0,.63-.05.9-.14.27-.09.5-.24.7-.43s.35-.43.45-.71l1.21.34c-.13.41-.34.77-.64,1.08-.3.31-.67.55-1.12.72s-.94.26-1.5.26Z"/>
      <path class="cls-1" d="M66.61,71.61v4.92h-1.26v-8.18h1.21v1.28h.11c.19-.42.48-.75.87-1,.39-.25.9-.38,1.51-.38.55,0,1.04.11,1.45.34s.74.57.97,1.02c.23.46.35,1.03.35,1.73v5.2h-1.26v-5.11c0-.64-.17-1.14-.5-1.5-.33-.36-.79-.54-1.37-.54-.4,0-.76.09-1.07.26-.31.17-.56.43-.74.76-.18.33-.27.74-.27,1.21Z"/>
      <path class="cls-1" d="M77.69,68.35v1.06h-4.24v-1.06h4.24ZM74.68,66.39h1.26v7.8c0,.35.05.62.16.8.1.18.24.29.4.35.17.06.34.09.52.09.14,0,.25,0,.34-.02s.16-.03.21-.04l.26,1.13c-.08.03-.2.06-.36.1-.15.03-.35.05-.58.05-.35,0-.7-.08-1.04-.23-.34-.15-.62-.39-.84-.7-.22-.31-.33-.71-.33-1.18v-8.14Z"/>
      <path class="cls-1" d="M80.22,66.98c-.24,0-.46-.08-.63-.25s-.26-.37-.26-.6.09-.43.26-.6.39-.25.63-.25.46.08.63.25.26.37.26.6-.09.44-.26.6-.39.25-.63.25ZM79.58,76.53v-8.18h1.26v8.18h-1.26Z"/>
      <path class="cls-1" d="M86.23,76.7c-.68,0-1.28-.17-1.81-.52-.52-.35-.93-.84-1.22-1.47-.29-.63-.44-1.38-.44-2.25s.15-1.6.44-2.24c.29-.63.71-1.12,1.23-1.46.53-.34,1.13-.52,1.82-.52.53,0,.96.09,1.27.26s.55.38.71.6c.17.22.29.4.39.55h.11v-4.03h1.26v10.91h-1.21v-1.26h-.15c-.09.15-.22.34-.39.56-.17.23-.41.43-.73.6-.32.18-.74.26-1.26.26ZM86.4,75.57c.5,0,.93-.13,1.28-.4.35-.26.61-.63.79-1.1.18-.47.27-1.01.27-1.63s-.09-1.15-.27-1.61c-.18-.46-.44-.82-.79-1.08s-.78-.39-1.29-.39-.98.14-1.33.41c-.35.27-.62.64-.79,1.1s-.26.98-.26,1.56.09,1.11.27,1.58.45.85.8,1.13.79.42,1.32.42Z"/>
      <path class="cls-1" d="M94.86,76.72c-.52,0-.99-.1-1.41-.3-.42-.2-.76-.48-1.01-.86-.25-.37-.37-.83-.37-1.36,0-.47.09-.85.28-1.14s.43-.52.74-.69c.31-.17.65-.29,1.03-.38.37-.08.75-.15,1.13-.2.5-.06.9-.11,1.21-.15.31-.03.54-.09.68-.17.14-.08.22-.22.22-.43v-.04c0-.53-.14-.93-.43-1.23-.29-.29-.72-.44-1.3-.44s-1.07.13-1.41.39-.58.54-.72.84l-1.19-.43c.21-.5.5-.89.85-1.16.36-.28.75-.47,1.17-.59.42-.11.84-.17,1.25-.17.26,0,.57.03.91.09.34.06.67.19,1,.38.32.19.59.48.8.87.21.39.32.91.32,1.56v5.39h-1.26v-1.11h-.06c-.08.18-.23.37-.43.57-.2.2-.46.38-.79.52-.33.14-.73.21-1.21.21ZM95.05,75.59c.5,0,.92-.1,1.26-.29s.6-.45.78-.76.26-.63.26-.97v-1.15c-.05.06-.17.12-.35.17-.18.05-.38.1-.62.13-.23.04-.46.07-.68.1-.22.03-.4.05-.53.07-.33.04-.63.11-.91.21-.28.09-.51.23-.68.42-.17.19-.26.44-.26.76,0,.44.16.77.49.99.33.22.74.33,1.24.33Z"/>
      <path class="cls-1" d="M104,76.7c-.68,0-1.28-.17-1.81-.52-.52-.35-.93-.84-1.23-1.47-.29-.63-.44-1.38-.44-2.25s.15-1.6.44-2.24c.29-.63.71-1.12,1.23-1.46.53-.34,1.13-.52,1.82-.52.53,0,.95.09,1.26.26s.55.38.71.6c.17.22.29.4.39.55h.11v-4.03h1.26v10.91h-1.21v-1.26h-.15c-.09.15-.22.34-.39.56-.17.23-.41.43-.73.6-.32.18-.74.26-1.26.26ZM104.17,75.57c.5,0,.93-.13,1.28-.4.35-.26.61-.63.79-1.1.18-.47.27-1.01.27-1.63s-.09-1.15-.27-1.61-.44-.82-.79-1.08c-.35-.26-.78-.39-1.29-.39s-.98.14-1.33.41c-.35.27-.62.64-.79,1.1s-.26.98-.26,1.56.09,1.11.27,1.58c.18.47.45.85.8,1.13.35.28.79.42,1.32.42Z"/>
      <path class="cls-1" d="M113.65,76.7c-.79,0-1.47-.17-2.04-.52-.57-.35-1.01-.84-1.32-1.47s-.46-1.36-.46-2.2.15-1.58.46-2.22.74-1.14,1.29-1.5,1.2-.54,1.94-.54c.43,0,.85.07,1.26.21.42.14.79.37,1.13.69s.61.74.82,1.26c.2.52.3,1.16.3,1.93v.53h-6.31v-1.09h5.03c0-.46-.09-.87-.27-1.24-.18-.36-.44-.65-.78-.86-.33-.21-.73-.31-1.18-.31-.5,0-.93.12-1.3.37-.36.25-.64.57-.84.96-.2.39-.29.82-.29,1.27v.72c0,.62.11,1.14.32,1.57.21.43.51.75.9.98.38.22.83.33,1.34.33.33,0,.63-.05.9-.14.27-.09.5-.24.7-.43s.35-.43.45-.71l1.21.34c-.13.41-.34.77-.64,1.08-.3.31-.67.55-1.12.72-.44.17-.94.26-1.5.26Z"/>
      <path class="cls-1" d="M67.6,86.35l-3.03,8.18h-1.28l-3.03-8.18h1.36l2.26,6.52h.09l2.26-6.52h1.36Z"/>
      <path class="cls-1" d="M69.9,84.98c-.24,0-.46-.08-.63-.25s-.26-.37-.26-.6.09-.43.26-.6.39-.25.63-.25.46.08.63.25.26.37.26.6-.09.43-.26.6-.39.25-.63.25ZM69.26,94.53v-8.18h1.26v8.18h-1.26Z"/>
      <path class="cls-1" d="M78.61,88.18l-1.13.32c-.07-.19-.18-.37-.31-.55-.14-.18-.32-.33-.56-.44s-.53-.18-.9-.18c-.5,0-.92.11-1.25.34-.33.23-.5.52-.5.87,0,.31.11.56.34.74.23.18.58.33,1.07.45l1.21.3c.73.18,1.28.45,1.64.81.36.36.54.83.54,1.4,0,.47-.13.89-.4,1.26s-.64.66-1.12.87c-.48.21-1.04.32-1.67.32-.83,0-1.52-.18-2.07-.54-.55-.36-.89-.89-1.04-1.59l1.19-.3c.11.44.33.77.65.99.32.22.73.33,1.25.33.59,0,1.05-.12,1.4-.38.35-.25.52-.55.52-.9,0-.28-.1-.52-.3-.72-.2-.19-.5-.34-.92-.43l-1.36-.32c-.75-.18-1.3-.45-1.65-.83-.35-.38-.52-.84-.52-1.41,0-.46.13-.87.39-1.23.26-.35.62-.63,1.07-.84.45-.2.97-.3,1.54-.3.81,0,1.45.18,1.91.53.46.36.79.82.99,1.41Z"/>
      <path class="cls-1" d="M85.82,91.18v-4.84h1.26v8.18h-1.26v-1.38h-.08c-.19.42-.49.77-.89,1.06-.41.29-.92.43-1.53.43-.51,0-.97-.11-1.36-.34-.4-.23-.71-.57-.94-1.02-.23-.46-.34-1.03-.34-1.73v-5.2h1.26v5.11c0,.6.17,1.07.5,1.43.34.36.76.53,1.29.53.31,0,.63-.08.96-.24.32-.16.6-.4.82-.73.22-.33.33-.75.33-1.26Z"/>
      <path class="cls-1" d="M91.78,94.72c-.52,0-.99-.1-1.41-.3s-.76-.48-1.01-.86c-.25-.38-.37-.83-.37-1.36,0-.47.09-.85.28-1.14s.43-.52.74-.69.65-.29,1.03-.38c.38-.08.75-.15,1.13-.2.5-.06.9-.11,1.21-.15.31-.03.54-.09.68-.17.14-.08.22-.22.22-.43v-.04c0-.53-.14-.93-.43-1.22s-.72-.44-1.3-.44-1.07.13-1.41.39-.58.54-.72.84l-1.19-.43c.21-.5.5-.89.86-1.16.36-.28.75-.47,1.17-.59.42-.11.84-.17,1.25-.17.26,0,.57.03.91.09.34.06.67.19,1,.38.32.19.59.48.8.87.21.39.32.91.32,1.55v5.39h-1.26v-1.11h-.06c-.09.18-.23.37-.43.57-.2.2-.46.38-.79.52-.33.14-.73.21-1.21.21ZM91.97,93.59c.5,0,.92-.1,1.26-.29s.6-.45.78-.76c.18-.31.26-.63.26-.97v-1.15c-.05.06-.17.12-.35.17-.18.05-.39.1-.62.13s-.46.07-.68.1c-.22.03-.39.05-.53.07-.33.04-.63.11-.91.21-.28.09-.51.23-.68.42s-.26.44-.26.76c0,.44.16.77.49.99.32.22.74.33,1.24.33Z"/>
      <path class="cls-1" d="M99.09,83.62v10.91h-1.26v-10.91h1.26Z"/>
    </g>
  </g>
</svg>