<?xml version="1.0" encoding="UTF-8"?>
<svg xmlns="http://www.w3.org/2000/svg" viewBox="0 0 160 160">
  <defs>
    <style>
      .cls-1 {
        fill: #fff;
      }
    </style>
  </defs>
  <g id="Camada_2">
    <circle cx="80" cy="79.88" r="80"/>
  </g>
  <g id="Camada_1">
    <g>
      <path class="cls-1" d="M44.78,74.35v-1.17h8.18v1.17h-3.43v9.74h-1.32v-9.74h-3.43Z"/>
      <path class="cls-1" d="M55.48,74.55c-.24,0-.46-.08-.63-.25s-.26-.37-.26-.6.09-.43.26-.6.39-.25.63-.25.46.08.63.25.26.37.26.6-.09.44-.26.6-.39.25-.63.25ZM54.84,84.09v-8.18h1.26v8.18h-1.26Z"/>
      <path class="cls-1" d="M58.39,87.16v-11.25h1.21v1.3h.15c.09-.14.22-.32.39-.55.17-.22.4-.42.71-.6s.73-.26,1.27-.26c.69,0,1.3.17,1.82.52.53.34.94.83,1.23,1.46.29.63.44,1.38.44,2.24s-.15,1.62-.44,2.25c-.29.63-.7,1.12-1.22,1.47-.52.35-1.12.52-1.81.52-.53,0-.95-.09-1.26-.26-.32-.18-.56-.38-.73-.6-.17-.22-.3-.41-.39-.56h-.11v4.33h-1.26ZM59.63,80c0,.62.09,1.16.27,1.63.18.47.45.84.79,1.1.35.26.77.4,1.28.4s.96-.14,1.32-.42c.35-.28.62-.66.8-1.13.18-.47.27-1,.27-1.58s-.09-1.09-.26-1.56-.44-.83-.79-1.1c-.35-.27-.8-.41-1.33-.41s-.94.13-1.29.39c-.35.26-.61.62-.79,1.08-.18.46-.27,1-.27,1.61Z"/>
      <path class="cls-1" d="M70.86,84.26c-.74,0-1.39-.18-1.94-.53s-.99-.84-1.3-1.48-.47-1.37-.47-2.22.16-1.6.47-2.23.74-1.13,1.3-1.48,1.2-.53,1.94-.53,1.39.18,1.94.53.99.85,1.3,1.48.47,1.38.47,2.23-.16,1.58-.47,2.22-.74,1.12-1.3,1.48-1.2.53-1.94.53ZM70.86,83.13c.56,0,1.02-.14,1.38-.43.36-.29.63-.67.8-1.13s.26-.98.26-1.52-.09-1.06-.26-1.53c-.17-.47-.44-.85-.8-1.15-.36-.29-.82-.44-1.38-.44s-1.02.15-1.38.44c-.36.29-.63.67-.8,1.15-.17.47-.26.98-.26,1.53s.09,1.05.26,1.52.44.85.8,1.13c.36.29.82.43,1.38.43Z"/>
      <path class="cls-1" d="M79.79,87.33c-.61,0-1.13-.08-1.57-.23-.44-.15-.8-.36-1.09-.61-.29-.25-.52-.52-.69-.8l1-.7c.11.15.26.32.43.51.17.19.41.36.72.51s.7.22,1.2.22c.66,0,1.21-.16,1.63-.48s.64-.82.64-1.5v-1.66h-.11c-.09.15-.22.33-.39.55-.17.22-.41.41-.72.58-.31.17-.74.25-1.27.25-.66,0-1.25-.16-1.78-.47-.52-.31-.94-.77-1.24-1.36-.3-.6-.46-1.32-.46-2.17s.15-1.57.44-2.19c.29-.62.71-1.11,1.23-1.45s1.13-.51,1.82-.51c.53,0,.96.09,1.27.26s.56.38.72.6c.17.22.3.4.39.55h.13v-1.3h1.21v8.42c0,.7-.16,1.28-.48,1.72-.32.44-.74.77-1.28.98-.53.21-1.13.31-1.78.31ZM79.74,82.83c.5,0,.93-.12,1.28-.35.35-.23.61-.56.79-1,.18-.43.27-.95.27-1.55s-.09-1.11-.27-1.56c-.18-.45-.44-.8-.79-1.06-.35-.26-.78-.38-1.29-.38s-.98.14-1.33.4c-.35.27-.62.63-.79,1.09s-.26.96-.26,1.51.09,1.07.27,1.5c.18.43.45.78.8,1.02s.79.37,1.32.37Z"/>
      <path class="cls-1" d="M85.62,84.09v-8.18h1.21v1.24h.08c.15-.41.42-.73.81-.99.39-.25.83-.38,1.32-.38.09,0,.21,0,.35,0s.24,0,.31.02v1.28s-.14-.03-.29-.05c-.15-.02-.31-.03-.48-.03-.4,0-.75.08-1.06.25-.31.17-.56.39-.73.68-.18.29-.27.62-.27.99v5.18h-1.26Z"/>
      <path class="cls-1" d="M93.61,84.28c-.52,0-.99-.1-1.41-.3s-.76-.48-1.01-.86c-.25-.38-.37-.83-.37-1.36,0-.47.09-.85.28-1.14.18-.29.43-.52.74-.69s.65-.29,1.03-.38.75-.15,1.13-.2c.5-.06.9-.11,1.21-.15s.54-.09.68-.17c.14-.08.22-.22.22-.43v-.04c0-.53-.14-.93-.43-1.23-.29-.29-.72-.44-1.3-.44s-1.07.13-1.41.39-.58.54-.72.84l-1.19-.43c.21-.5.5-.89.86-1.16.36-.28.75-.47,1.17-.59.42-.11.84-.17,1.25-.17.26,0,.57.03.91.09.34.06.67.19,1,.38.32.19.59.48.8.87.21.39.32.91.32,1.56v5.39h-1.26v-1.11h-.06c-.09.18-.23.37-.43.57-.2.2-.46.38-.79.52-.33.14-.73.21-1.21.21ZM93.81,83.15c.5,0,.92-.1,1.26-.29s.6-.45.78-.76c.18-.31.26-.63.26-.97v-1.15c-.05.06-.17.12-.35.17-.18.05-.39.1-.62.13-.23.04-.46.07-.68.1-.22.03-.39.05-.53.07-.33.04-.63.11-.91.2-.28.09-.51.23-.68.42s-.26.44-.26.76c0,.44.16.77.49.99.32.22.74.33,1.24.33Z"/>
      <path class="cls-1" d="M103.31,75.91v1.06h-4.41v-1.06h4.41ZM100.22,84.09v-9.31c0-.47.11-.86.33-1.17.22-.31.51-.55.86-.7s.72-.23,1.11-.23c.31,0,.56.02.76.07s.34.1.44.14l-.36,1.09c-.06-.02-.15-.05-.26-.08-.11-.03-.26-.05-.44-.05-.42,0-.71.1-.9.31-.18.21-.27.52-.27.92v9.01h-1.26Z"/>
      <path class="cls-1" d="M105.72,74.55c-.25,0-.46-.08-.63-.25s-.26-.37-.26-.6.09-.43.26-.6.39-.25.63-.25.46.08.63.25.26.37.26.6-.09.44-.26.6-.39.25-.63.25ZM105.08,84.09v-8.18h1.26v8.18h-1.26Z"/>
      <path class="cls-1" d="M111.04,84.28c-.52,0-.99-.1-1.41-.3-.42-.2-.76-.48-1.01-.86-.25-.38-.37-.83-.37-1.36,0-.47.09-.85.28-1.14.18-.29.43-.52.74-.69.31-.17.65-.29,1.03-.38.37-.08.75-.15,1.13-.2.5-.06.9-.11,1.21-.15.31-.03.54-.09.68-.17.14-.08.22-.22.22-.43v-.04c0-.53-.14-.93-.43-1.23-.29-.29-.72-.44-1.3-.44s-1.07.13-1.41.39-.58.54-.72.84l-1.19-.43c.21-.5.5-.89.85-1.16.36-.28.75-.47,1.17-.59.42-.11.84-.17,1.25-.17.26,0,.57.03.91.09.34.06.67.19,1,.38.32.19.59.48.8.87.21.39.32.91.32,1.56v5.39h-1.26v-1.11h-.06c-.08.18-.23.37-.43.57-.2.2-.46.38-.79.52-.33.14-.73.21-1.21.21ZM111.24,83.15c.5,0,.92-.1,1.26-.29s.6-.45.78-.76c.18-.31.26-.63.26-.97v-1.15c-.05.06-.17.12-.35.17-.18.05-.38.1-.62.13-.23.04-.46.07-.68.1-.22.03-.4.05-.53.07-.33.04-.63.11-.91.2-.28.09-.51.23-.68.42-.17.19-.26.44-.26.76,0,.44.16.77.49.99.33.22.74.33,1.24.33Z"/>
    </g>
  </g>
</svg>