<?xml version="1.0" encoding="UTF-8"?>
<svg xmlns="http://www.w3.org/2000/svg" viewBox="0 0 160 160">
  <defs>
    <style>
      .cls-1 {
        fill: #fff;
      }
    </style>
  </defs>
  <g id="Camada_2">
    <circle cx="80" cy="79.88" r="80"/>
  </g>
  <g id="Camada_1">
    <g>
      <path class="cls-1" d="M30.62,73.18l3.24,9.18h.13l3.24-9.18h1.38l-4.01,10.91h-1.36l-4.01-10.91h1.39Z"/>
      <path class="cls-1" d="M40.79,74.55c-.24,0-.46-.08-.63-.25s-.26-.37-.26-.6.09-.43.26-.6.39-.25.63-.25.46.08.63.25.26.37.26.6-.09.43-.26.6-.39.25-.63.25ZM40.15,84.09v-8.18h1.26v8.18h-1.26Z"/>
      <path class="cls-1" d="M46.79,84.26c-.68,0-1.28-.17-1.81-.52-.52-.35-.93-.84-1.23-1.47-.29-.63-.44-1.38-.44-2.25s.15-1.61.44-2.24c.29-.63.71-1.12,1.23-1.46.53-.34,1.13-.52,1.82-.52.53,0,.95.09,1.27.26s.55.38.71.6.29.4.39.55h.11v-4.03h1.26v10.91h-1.21v-1.26h-.15c-.09.15-.22.34-.39.56-.17.23-.41.43-.73.6s-.74.26-1.26.26ZM46.96,83.13c.5,0,.93-.13,1.28-.4s.61-.63.79-1.1.27-1.01.27-1.63-.09-1.15-.27-1.61c-.18-.46-.44-.82-.79-1.08-.35-.26-.78-.39-1.29-.39s-.98.14-1.33.41c-.35.27-.62.64-.79,1.1-.18.46-.26.98-.26,1.56s.09,1.11.27,1.58c.18.47.45.85.8,1.13.35.28.79.42,1.32.42Z"/>
      <path class="cls-1" d="M56.45,84.26c-.79,0-1.47-.17-2.04-.52-.57-.35-1.01-.84-1.32-1.47-.31-.63-.46-1.36-.46-2.2s.15-1.58.46-2.22c.31-.64.74-1.14,1.29-1.5.55-.36,1.2-.54,1.94-.54.43,0,.85.07,1.26.21.42.14.79.37,1.13.69.34.32.61.74.81,1.26.2.52.3,1.16.3,1.93v.53h-6.31v-1.09h5.03c0-.46-.09-.87-.27-1.24-.18-.36-.44-.65-.78-.86-.34-.21-.73-.31-1.19-.31-.5,0-.93.12-1.3.37-.36.25-.64.57-.84.96s-.29.82-.29,1.27v.72c0,.62.11,1.14.32,1.57.21.43.51.75.9.98.38.22.83.33,1.34.33.33,0,.63-.05.9-.14s.5-.24.7-.43c.2-.19.35-.43.45-.71l1.21.34c-.13.41-.34.77-.64,1.08-.3.31-.67.55-1.12.72-.44.17-.94.26-1.5.26Z"/>
      <path class="cls-1" d="M65.07,84.26c-.74,0-1.39-.18-1.94-.53s-.99-.84-1.3-1.48c-.31-.63-.47-1.37-.47-2.22s.16-1.6.47-2.23c.31-.64.74-1.13,1.3-1.48s1.2-.53,1.94-.53,1.39.18,1.94.53.99.84,1.3,1.48c.31.64.47,1.38.47,2.23s-.16,1.58-.47,2.22c-.31.63-.74,1.12-1.3,1.48s-1.2.53-1.94.53ZM65.07,83.13c.56,0,1.02-.14,1.38-.43.36-.29.63-.67.8-1.13.17-.47.26-.98.26-1.52s-.09-1.06-.26-1.53c-.17-.47-.44-.85-.8-1.14-.36-.29-.82-.44-1.38-.44s-1.02.15-1.39.44c-.36.29-.63.67-.8,1.14-.17.47-.26.98-.26,1.53s.09,1.05.26,1.52.44.85.8,1.13c.36.29.82.43,1.39.43Z"/>
      <path class="cls-1" d="M74,87.33c-.61,0-1.13-.08-1.57-.23-.44-.15-.8-.36-1.09-.61-.29-.25-.52-.52-.69-.8l1-.7c.11.15.26.32.43.51.17.19.41.36.72.51s.7.22,1.2.22c.66,0,1.21-.16,1.64-.48s.64-.82.64-1.5v-1.66h-.11c-.09.15-.22.33-.39.55-.17.22-.41.41-.72.58-.31.17-.74.25-1.27.25-.66,0-1.25-.16-1.78-.47-.52-.31-.94-.77-1.24-1.36-.3-.6-.46-1.32-.46-2.17s.15-1.57.44-2.19c.29-.62.71-1.11,1.23-1.45.53-.34,1.13-.51,1.82-.51.53,0,.96.09,1.27.26s.56.38.72.6c.17.22.3.4.39.55h.13v-1.3h1.21v8.42c0,.7-.16,1.28-.48,1.72-.32.44-.74.77-1.28.98-.53.21-1.13.31-1.78.31ZM73.96,82.83c.5,0,.93-.12,1.28-.35.35-.23.61-.56.79-1,.18-.43.27-.95.27-1.55s-.09-1.11-.27-1.56c-.18-.45-.44-.8-.79-1.06-.35-.26-.78-.38-1.29-.38s-.98.14-1.33.41c-.35.27-.62.63-.79,1.09-.18.45-.26.96-.26,1.51s.09,1.07.27,1.5c.18.43.45.78.8,1.02.35.25.79.37,1.32.37Z"/>
      <path class="cls-1" d="M79.84,84.09v-8.18h1.21v1.24h.08c.15-.41.42-.73.81-.99.39-.25.83-.38,1.32-.38.09,0,.21,0,.35,0,.14,0,.24,0,.31.02v1.28s-.14-.03-.29-.05c-.15-.02-.31-.03-.48-.03-.4,0-.75.08-1.06.25-.31.17-.56.39-.73.68-.18.29-.27.62-.27.99v5.18h-1.26Z"/>
      <path class="cls-1" d="M87.83,84.28c-.52,0-.99-.1-1.41-.3-.42-.2-.76-.48-1.01-.86-.25-.38-.37-.83-.37-1.36,0-.47.09-.85.28-1.14s.43-.52.74-.69c.31-.17.65-.29,1.03-.38.37-.08.75-.15,1.13-.2.5-.06.9-.11,1.21-.15.31-.03.54-.09.68-.17.14-.08.22-.22.22-.43v-.04c0-.53-.14-.93-.43-1.22-.29-.29-.72-.44-1.3-.44s-1.07.13-1.41.39-.58.54-.72.84l-1.19-.43c.21-.5.5-.89.85-1.16.36-.28.75-.47,1.17-.59.42-.11.84-.17,1.25-.17.26,0,.57.03.91.09.34.06.67.19,1,.38.32.19.59.48.8.87.21.39.32.91.32,1.55v5.39h-1.26v-1.11h-.06c-.09.18-.23.37-.43.57-.2.2-.46.38-.79.52-.33.14-.73.21-1.21.21ZM88.02,83.15c.5,0,.92-.1,1.26-.29s.6-.45.78-.76c.18-.31.26-.63.26-.97v-1.15c-.05.06-.17.12-.35.17-.18.05-.39.1-.62.13-.23.04-.46.07-.68.1-.22.03-.4.05-.53.07-.33.04-.63.11-.91.21-.28.09-.51.23-.68.42-.17.19-.26.44-.26.76,0,.44.16.77.49.99.32.22.74.33,1.24.33Z"/>
      <path class="cls-1" d="M97.52,75.91v1.07h-4.41v-1.07h4.41ZM94.44,84.09v-9.31c0-.47.11-.86.33-1.17s.51-.55.86-.7.72-.23,1.11-.23c.31,0,.56.02.76.07s.34.1.44.14l-.36,1.09c-.06-.02-.15-.05-.26-.08-.11-.03-.26-.05-.44-.05-.42,0-.71.1-.9.31-.18.21-.27.52-.27.92v9.01h-1.26Z"/>
      <path class="cls-1" d="M99.93,74.55c-.24,0-.46-.08-.63-.25s-.26-.37-.26-.6.09-.43.26-.6.39-.25.63-.25.46.08.63.25.26.37.26.6-.09.43-.26.6-.39.25-.63.25ZM99.29,84.09v-8.18h1.26v8.18h-1.26Z"/>
      <path class="cls-1" d="M108.65,77.74l-1.13.32c-.07-.19-.18-.37-.31-.55-.14-.18-.32-.33-.56-.44s-.53-.18-.9-.18c-.5,0-.92.11-1.25.34-.33.23-.5.52-.5.87,0,.31.11.56.34.74.23.18.58.33,1.07.45l1.21.3c.73.18,1.28.45,1.64.81.36.36.54.83.54,1.4,0,.47-.13.89-.4,1.26s-.64.66-1.12.87c-.48.21-1.04.32-1.67.32-.83,0-1.52-.18-2.07-.54-.55-.36-.89-.89-1.04-1.59l1.19-.3c.11.44.33.77.65.99.32.22.73.33,1.25.33.59,0,1.05-.12,1.4-.38.35-.25.52-.55.52-.9,0-.28-.1-.52-.3-.72-.2-.19-.5-.34-.92-.43l-1.36-.32c-.75-.18-1.3-.45-1.65-.83-.35-.38-.52-.84-.52-1.41,0-.46.13-.87.39-1.23.26-.35.62-.63,1.07-.84.45-.2.97-.3,1.54-.3.81,0,1.45.18,1.91.53.46.36.79.82.99,1.41Z"/>
      <path class="cls-1" d="M110.69,84.09v-8.18h1.21v1.28h.11c.17-.44.45-.78.83-1.02.38-.24.84-.37,1.37-.37s.99.12,1.35.37.64.58.84,1.02h.08c.21-.42.52-.76.94-1.01.42-.25.92-.38,1.51-.38.73,0,1.33.23,1.79.68s.7,1.17.7,2.13v5.48h-1.26v-5.48c0-.6-.17-1.04-.5-1.29-.33-.26-.72-.39-1.17-.39-.58,0-1.02.17-1.34.52-.32.35-.47.78-.47,1.31v5.33h-1.28v-5.6c0-.46-.15-.84-.45-1.13-.3-.29-.69-.43-1.17-.43-.33,0-.63.09-.91.26-.28.17-.51.41-.68.72-.17.31-.26.66-.26,1.06v5.11h-1.26Z"/>
      <path class="cls-1" d="M127.06,84.26c-.74,0-1.39-.18-1.94-.53s-.99-.84-1.3-1.48c-.31-.63-.47-1.37-.47-2.22s.16-1.6.47-2.23c.31-.64.74-1.13,1.3-1.48s1.2-.53,1.94-.53,1.39.18,1.94.53.99.84,1.3,1.48c.31.64.47,1.38.47,2.23s-.16,1.58-.47,2.22c-.31.63-.74,1.12-1.3,1.48s-1.2.53-1.94.53ZM127.06,83.13c.56,0,1.02-.14,1.38-.43.36-.29.63-.67.8-1.13.17-.47.26-.98.26-1.52s-.09-1.06-.26-1.53c-.17-.47-.44-.85-.8-1.14-.36-.29-.82-.44-1.38-.44s-1.02.15-1.39.44c-.36.29-.63.67-.8,1.14-.17.47-.26.98-.26,1.53s.09,1.05.26,1.52.44.85.8,1.13c.36.29.82.43,1.39.43Z"/>
    </g>
  </g>
</svg>