<?xml version="1.0" encoding="UTF-8"?>
<svg id="Camada_1" xmlns="http://www.w3.org/2000/svg" version="1.1" viewBox="0 0 120 23.4">
  <!-- Generator: Adobe Illustrator 30.0.0, SVG Export Plug-In . SVG Version: 2.1.1 Build 123)  -->
  <path d="M12.9,2.1v15.3h-2.3V2.1h2.3Z"/>
  <path d="M18.4,2.1v15.3h-2.2V2.1h2.2Z"/>
  <path d="M28.6,12.6v-6.7h2.2v11.5h-2.2v-2h-.1c-.3.6-.7,1.1-1.3,1.5-.6.4-1.3.6-2.2.6s-1.4-.2-2-.5c-.6-.3-1-.8-1.3-1.5-.3-.6-.5-1.4-.5-2.4v-7.3h2.2v7c0,.8.2,1.4.6,1.9.4.5,1,.7,1.7.7s.8-.1,1.2-.3.8-.5,1-.9c.3-.4.4-1,.4-1.6Z"/>
  <path d="M42.4,8.7l-2,.4c0-.3-.2-.5-.4-.7-.2-.2-.4-.4-.7-.6-.3-.1-.7-.2-1.2-.2s-1.2.1-1.6.4c-.4.3-.6.6-.6,1.1s.1.7.4.9c.3.2.7.4,1.4.6l1.8.4c1.1.2,1.8.6,2.4,1.1.5.5.8,1.2.8,2s-.2,1.3-.6,1.8c-.4.5-.9,1-1.6,1.3-.7.3-1.5.5-2.4.5s-2.3-.3-3.1-.8c-.8-.5-1.3-1.3-1.5-2.3l2.2-.3c.1.6.4,1,.8,1.3.4.3,1,.4,1.6.4s1.3-.2,1.8-.5.7-.7.7-1.1-.1-.7-.4-.9-.7-.4-1.2-.6l-1.9-.4c-1.1-.2-1.9-.6-2.4-1.2-.5-.5-.8-1.2-.8-2s.2-1.3.6-1.8c.4-.5.9-.9,1.6-1.2.7-.3,1.4-.4,2.3-.4,1.2,0,2.2.3,2.9.8.7.5,1.2,1.2,1.4,2.1Z"/>
  <path d="M50.4,5.9v1.8h-6.3v-1.8h6.3ZM45.9,3.2h2.2v10.8c0,.4,0,.8.2,1,.1.2.3.4.5.4.2,0,.4.1.7.1s.3,0,.5,0c.1,0,.2,0,.3,0l.4,1.8c-.1,0-.3.1-.6.2-.2,0-.5,0-.9,0-.6,0-1.1,0-1.6-.3-.5-.2-.9-.6-1.2-1-.3-.5-.5-1-.5-1.7V3.2Z"/>
  <path d="M52.9,17.4V5.9h2.2v1.8h.1c.2-.6.6-1.1,1.1-1.5s1.1-.5,1.8-.5.3,0,.5,0c.2,0,.3,0,.5,0v2.1c0,0-.2,0-.5,0-.2,0-.5,0-.7,0-.5,0-1,.1-1.4.3-.4.2-.7.5-1,.9-.2.4-.4.8-.4,1.3v7h-2.2Z"/>
  <path d="M64.3,17.7c-.7,0-1.4-.1-2-.4-.6-.3-1.1-.7-1.4-1.2-.3-.5-.5-1.2-.5-1.9s.1-1.2.4-1.6c.2-.4.6-.7,1-1,.4-.2.9-.4,1.4-.6.5-.1,1.1-.2,1.6-.3.7,0,1.2-.1,1.7-.2.4,0,.7-.1.9-.3.2-.1.3-.3.3-.6h0c0-.7-.2-1.2-.5-1.6s-.9-.5-1.6-.5-1.3.2-1.8.5c-.4.3-.7.7-.9,1.1l-2.1-.5c.2-.7.6-1.3,1.1-1.7.5-.4,1-.7,1.7-.9s1.3-.3,2-.3.9,0,1.5.2,1,.3,1.4.6c.4.3.8.7,1.1,1.2.3.5.4,1.2.4,2v7.6h-2.2v-1.6h0c-.1.3-.4.6-.6.9-.3.3-.7.5-1.1.7-.5.2-1,.3-1.6.3ZM64.8,15.9c.6,0,1.1-.1,1.6-.4.4-.2.8-.6,1-1,.2-.4.3-.8.3-1.3v-1.5c0,0-.2.2-.5.2-.2,0-.5.1-.8.2-.3,0-.6,0-.8.1-.3,0-.5,0-.7,0-.4,0-.8.1-1.2.3-.4.1-.6.3-.9.6s-.3.6-.3,1,.2,1,.6,1.2c.4.3.9.4,1.6.4Z"/>
  <path d="M77.7,17.6c-1.1,0-2.1-.3-2.9-.8-.8-.5-1.4-1.2-1.8-2.1-.4-.9-.6-1.9-.6-3.1s.2-2.2.7-3.1c.4-.9,1.1-1.6,1.8-2.1.8-.5,1.7-.8,2.8-.8s1.6.2,2.3.5c.7.3,1.2.8,1.7,1.3.4.6.7,1.3.7,2h-2.2c-.1-.5-.4-1-.8-1.4-.4-.4-1-.6-1.7-.6s-1.2.2-1.6.5-.8.8-1.1,1.4c-.3.6-.4,1.3-.4,2.1s.1,1.6.4,2.2c.3.6.6,1.1,1.1,1.4s1,.5,1.6.5.8,0,1.2-.2c.3-.2.6-.4.9-.7.2-.3.4-.6.5-1.1h2.2c0,.7-.3,1.4-.7,2s-.9,1-1.6,1.4c-.7.3-1.5.5-2.4.5ZM76.9,17.3h1.5v.6c.3,0,.7.2,1,.5.3.3.5.7.5,1.3,0,.7-.3,1.2-.9,1.6-.6.4-1.4.6-2.5.6v-1.2c.5,0,.9,0,1.2-.2.3-.1.5-.4.5-.7s-.1-.6-.4-.7c-.3-.1-.6-.2-1.2-.3l.3-1.5Z"/>
  <path d="M88.2,17.7c-.7,0-1.4-.1-2-.4-.6-.3-1.1-.7-1.4-1.2-.3-.5-.5-1.2-.5-1.9s.1-1.2.4-1.6c.2-.4.6-.7,1-1,.4-.2.9-.4,1.4-.6.5-.1,1.1-.2,1.6-.3.7,0,1.2-.1,1.7-.2.4,0,.7-.1.9-.3.2-.1.3-.3.3-.6h0c0-.7-.2-1.2-.5-1.6s-.9-.5-1.6-.5-1.3.2-1.8.5c-.4.3-.7.7-.9,1.1l-2.1-.5c.2-.7.6-1.3,1.1-1.7.5-.4,1-.7,1.7-.9.6-.2,1.3-.3,2-.3s.9,0,1.5.2c.5.1,1,.3,1.4.6.4.3.8.7,1.1,1.2.3.5.4,1.2.4,2v7.6h-2.2v-1.6h0c-.1.3-.4.6-.6.9-.3.3-.7.5-1.1.7-.5.2-1,.3-1.6.3ZM87.3,4.6h-1.5c0-.9.2-1.5.7-2,.4-.5,1-.7,1.7-.7s.6,0,.8.2c.2.1.4.2.6.4.2.1.4.2.6.4.2.1.4.2.7.2s.5-.1.7-.3.3-.5.3-.8h1.5c0,.9-.2,1.6-.7,2.1-.4.5-1,.7-1.6.7-.4,0-.6,0-.9-.2-.2-.1-.4-.2-.6-.4-.2-.1-.4-.2-.6-.4-.2-.1-.4-.2-.7-.2s-.5.1-.7.3c-.2.2-.3.5-.3.8ZM88.7,15.9c.6,0,1.1-.1,1.6-.4.4-.2.8-.6,1-1s.3-.8.3-1.3v-1.5c0,0-.2.2-.5.2-.2,0-.5.1-.8.2-.3,0-.6,0-.8.1-.3,0-.5,0-.7,0-.4,0-.8.1-1.2.3-.4.1-.6.3-.9.6s-.3.6-.3,1,.2,1,.6,1.2c.4.3.9.4,1.6.4Z"/>
  <path d="M101.6,17.6c-1.1,0-2-.2-2.8-.7-.8-.5-1.4-1.2-1.9-2.1-.4-.9-.7-1.9-.7-3.1s.2-2.2.7-3.1c.4-.9,1.1-1.6,1.9-2.1.8-.5,1.7-.7,2.8-.7s2,.2,2.8.7c.8.5,1.4,1.2,1.9,2.1.4.9.7,1.9.7,3.1s-.2,2.2-.7,3.1c-.4.9-1.1,1.6-1.9,2.1-.8.5-1.7.7-2.8.7ZM101.6,15.8c.7,0,1.3-.2,1.7-.6.5-.4.8-.9,1-1.5.2-.6.3-1.3.3-2s-.1-1.4-.3-2c-.2-.6-.6-1.1-1-1.5-.5-.4-1-.6-1.7-.6s-1.3.2-1.7.6c-.5.4-.8.9-1,1.5-.2.6-.3,1.3-.3,2s.1,1.4.3,2c.2.6.6,1.1,1,1.5s1,.6,1.7.6Z"/>
</svg>