<?xml version="1.0" encoding="UTF-8"?>
<svg xmlns="http://www.w3.org/2000/svg" viewBox="0 0 160 160">
  <defs>
    <style>
      .cls-1 {
        fill: #fff;
      }
    </style>
  </defs>
  <g id="Camada_2">
    <circle cx="80" cy="79.88" r="80"/>
  </g>
  <g id="Camada_1">
    <g>
      <path class="cls-1" d="M82.77,56.45h1.32v7.22c0,.75-.17,1.41-.52,1.99-.35.58-.84,1.04-1.48,1.38-.64.33-1.38.5-2.24.5s-1.6-.17-2.24-.5c-.64-.34-1.13-.8-1.48-1.38-.35-.58-.53-1.25-.53-1.99v-7.22h1.32v7.12c0,.53.12,1.01.35,1.42.23.41.57.74,1,.97.44.24.96.36,1.56.36s1.13-.12,1.57-.36c.44-.24.77-.56,1-.97.23-.41.35-.89.35-1.42v-7.12Z"/>
      <path class="cls-1" d="M88.05,56.45v10.91h-1.32v-10.91h1.32Z"/>
      <path class="cls-1" d="M48.86,85.36h-3.37v-10.91h3.52c1.06,0,1.96.22,2.72.65s1.33,1.06,1.73,1.87c.4.81.6,1.78.6,2.91s-.2,2.11-.61,2.93c-.41.82-1,1.45-1.77,1.89-.77.44-1.72.66-2.82.66ZM46.81,84.19h1.96c.9,0,1.65-.17,2.24-.52s1.04-.84,1.33-1.49.44-1.41.44-2.3-.14-1.64-.43-2.28c-.29-.64-.72-1.13-1.29-1.47-.57-.34-1.28-.51-2.14-.51h-2.11v8.56Z"/>
      <path class="cls-1" d="M59.54,85.53c-.79,0-1.47-.17-2.04-.52-.57-.35-1.01-.84-1.32-1.47-.31-.63-.46-1.36-.46-2.2s.15-1.58.46-2.22.74-1.14,1.29-1.5,1.2-.54,1.94-.54c.43,0,.85.07,1.26.21.42.14.79.37,1.13.69s.61.74.82,1.26c.2.52.3,1.16.3,1.93v.53h-6.31v-1.09h5.03c0-.46-.09-.87-.27-1.24-.18-.36-.44-.65-.78-.86-.33-.21-.73-.31-1.18-.31-.5,0-.93.12-1.3.37-.36.25-.64.57-.84.96-.2.39-.29.82-.29,1.27v.72c0,.62.11,1.14.32,1.57s.51.75.9.97c.38.22.83.33,1.34.33.33,0,.63-.05.9-.14.27-.09.5-.24.7-.43s.35-.43.45-.71l1.21.34c-.13.41-.34.77-.64,1.08-.3.31-.67.55-1.12.72-.44.17-.94.26-1.5.26Z"/>
      <path class="cls-1" d="M70.64,79.01l-1.13.32c-.07-.19-.18-.37-.31-.55-.14-.18-.32-.33-.56-.45s-.54-.18-.9-.18c-.5,0-.92.11-1.25.34-.33.23-.5.52-.5.87,0,.31.11.56.34.74.23.18.58.33,1.07.45l1.21.3c.73.18,1.28.45,1.64.81.36.37.54.83.54,1.4,0,.47-.13.89-.4,1.26-.27.37-.64.66-1.12.87s-1.04.32-1.67.32c-.83,0-1.53-.18-2.07-.54-.55-.36-.89-.89-1.04-1.59l1.19-.3c.11.44.33.77.65.99.32.22.73.33,1.25.33.59,0,1.05-.12,1.4-.38s.52-.55.52-.9c0-.29-.1-.52-.3-.72-.2-.19-.5-.34-.92-.43l-1.36-.32c-.75-.18-1.3-.45-1.65-.83-.35-.38-.53-.84-.53-1.41,0-.46.13-.87.39-1.23.26-.35.62-.63,1.07-.84.45-.2.97-.3,1.54-.3.81,0,1.45.18,1.91.53.46.36.79.82.99,1.41Z"/>
      <path class="cls-1" d="M73.32,75.81c-.25,0-.46-.08-.63-.25-.18-.17-.26-.37-.26-.6s.09-.43.26-.6.39-.25.63-.25.46.08.63.25.26.37.26.6-.09.43-.26.6c-.18.17-.39.25-.63.25ZM72.68,85.36v-8.18h1.26v8.18h-1.26Z"/>
      <path class="cls-1" d="M79.54,88.6c-.61,0-1.13-.08-1.57-.23s-.8-.36-1.09-.61c-.29-.25-.52-.52-.69-.8l1-.7c.11.15.26.32.43.51.17.19.41.36.72.51.3.14.7.21,1.2.21.66,0,1.21-.16,1.63-.48.43-.32.64-.82.64-1.5v-1.66h-.11c-.09.15-.22.33-.39.55-.17.22-.41.41-.72.58-.31.17-.74.25-1.27.25-.66,0-1.25-.16-1.78-.47-.52-.31-.94-.77-1.24-1.36-.3-.6-.46-1.32-.46-2.17s.15-1.57.44-2.19c.29-.62.71-1.11,1.23-1.45.53-.34,1.13-.51,1.82-.51.53,0,.96.09,1.27.26s.56.38.72.6c.17.22.3.4.39.55h.13v-1.3h1.21v8.42c0,.7-.16,1.28-.48,1.72-.32.44-.74.77-1.28.97-.53.21-1.13.31-1.78.31ZM79.5,84.1c.5,0,.93-.12,1.28-.35.35-.23.61-.56.79-1,.18-.43.27-.95.27-1.55s-.09-1.11-.27-1.56c-.18-.45-.44-.8-.79-1.06s-.78-.38-1.29-.38-.98.13-1.33.4-.62.63-.79,1.09-.26.96-.26,1.51.09,1.07.27,1.5.45.78.8,1.02c.35.25.79.37,1.32.37Z"/>
      <path class="cls-1" d="M86.64,80.44v4.92h-1.26v-8.18h1.21v1.28h.11c.19-.42.48-.75.87-1,.39-.25.9-.38,1.51-.38.55,0,1.04.11,1.45.34.42.22.74.57.97,1.02s.35,1.03.35,1.73v5.2h-1.26v-5.11c0-.64-.17-1.14-.5-1.5-.33-.36-.79-.54-1.38-.54-.4,0-.76.09-1.07.26-.31.17-.56.43-.74.76-.18.33-.27.74-.27,1.21Z"/>
      <path class="cls-1" d="M101.47,85.53c-.68,0-1.28-.17-1.81-.52-.52-.35-.93-.84-1.22-1.47-.29-.63-.44-1.38-.44-2.25s.15-1.6.44-2.24c.29-.63.71-1.12,1.23-1.46.53-.34,1.13-.52,1.82-.52.53,0,.96.09,1.27.26s.55.38.71.6c.17.22.29.4.39.55h.11v-4.03h1.26v10.91h-1.21v-1.26h-.15c-.09.15-.22.34-.39.56-.17.23-.41.43-.73.6-.32.18-.74.26-1.26.26ZM101.64,84.4c.5,0,.93-.13,1.28-.4.35-.26.61-.63.79-1.1.18-.47.27-1.01.27-1.63s-.09-1.15-.27-1.61c-.18-.46-.44-.82-.79-1.08s-.78-.39-1.29-.39-.98.13-1.33.41c-.35.27-.62.64-.79,1.1s-.26.98-.26,1.56.09,1.11.27,1.58.45.85.8,1.13c.35.28.79.42,1.32.42Z"/>
      <path class="cls-1" d="M111.12,85.53c-.79,0-1.47-.17-2.04-.52-.57-.35-1.01-.84-1.32-1.47-.31-.63-.46-1.36-.46-2.2s.15-1.58.46-2.22c.31-.64.74-1.14,1.29-1.5.55-.36,1.2-.54,1.94-.54.43,0,.85.07,1.26.21.42.14.79.37,1.13.69s.61.74.81,1.26c.2.52.3,1.16.3,1.93v.53h-6.31v-1.09h5.03c0-.46-.09-.87-.27-1.24-.18-.36-.44-.65-.78-.86-.34-.21-.73-.31-1.19-.31-.5,0-.93.12-1.3.37-.36.25-.64.57-.84.96-.2.39-.29.82-.29,1.27v.72c0,.62.11,1.14.32,1.57s.51.75.9.97c.38.22.83.33,1.34.33.33,0,.63-.05.9-.14.27-.09.5-.24.7-.43s.35-.43.45-.71l1.21.34c-.13.41-.34.77-.64,1.08-.3.31-.67.55-1.12.72-.44.17-.94.26-1.5.26Z"/>
      <path class="cls-1" d="M52.08,93.81c-.24,0-.46-.08-.63-.25-.18-.17-.26-.37-.26-.6s.09-.43.26-.6.39-.25.63-.25.46.08.63.25.26.37.26.6-.09.43-.26.6c-.18.17-.39.25-.63.25ZM51.44,103.36v-8.18h1.26v8.18h-1.26Z"/>
      <path class="cls-1" d="M56.25,98.44v4.92h-1.26v-8.18h1.21v1.28h.11c.19-.42.48-.75.87-1,.39-.25.89-.38,1.51-.38.55,0,1.04.11,1.45.34.42.22.74.57.97,1.02.23.46.35,1.03.35,1.73v5.2h-1.26v-5.11c0-.64-.17-1.14-.5-1.5s-.79-.54-1.37-.54c-.4,0-.76.09-1.07.26-.31.17-.56.43-.74.76-.18.33-.27.74-.27,1.21Z"/>
      <path class="cls-1" d="M67.33,95.18v1.07h-4.24v-1.07h4.24ZM64.33,93.22h1.26v7.8c0,.36.05.62.16.8s.24.29.4.35c.17.06.34.09.53.09.14,0,.25,0,.34-.02.09-.02.16-.03.21-.04l.26,1.13c-.08.03-.2.06-.36.1-.15.03-.35.05-.58.05-.36,0-.7-.08-1.04-.23-.34-.15-.62-.39-.84-.7-.22-.31-.33-.71-.33-1.18v-8.14Z"/>
      <path class="cls-1" d="M72.66,103.53c-.79,0-1.47-.17-2.04-.52-.57-.35-1.01-.84-1.32-1.47-.31-.63-.46-1.36-.46-2.2s.15-1.58.46-2.22.74-1.14,1.29-1.5,1.2-.54,1.94-.54c.43,0,.85.07,1.26.21.42.14.79.37,1.13.69s.61.74.82,1.26c.2.52.3,1.16.3,1.93v.53h-6.31v-1.09h5.03c0-.46-.09-.87-.27-1.24-.18-.36-.44-.65-.78-.86-.33-.21-.73-.31-1.18-.31-.5,0-.93.12-1.3.37-.36.25-.64.57-.84.96-.2.39-.29.82-.29,1.27v.72c0,.62.11,1.14.32,1.57s.51.75.9.97c.38.22.83.33,1.34.33.33,0,.63-.05.9-.14.27-.09.5-.24.7-.43s.35-.43.45-.71l1.21.34c-.13.41-.34.77-.64,1.08-.3.31-.67.55-1.12.72-.44.17-.94.26-1.5.26Z"/>
      <path class="cls-1" d="M77.97,103.36v-8.18h1.21v1.24h.08c.15-.41.42-.73.81-.99.39-.25.83-.38,1.32-.38.09,0,.21,0,.35,0s.24,0,.31.02v1.28s-.14-.03-.29-.05c-.15-.02-.31-.03-.48-.03-.4,0-.75.08-1.06.25-.31.17-.56.39-.74.68s-.27.62-.27.99v5.18h-1.26Z"/>
      <path class="cls-1" d="M87.19,95.18v1.07h-4.41v-1.07h4.41ZM84.1,103.36v-9.31c0-.47.11-.86.33-1.17.22-.31.51-.55.86-.7s.72-.23,1.11-.23c.31,0,.56.03.76.07.2.05.34.1.44.14l-.36,1.09c-.06-.02-.15-.05-.26-.08s-.26-.05-.44-.05c-.42,0-.71.11-.9.31s-.27.52-.27.92v9.01h-1.26Z"/>
      <path class="cls-1" d="M91.37,103.55c-.52,0-.99-.1-1.41-.3-.42-.2-.76-.48-1.01-.86-.25-.38-.37-.83-.37-1.36,0-.47.09-.85.28-1.14s.43-.52.74-.69c.31-.17.65-.29,1.03-.38.37-.08.75-.15,1.13-.2.5-.06.9-.11,1.21-.15.31-.03.54-.09.68-.17.14-.08.22-.22.22-.43v-.04c0-.53-.14-.93-.43-1.23-.29-.29-.72-.44-1.3-.44s-1.07.13-1.41.39c-.34.26-.58.54-.72.84l-1.19-.43c.21-.5.5-.89.85-1.16.36-.28.75-.47,1.17-.59.42-.11.84-.17,1.25-.17.26,0,.57.03.91.09.34.06.67.19,1,.38.32.19.59.48.8.87.21.39.32.91.32,1.55v5.39h-1.26v-1.11h-.06c-.08.18-.23.37-.43.57-.2.2-.46.38-.79.52-.33.14-.73.21-1.21.21ZM91.56,102.42c.5,0,.92-.1,1.26-.29s.6-.45.78-.76.26-.63.26-.97v-1.15c-.05.06-.17.12-.35.17-.18.05-.38.1-.62.13-.23.04-.46.07-.68.1-.22.03-.4.05-.53.07-.33.04-.63.11-.91.21s-.51.23-.68.42c-.17.19-.26.44-.26.76,0,.44.16.77.49.99.33.22.74.33,1.24.33Z"/>
      <path class="cls-1" d="M100.74,103.53c-.77,0-1.43-.18-1.98-.54-.55-.36-.98-.86-1.28-1.5-.3-.64-.45-1.36-.45-2.18s.15-1.57.46-2.2c.31-.64.74-1.14,1.29-1.5s1.2-.54,1.94-.54c.58,0,1.09.11,1.55.32.46.21.84.51,1.13.9s.48.83.55,1.34h-1.26c-.1-.37-.31-.71-.64-.99s-.77-.43-1.32-.43c-.49,0-.92.13-1.29.38-.37.25-.65.61-.86,1.07s-.31,1-.31,1.62.1,1.18.3,1.65c.2.47.48.83.85,1.09.37.26.8.39,1.3.39.33,0,.62-.06.89-.17.27-.11.49-.28.68-.49s.32-.47.39-.77h1.26c-.07.48-.25.92-.52,1.3-.28.39-.65.69-1.1.92-.46.23-.99.34-1.59.34Z"/>
      <path class="cls-1" d="M109.22,103.53c-.79,0-1.47-.17-2.04-.52-.57-.35-1.01-.84-1.32-1.47-.31-.63-.46-1.36-.46-2.2s.15-1.58.46-2.22c.31-.64.74-1.14,1.29-1.5.55-.36,1.2-.54,1.94-.54.43,0,.85.07,1.26.21.42.14.79.37,1.13.69s.61.74.81,1.26c.2.52.3,1.16.3,1.93v.53h-6.31v-1.09h5.03c0-.46-.09-.87-.27-1.24-.18-.36-.44-.65-.78-.86-.34-.21-.73-.31-1.19-.31-.5,0-.93.12-1.3.37-.36.25-.64.57-.84.96-.2.39-.29.82-.29,1.27v.72c0,.62.11,1.14.32,1.57s.51.75.9.97c.38.22.83.33,1.34.33.33,0,.63-.05.9-.14.27-.09.5-.24.7-.43s.35-.43.45-.71l1.21.34c-.13.41-.34.77-.64,1.08-.3.31-.67.55-1.12.72-.44.17-.94.26-1.5.26Z"/>
    </g>
  </g>
</svg>