<?xml version="1.0" encoding="UTF-8"?>
<svg xmlns="http://www.w3.org/2000/svg" viewBox="0 0 160 160">
  <defs>
    <style>
      .cls-1 {
        fill: #fff;
      }
    </style>
  </defs>
  <g id="Camada_2">
    <circle cx="80" cy="79.88" r="80"/>
  </g>
  <g id="Camada_1">
    <g>
      <path class="cls-1" d="M80.13,56.45h1.32v7.22c0,.75-.18,1.41-.52,1.99-.35.58-.84,1.04-1.48,1.38-.64.33-1.38.5-2.24.5s-1.6-.17-2.24-.5c-.64-.34-1.13-.8-1.48-1.38-.35-.58-.52-1.25-.52-1.99v-7.22h1.32v7.12c0,.53.12,1.01.35,1.42.23.41.57.74,1,.97.44.24.96.36,1.56.36s1.13-.12,1.57-.36c.44-.24.77-.56,1-.97.23-.41.35-.89.35-1.42v-7.12Z"/>
      <path class="cls-1" d="M84.73,56.45l2.81,4.54h.08l2.81-4.54h1.56l-3.43,5.45,3.43,5.45h-1.56l-2.81-4.45h-.08l-2.81,4.45h-1.56l3.52-5.45-3.52-5.45h1.56Z"/>
      <path class="cls-1" d="M40.24,85.36v-10.91h6.58v1.17h-5.26v3.69h4.92v1.17h-4.92v3.71h5.35v1.17h-6.67Z"/>
      <path class="cls-1" d="M49.98,77.18l1.96,3.35,1.96-3.35h1.45l-2.64,4.09,2.64,4.09h-1.45l-1.96-3.17-1.96,3.17h-1.45l2.6-4.09-2.6-4.09h1.45Z"/>
      <path class="cls-1" d="M57.14,88.43v-11.25h1.21v1.3h.15c.09-.14.22-.32.39-.55.17-.22.4-.42.71-.6.31-.18.73-.26,1.27-.26.69,0,1.3.17,1.82.52.53.34.94.83,1.23,1.46.29.63.44,1.38.44,2.24s-.15,1.62-.44,2.25c-.29.63-.7,1.12-1.23,1.47-.52.35-1.12.52-1.81.52-.53,0-.95-.09-1.26-.26s-.56-.38-.73-.6c-.17-.22-.3-.41-.39-.56h-.11v4.33h-1.26ZM58.37,81.27c0,.62.09,1.16.27,1.63.18.47.45.84.79,1.1.35.27.77.4,1.28.4s.97-.14,1.32-.42c.35-.28.62-.65.8-1.13.18-.47.27-1,.27-1.58s-.09-1.1-.26-1.56-.44-.83-.79-1.1c-.35-.27-.8-.41-1.33-.41s-.94.13-1.29.39-.61.62-.79,1.08c-.18.46-.27,1-.27,1.61Z"/>
      <path class="cls-1" d="M69.71,85.53c-.79,0-1.47-.17-2.04-.52s-1.01-.84-1.32-1.47c-.31-.63-.46-1.36-.46-2.2s.15-1.58.46-2.22c.31-.64.74-1.14,1.29-1.5.55-.36,1.2-.54,1.94-.54.43,0,.85.07,1.26.21.42.14.79.37,1.13.69s.61.74.81,1.26c.2.52.3,1.16.3,1.93v.53h-6.31v-1.09h5.03c0-.46-.09-.87-.27-1.24-.18-.36-.44-.65-.78-.86-.34-.21-.73-.31-1.19-.31-.5,0-.93.12-1.3.37-.36.25-.64.57-.84.96-.2.39-.29.82-.29,1.27v.72c0,.62.11,1.14.32,1.57s.51.75.9.97c.38.22.83.33,1.34.33.33,0,.63-.05.9-.14s.5-.24.7-.43.35-.43.45-.71l1.21.34c-.13.41-.34.77-.64,1.08-.3.31-.67.55-1.12.72-.44.17-.94.26-1.5.26Z"/>
      <path class="cls-1" d="M75.01,85.36v-8.18h1.21v1.24h.08c.15-.41.42-.73.81-.99.39-.25.83-.38,1.32-.38.09,0,.21,0,.35,0s.24,0,.31.02v1.28s-.14-.03-.29-.05c-.15-.02-.31-.03-.48-.03-.4,0-.75.08-1.06.25-.31.17-.56.39-.73.68-.18.29-.27.62-.27.99v5.18h-1.26Z"/>
      <path class="cls-1" d="M81.24,75.81c-.24,0-.46-.08-.63-.25-.18-.17-.26-.37-.26-.6s.09-.43.26-.6.39-.25.63-.25.46.08.63.25.26.37.26.6-.09.43-.26.6c-.18.17-.39.25-.63.25ZM80.6,85.36v-8.18h1.26v8.18h-1.26Z"/>
      <path class="cls-1" d="M87.59,85.53c-.79,0-1.47-.17-2.04-.52s-1.01-.84-1.32-1.47c-.31-.63-.46-1.36-.46-2.2s.15-1.58.46-2.22c.31-.64.74-1.14,1.29-1.5.55-.36,1.2-.54,1.94-.54.43,0,.85.07,1.26.21.42.14.79.37,1.13.69s.61.74.81,1.26c.2.52.3,1.16.3,1.93v.53h-6.31v-1.09h5.03c0-.46-.09-.87-.27-1.24-.18-.36-.44-.65-.78-.86-.34-.21-.73-.31-1.19-.31-.5,0-.93.12-1.3.37-.36.25-.64.57-.84.96-.2.39-.29.82-.29,1.27v.72c0,.62.11,1.14.32,1.57s.51.75.9.97c.38.22.83.33,1.34.33.33,0,.63-.05.9-.14s.5-.24.7-.43.35-.43.45-.71l1.21.34c-.13.41-.34.77-.64,1.08-.3.31-.67.55-1.12.72-.44.17-.94.26-1.5.26ZM88.5,76.2l-1.11-1.49-1.11,1.49h-1.19v-.08l1.73-2.22h1.15l1.73,2.22v.08h-1.19Z"/>
      <path class="cls-1" d="M94.15,80.44v4.92h-1.26v-8.18h1.21v1.28h.11c.19-.42.48-.75.87-1,.39-.25.9-.38,1.51-.38.55,0,1.04.11,1.45.34.42.22.74.57.97,1.02.23.46.35,1.03.35,1.73v5.2h-1.26v-5.11c0-.64-.17-1.14-.5-1.5-.33-.36-.79-.54-1.37-.54-.4,0-.76.09-1.07.26-.31.17-.56.43-.74.76-.18.33-.27.74-.27,1.21Z"/>
      <path class="cls-1" d="M104.99,85.53c-.77,0-1.43-.18-1.98-.54-.55-.36-.98-.86-1.28-1.5s-.45-1.36-.45-2.18.15-1.57.46-2.2c.31-.64.74-1.14,1.29-1.5.55-.36,1.2-.54,1.94-.54.58,0,1.09.11,1.56.32.46.21.84.51,1.13.9s.48.83.55,1.34h-1.26c-.1-.37-.31-.71-.64-.99-.33-.29-.77-.43-1.32-.43-.49,0-.92.13-1.29.38s-.65.61-.86,1.07c-.2.46-.31,1-.31,1.62s.1,1.18.3,1.65.48.83.85,1.09c.37.26.8.39,1.3.39.33,0,.62-.06.89-.17.27-.11.49-.28.68-.49s.32-.47.39-.77h1.26c-.07.48-.25.92-.52,1.3-.28.39-.65.69-1.1.92-.46.23-.99.34-1.59.34Z"/>
      <path class="cls-1" d="M110.68,75.81c-.24,0-.46-.08-.63-.25-.18-.17-.26-.37-.26-.6s.09-.43.26-.6.39-.25.63-.25.46.08.63.25.26.37.26.6-.09.43-.26.6c-.18.17-.39.25-.63.25ZM110.04,85.36v-8.18h1.26v8.18h-1.26Z"/>
      <path class="cls-1" d="M116.01,85.55c-.52,0-.99-.1-1.41-.3-.42-.2-.76-.48-1.01-.86-.25-.38-.37-.83-.37-1.36,0-.47.09-.85.28-1.14s.43-.52.74-.69c.31-.17.65-.29,1.03-.38.37-.08.75-.15,1.13-.2.5-.06.9-.11,1.21-.15.31-.03.54-.09.68-.17.14-.08.22-.22.22-.43v-.04c0-.53-.14-.93-.43-1.23-.29-.29-.72-.44-1.3-.44s-1.07.13-1.41.39c-.34.26-.58.54-.72.84l-1.19-.43c.21-.5.5-.89.85-1.16s.75-.47,1.17-.59.84-.17,1.25-.17c.26,0,.57.03.91.09.34.06.67.19,1,.38.32.19.59.48.8.87.21.39.32.91.32,1.55v5.39h-1.26v-1.11h-.06c-.09.18-.23.37-.43.57-.2.2-.46.38-.79.52-.33.14-.73.21-1.21.21ZM116.2,84.42c.5,0,.92-.1,1.26-.29s.6-.45.78-.76.26-.63.26-.97v-1.15c-.05.06-.17.12-.35.17s-.39.1-.62.13c-.23.04-.46.07-.68.1-.22.03-.4.05-.53.07-.33.04-.63.11-.91.21s-.51.23-.68.42c-.17.19-.26.44-.26.76,0,.44.16.77.49.99.32.22.74.33,1.24.33Z"/>
      <path class="cls-1" d="M49.12,103.53c-.68,0-1.28-.17-1.81-.52-.52-.35-.93-.84-1.23-1.47-.29-.63-.44-1.38-.44-2.25s.15-1.6.44-2.24c.29-.63.71-1.12,1.23-1.46.53-.34,1.13-.52,1.82-.52.53,0,.95.09,1.27.26s.55.38.71.6c.17.22.29.4.39.55h.11v-4.03h1.26v10.91h-1.21v-1.26h-.15c-.09.15-.22.34-.39.56-.17.23-.41.43-.73.6s-.74.26-1.26.26ZM49.29,102.4c.5,0,.93-.13,1.28-.4.35-.26.61-.63.79-1.1.18-.47.27-1.01.27-1.63s-.09-1.15-.27-1.61c-.18-.46-.44-.82-.79-1.08-.35-.26-.78-.39-1.29-.39s-.98.13-1.33.41c-.35.27-.62.64-.79,1.1s-.26.98-.26,1.56.09,1.11.27,1.58c.18.47.45.85.8,1.13.35.28.79.42,1.32.42Z"/>
      <path class="cls-1" d="M58.66,103.53c-.74,0-1.39-.18-1.94-.53s-.99-.84-1.3-1.48c-.31-.63-.47-1.37-.47-2.22s.16-1.6.47-2.23c.31-.64.74-1.13,1.3-1.48s1.2-.53,1.94-.53,1.39.18,1.94.53.99.84,1.3,1.48c.31.63.47,1.38.47,2.23s-.16,1.58-.47,2.22c-.31.63-.74,1.12-1.3,1.48s-1.2.53-1.94.53ZM58.66,102.4c.56,0,1.02-.14,1.38-.43s.63-.67.8-1.13c.17-.47.26-.98.26-1.52s-.09-1.06-.26-1.53c-.17-.47-.44-.85-.8-1.15-.36-.29-.82-.44-1.38-.44s-1.02.14-1.39.44c-.36.29-.63.67-.8,1.15s-.26.98-.26,1.53.09,1.05.26,1.52.44.85.8,1.13.82.43,1.39.43Z"/>
      <path class="cls-1" d="M73.66,100.01v-4.84h1.26v8.18h-1.26v-1.38h-.08c-.19.42-.49.77-.9,1.06s-.92.43-1.53.43c-.51,0-.97-.11-1.36-.34-.4-.23-.71-.57-.94-1.02-.23-.46-.34-1.03-.34-1.73v-5.2h1.26v5.11c0,.6.17,1.07.5,1.43.34.36.76.53,1.29.53.31,0,.63-.08.96-.24.32-.16.6-.4.82-.73.22-.33.33-.75.33-1.26Z"/>
      <path class="cls-1" d="M83.01,97.01l-1.13.32c-.07-.19-.18-.37-.31-.55-.14-.18-.32-.33-.56-.45s-.53-.18-.9-.18c-.5,0-.92.11-1.25.34-.33.23-.5.52-.5.87,0,.31.11.56.34.74.23.18.58.33,1.07.45l1.21.3c.73.18,1.28.45,1.64.81.36.37.54.83.54,1.4,0,.47-.13.89-.4,1.26-.27.37-.64.66-1.12.87s-1.04.32-1.67.32c-.83,0-1.52-.18-2.07-.54-.55-.36-.89-.89-1.04-1.59l1.19-.3c.11.44.33.77.65.99.32.22.73.33,1.25.33.59,0,1.05-.12,1.4-.38.35-.25.52-.55.52-.9,0-.29-.1-.52-.3-.72s-.5-.34-.92-.43l-1.36-.32c-.75-.18-1.3-.45-1.65-.83-.35-.38-.52-.84-.52-1.41,0-.46.13-.87.39-1.23.26-.35.62-.63,1.07-.84.45-.2.97-.3,1.54-.3.81,0,1.45.18,1.91.53.46.36.79.82.99,1.41Z"/>
      <path class="cls-1" d="M90.22,100.01v-4.84h1.26v8.18h-1.26v-1.38h-.08c-.19.42-.49.77-.9,1.06s-.92.43-1.53.43c-.51,0-.97-.11-1.36-.34-.4-.23-.71-.57-.94-1.02-.23-.46-.34-1.03-.34-1.73v-5.2h1.26v5.11c0,.6.17,1.07.5,1.43.34.36.76.53,1.29.53.31,0,.63-.08.96-.24.32-.16.6-.4.82-.73.22-.33.33-.75.33-1.26Z"/>
      <path class="cls-1" d="M96.18,103.55c-.52,0-.99-.1-1.41-.3-.42-.2-.76-.48-1.01-.86-.25-.38-.37-.83-.37-1.36,0-.47.09-.85.28-1.14s.43-.52.74-.69c.31-.17.65-.29,1.03-.38.37-.08.75-.15,1.13-.2.5-.06.9-.11,1.21-.15.31-.03.54-.09.68-.17.14-.08.22-.22.22-.43v-.04c0-.53-.14-.93-.43-1.23-.29-.29-.72-.44-1.3-.44s-1.07.13-1.41.39c-.34.26-.58.54-.72.84l-1.19-.43c.21-.5.5-.89.85-1.16s.75-.47,1.17-.59.84-.17,1.25-.17c.26,0,.57.03.91.09.34.06.67.19,1,.38.32.19.59.48.8.87.21.39.32.91.32,1.55v5.39h-1.26v-1.11h-.06c-.09.18-.23.37-.43.57-.2.2-.46.38-.79.52-.33.14-.73.21-1.21.21ZM96.37,102.42c.5,0,.92-.1,1.26-.29s.6-.45.78-.76.26-.63.26-.97v-1.15c-.05.06-.17.12-.35.17s-.39.1-.62.13c-.23.04-.46.07-.68.1-.22.03-.4.05-.53.07-.33.04-.63.11-.91.21s-.51.23-.68.42c-.17.19-.26.44-.26.76,0,.44.16.77.49.99.32.22.74.33,1.24.33ZM96.42,94.07l1.3-2.47h1.47l-1.66,2.47h-1.11Z"/>
      <path class="cls-1" d="M102.23,103.36v-8.18h1.21v1.24h.08c.15-.41.42-.73.81-.99.39-.25.83-.38,1.32-.38.09,0,.21,0,.35,0s.24,0,.31.02v1.28s-.14-.03-.29-.05c-.15-.02-.31-.03-.48-.03-.4,0-.75.08-1.06.25-.31.17-.56.39-.73.68-.18.29-.27.62-.27.99v5.18h-1.26Z"/>
      <path class="cls-1" d="M108.45,93.81c-.24,0-.46-.08-.63-.25-.18-.17-.26-.37-.26-.6s.09-.43.26-.6.39-.25.63-.25.46.08.63.25.26.37.26.6-.09.43-.26.6c-.18.17-.39.25-.63.25ZM107.82,103.36v-8.18h1.26v8.18h-1.26Z"/>
      <path class="cls-1" d="M114.7,103.53c-.74,0-1.39-.18-1.94-.53s-.99-.84-1.3-1.48c-.31-.63-.47-1.37-.47-2.22s.16-1.6.47-2.23c.31-.64.74-1.13,1.3-1.48s1.2-.53,1.94-.53,1.39.18,1.94.53.99.84,1.3,1.48c.31.63.47,1.38.47,2.23s-.16,1.58-.47,2.22c-.31.63-.74,1.12-1.3,1.48s-1.2.53-1.94.53ZM114.7,102.4c.56,0,1.02-.14,1.38-.43s.63-.67.8-1.13c.17-.47.26-.98.26-1.52s-.09-1.06-.26-1.53c-.17-.47-.44-.85-.8-1.15-.36-.29-.82-.44-1.38-.44s-1.02.14-1.39.44c-.36.29-.63.67-.8,1.15s-.26.98-.26,1.53.09,1.05.26,1.52.44.85.8,1.13.82.43,1.39.43Z"/>
    </g>
  </g>
</svg>