<?xml version="1.0" encoding="UTF-8"?>
<svg xmlns="http://www.w3.org/2000/svg" viewBox="0 0 160 160">
  <defs>
    <style>
      .cls-1 {
        fill: #fff;
      }
    </style>
  </defs>
  <g id="Camada_2">
    <circle cx="80" cy="79.88" r="80"/>
  </g>
  <g id="Camada_1">
    <g>
      <path class="cls-1" d="M42.15,65.59v10.91h-1.32v-10.91h1.32Z"/>
      <path class="cls-1" d="M45.88,71.57v4.92h-1.26v-8.18h1.21v1.28h.11c.19-.42.48-.75.87-1,.39-.25.9-.38,1.51-.38.55,0,1.04.11,1.45.34.42.22.74.57.97,1.02.23.46.35,1.03.35,1.73v5.2h-1.26v-5.11c0-.64-.17-1.14-.5-1.5-.33-.36-.79-.54-1.37-.54-.4,0-.76.09-1.07.26-.31.17-.56.43-.74.76-.18.33-.27.74-.27,1.21Z"/>
      <path class="cls-1" d="M59.19,70.15l-1.13.32c-.07-.19-.18-.37-.31-.55-.14-.18-.32-.33-.56-.45s-.53-.18-.9-.18c-.5,0-.92.11-1.25.34-.33.23-.5.52-.5.87,0,.31.11.56.34.74.23.18.58.33,1.07.45l1.21.3c.73.18,1.28.45,1.64.81.36.37.54.83.54,1.4,0,.47-.13.89-.4,1.26-.27.37-.64.66-1.12.87s-1.04.32-1.67.32c-.83,0-1.52-.18-2.07-.54-.55-.36-.89-.89-1.04-1.59l1.19-.3c.11.44.33.77.65.99.32.22.73.33,1.25.33.59,0,1.05-.12,1.4-.38.35-.25.52-.55.52-.9,0-.29-.1-.52-.3-.72s-.5-.34-.92-.43l-1.36-.32c-.75-.18-1.3-.45-1.65-.83-.35-.38-.52-.84-.52-1.41,0-.46.13-.87.39-1.23.26-.35.62-.63,1.07-.84.45-.2.97-.3,1.54-.3.81,0,1.45.18,1.91.53.46.36.79.82.99,1.41Z"/>
      <path class="cls-1" d="M64.8,68.31v1.07h-4.24v-1.07h4.24ZM61.79,66.35h1.26v7.8c0,.36.05.62.16.8.1.18.24.29.4.35.17.06.34.09.52.09.14,0,.25,0,.34-.02.09-.02.16-.03.21-.04l.26,1.13c-.08.03-.2.06-.36.1-.15.03-.35.05-.58.05-.35,0-.7-.08-1.04-.23-.34-.15-.62-.39-.84-.7-.22-.31-.33-.71-.33-1.18v-8.14Z"/>
      <path class="cls-1" d="M69.1,76.69c-.52,0-.99-.1-1.41-.3-.42-.2-.76-.48-1.01-.86-.25-.38-.37-.83-.37-1.36,0-.47.09-.85.28-1.14s.43-.52.74-.69c.31-.17.65-.29,1.03-.38.37-.08.75-.15,1.13-.2.5-.06.9-.11,1.21-.15.31-.03.54-.09.68-.17.14-.08.22-.22.22-.43v-.04c0-.53-.14-.93-.43-1.23-.29-.29-.72-.44-1.3-.44s-1.07.13-1.41.39c-.34.26-.58.54-.72.84l-1.19-.43c.21-.5.5-.89.85-1.16s.75-.47,1.17-.59.84-.17,1.25-.17c.26,0,.57.03.91.09.34.06.67.19,1,.38.32.19.59.48.8.87.21.39.32.91.32,1.55v5.39h-1.26v-1.11h-.06c-.09.18-.23.37-.43.57-.2.2-.46.38-.79.52-.33.14-.73.21-1.21.21ZM69.29,75.56c.5,0,.92-.1,1.26-.29s.6-.45.78-.76.26-.63.26-.97v-1.15c-.05.06-.17.12-.35.17s-.39.1-.62.13c-.23.04-.46.07-.68.1-.22.03-.4.05-.53.07-.33.04-.63.11-.91.21s-.51.23-.68.42c-.17.19-.26.44-.26.76,0,.44.16.77.49.99.32.22.74.33,1.24.33Z"/>
      <path class="cls-1" d="M76.41,65.59v10.91h-1.26v-10.91h1.26Z"/>
      <path class="cls-1" d="M81.12,76.69c-.52,0-.99-.1-1.41-.3-.42-.2-.76-.48-1.01-.86-.25-.38-.37-.83-.37-1.36,0-.47.09-.85.28-1.14s.43-.52.74-.69c.31-.17.65-.29,1.03-.38.37-.08.75-.15,1.13-.2.5-.06.9-.11,1.21-.15.31-.03.54-.09.68-.17.14-.08.22-.22.22-.43v-.04c0-.53-.14-.93-.43-1.23-.29-.29-.72-.44-1.3-.44s-1.07.13-1.41.39c-.34.26-.58.54-.72.84l-1.19-.43c.21-.5.5-.89.85-1.16s.75-.47,1.17-.59.84-.17,1.25-.17c.26,0,.57.03.91.09.34.06.67.19,1,.38.32.19.59.48.8.87.21.39.32.91.32,1.55v5.39h-1.26v-1.11h-.06c-.09.18-.23.37-.43.57-.2.2-.46.38-.79.52-.33.14-.73.21-1.21.21ZM81.31,75.56c.5,0,.92-.1,1.26-.29s.6-.45.78-.76.26-.63.26-.97v-1.15c-.05.06-.17.12-.35.17s-.39.1-.62.13c-.23.04-.46.07-.68.1-.22.03-.4.05-.53.07-.33.04-.63.11-.91.21s-.51.23-.68.42c-.17.19-.26.44-.26.76,0,.44.16.77.49.99.32.22.74.33,1.24.33Z"/>
      <path class="cls-1" d="M90.49,76.67c-.77,0-1.43-.18-1.98-.54-.55-.36-.98-.86-1.28-1.5s-.45-1.36-.45-2.18.15-1.57.46-2.2c.31-.64.74-1.14,1.29-1.5.55-.36,1.2-.54,1.94-.54.58,0,1.09.11,1.56.32.46.21.84.51,1.13.9s.48.83.55,1.34h-1.26c-.1-.37-.31-.71-.64-.99-.33-.29-.77-.43-1.32-.43-.49,0-.92.13-1.29.38s-.65.61-.86,1.07c-.2.46-.31,1-.31,1.62s.1,1.18.3,1.65.48.83.85,1.09c.37.26.8.39,1.3.39.33,0,.62-.06.89-.17.27-.11.49-.28.68-.49s.32-.47.39-.77h1.26c-.07.48-.25.92-.52,1.3-.28.39-.65.69-1.1.92-.46.23-.99.34-1.59.34ZM89.9,76.45h1.04l-.09.43c.28.04.53.16.76.35.23.19.35.49.35.91,0,.46-.19.83-.57,1.12-.38.29-.94.43-1.67.43l-.04-.83c.33,0,.6-.05.82-.16.22-.11.33-.28.33-.53s-.09-.41-.27-.5c-.18-.09-.47-.15-.88-.18l.21-1.04Z"/>
      <path class="cls-1" d="M98.87,76.67c-.74,0-1.39-.18-1.94-.53s-.99-.84-1.3-1.48c-.31-.63-.47-1.37-.47-2.22s.16-1.6.47-2.23c.31-.64.74-1.13,1.3-1.48s1.2-.53,1.94-.53,1.39.18,1.94.53.99.84,1.3,1.48c.31.63.47,1.38.47,2.23s-.16,1.58-.47,2.22c-.31.63-.74,1.12-1.3,1.48s-1.2.53-1.94.53ZM97.23,67.33l-.98-.04c0-.54.16-.99.47-1.33.31-.35.7-.52,1.15-.52.2,0,.38.03.54.1.16.07.31.15.45.24s.29.17.44.24c.15.07.32.1.51.1.2,0,.37-.08.51-.24.14-.16.21-.35.21-.57l.96.08c0,.55-.16,1-.47,1.32-.31.33-.69.49-1.15.49-.25,0-.45-.04-.61-.1-.16-.07-.3-.15-.43-.24-.12-.09-.26-.17-.39-.24s-.31-.1-.51-.1-.37.08-.5.24c-.13.16-.2.35-.2.57ZM98.87,75.54c.56,0,1.02-.14,1.38-.43s.63-.67.8-1.13c.17-.47.26-.98.26-1.52s-.09-1.06-.26-1.53c-.17-.47-.44-.85-.8-1.15-.36-.29-.82-.44-1.38-.44s-1.02.14-1.39.44c-.36.29-.63.67-.8,1.15s-.26.98-.26,1.53.09,1.05.26,1.52.44.85.8,1.13.82.43,1.39.43Z"/>
      <path class="cls-1" d="M107.92,76.67c-.79,0-1.47-.17-2.04-.52s-1.01-.84-1.32-1.47c-.31-.63-.46-1.36-.46-2.2s.15-1.58.46-2.22c.31-.64.74-1.14,1.29-1.5.55-.36,1.2-.54,1.94-.54.43,0,.85.07,1.26.21.42.14.79.37,1.13.69s.61.74.81,1.26c.2.52.3,1.16.3,1.93v.53h-6.31v-1.09h5.03c0-.46-.09-.87-.27-1.24-.18-.36-.44-.65-.78-.86-.34-.21-.73-.31-1.19-.31-.5,0-.93.12-1.3.37-.36.25-.64.57-.84.96-.2.39-.29.82-.29,1.27v.72c0,.62.11,1.14.32,1.57s.51.75.9.97c.38.22.83.33,1.34.33.33,0,.63-.05.9-.14s.5-.24.7-.43.35-.43.45-.71l1.21.34c-.13.41-.34.77-.64,1.08-.3.31-.67.55-1.12.72-.44.17-.94.26-1.5.26Z"/>
      <path class="cls-1" d="M119.02,70.15l-1.13.32c-.07-.19-.18-.37-.31-.55-.14-.18-.32-.33-.56-.45s-.53-.18-.9-.18c-.5,0-.92.11-1.25.34-.33.23-.5.52-.5.87,0,.31.11.56.34.74.23.18.58.33,1.07.45l1.21.3c.73.18,1.28.45,1.64.81.36.37.54.83.54,1.4,0,.47-.13.89-.4,1.26-.27.37-.64.66-1.12.87s-1.04.32-1.67.32c-.83,0-1.52-.18-2.07-.54-.55-.36-.89-.89-1.04-1.59l1.19-.3c.11.44.33.77.65.99.32.22.73.33,1.25.33.59,0,1.05-.12,1.4-.38.35-.25.52-.55.52-.9,0-.29-.1-.52-.3-.72s-.5-.34-.92-.43l-1.36-.32c-.75-.18-1.3-.45-1.65-.83-.35-.38-.52-.84-.52-1.41,0-.46.13-.87.39-1.23.26-.35.62-.63,1.07-.84.45-.2.97-.3,1.54-.3.81,0,1.45.18,1.91.53.46.36.79.82.99,1.41Z"/>
      <path class="cls-1" d="M46.5,84.95c-.24,0-.46-.08-.63-.25-.18-.17-.26-.37-.26-.6s.09-.43.26-.6.39-.25.63-.25.46.08.63.25.26.37.26.6-.09.43-.26.6c-.18.17-.39.25-.63.25ZM45.86,94.5v-8.18h1.26v8.18h-1.26Z"/>
      <path class="cls-1" d="M50.67,89.57v4.92h-1.26v-8.18h1.21v1.28h.11c.19-.42.48-.75.87-1,.39-.25.9-.38,1.51-.38.55,0,1.04.11,1.45.34.42.22.74.57.97,1.02.23.46.35,1.03.35,1.73v5.2h-1.26v-5.11c0-.64-.17-1.14-.5-1.5-.33-.36-.79-.54-1.37-.54-.4,0-.76.09-1.07.26-.31.17-.56.43-.74.76-.18.33-.27.74-.27,1.21Z"/>
      <path class="cls-1" d="M61.75,86.31v1.07h-4.24v-1.07h4.24ZM58.75,84.35h1.26v7.8c0,.36.05.62.16.8.1.18.24.29.4.35.17.06.34.09.52.09.14,0,.25,0,.34-.02.09-.02.16-.03.21-.04l.26,1.13c-.08.03-.2.06-.36.1-.15.03-.35.05-.58.05-.35,0-.7-.08-1.04-.23-.34-.15-.62-.39-.84-.7-.22-.31-.33-.71-.33-1.18v-8.14Z"/>
      <path class="cls-1" d="M67.08,94.67c-.79,0-1.47-.17-2.04-.52s-1.01-.84-1.32-1.47c-.31-.63-.46-1.36-.46-2.2s.15-1.58.46-2.22c.31-.64.74-1.14,1.29-1.5.55-.36,1.2-.54,1.94-.54.43,0,.85.07,1.26.21.42.14.79.37,1.13.69s.61.74.81,1.26c.2.52.3,1.16.3,1.93v.53h-6.31v-1.09h5.03c0-.46-.09-.87-.27-1.24-.18-.36-.44-.65-.78-.86-.34-.21-.73-.31-1.19-.31-.5,0-.93.12-1.3.37-.36.25-.64.57-.84.96-.2.39-.29.82-.29,1.27v.72c0,.62.11,1.14.32,1.57s.51.75.9.97c.38.22.83.33,1.34.33.33,0,.63-.05.9-.14s.5-.24.7-.43.35-.43.45-.71l1.21.34c-.13.41-.34.77-.64,1.08-.3.31-.67.55-1.12.72-.44.17-.94.26-1.5.26Z"/>
      <path class="cls-1" d="M72.38,94.5v-8.18h1.21v1.24h.08c.15-.41.42-.73.81-.99.39-.25.83-.38,1.32-.38.09,0,.21,0,.35,0s.24,0,.31.02v1.28s-.14-.03-.29-.05c-.15-.02-.31-.03-.48-.03-.4,0-.75.08-1.06.25-.31.17-.56.39-.73.68-.18.29-.27.62-.27.99v5.18h-1.26Z"/>
      <path class="cls-1" d="M80.37,94.69c-.52,0-.99-.1-1.41-.3-.42-.2-.76-.48-1.01-.86-.25-.38-.37-.83-.37-1.36,0-.47.09-.85.28-1.14s.43-.52.74-.69c.31-.17.65-.29,1.03-.38.37-.08.75-.15,1.13-.2.5-.06.9-.11,1.21-.15.31-.03.54-.09.68-.17.14-.08.22-.22.22-.43v-.04c0-.53-.14-.93-.43-1.23-.29-.29-.72-.44-1.3-.44s-1.07.13-1.41.39c-.34.26-.58.54-.72.84l-1.19-.43c.21-.5.5-.89.85-1.16s.75-.47,1.17-.59.84-.17,1.25-.17c.26,0,.57.03.91.09.34.06.67.19,1,.38.32.19.59.48.8.87.21.39.32.91.32,1.55v5.39h-1.26v-1.11h-.06c-.09.18-.23.37-.43.57-.2.2-.46.38-.79.52-.33.14-.73.21-1.21.21ZM80.56,93.56c.5,0,.92-.1,1.26-.29s.6-.45.78-.76.26-.63.26-.97v-1.15c-.05.06-.17.12-.35.17s-.39.1-.62.13c-.23.04-.46.07-.68.1-.22.03-.4.05-.53.07-.33.04-.63.11-.91.21s-.51.23-.68.42c-.17.19-.26.44-.26.76,0,.44.16.77.49.99.32.22.74.33,1.24.33Z"/>
      <path class="cls-1" d="M89.98,86.31v1.07h-4.24v-1.07h4.24ZM86.98,84.35h1.26v7.8c0,.36.05.62.16.8.1.18.24.29.4.35.17.06.34.09.52.09.14,0,.25,0,.34-.02.09-.02.16-.03.21-.04l.26,1.13c-.08.03-.2.06-.36.1-.15.03-.35.05-.58.05-.35,0-.7-.08-1.04-.23-.34-.15-.62-.39-.84-.7-.22-.31-.33-.71-.33-1.18v-8.14Z"/>
      <path class="cls-1" d="M92.52,84.95c-.24,0-.46-.08-.63-.25-.18-.17-.26-.37-.26-.6s.09-.43.26-.6.39-.25.63-.25.46.08.63.25.26.37.26.6-.09.43-.26.6c-.18.17-.39.25-.63.25ZM91.88,94.5v-8.18h1.26v8.18h-1.26Z"/>
      <path class="cls-1" d="M102.13,86.31l-3.03,8.18h-1.28l-3.03-8.18h1.36l2.26,6.52h.09l2.26-6.52h1.36Z"/>
      <path class="cls-1" d="M106.2,94.69c-.52,0-.99-.1-1.41-.3-.42-.2-.76-.48-1.01-.86-.25-.38-.37-.83-.37-1.36,0-.47.09-.85.28-1.14s.43-.52.74-.69c.31-.17.65-.29,1.03-.38.37-.08.75-.15,1.13-.2.5-.06.9-.11,1.21-.15.31-.03.54-.09.68-.17.14-.08.22-.22.22-.43v-.04c0-.53-.14-.93-.43-1.23-.29-.29-.72-.44-1.3-.44s-1.07.13-1.41.39c-.34.26-.58.54-.72.84l-1.19-.43c.21-.5.5-.89.85-1.16s.75-.47,1.17-.59.84-.17,1.25-.17c.26,0,.57.03.91.09.34.06.67.19,1,.38.32.19.59.48.8.87.21.39.32.91.32,1.55v5.39h-1.26v-1.11h-.06c-.09.18-.23.37-.43.57-.2.2-.46.38-.79.52-.33.14-.73.21-1.21.21ZM106.39,93.56c.5,0,.92-.1,1.26-.29s.6-.45.78-.76.26-.63.26-.97v-1.15c-.05.06-.17.12-.35.17s-.39.1-.62.13c-.23.04-.46.07-.68.1-.22.03-.4.05-.53.07-.33.04-.63.11-.91.21s-.51.23-.68.42c-.17.19-.26.44-.26.76,0,.44.16.77.49.99.32.22.74.33,1.24.33Z"/>
      <path class="cls-1" d="M118.04,88.15l-1.13.32c-.07-.19-.18-.37-.31-.55-.14-.18-.32-.33-.56-.45s-.53-.18-.9-.18c-.5,0-.92.11-1.25.34-.33.23-.5.52-.5.87,0,.31.11.56.34.74.23.18.58.33,1.07.45l1.21.3c.73.18,1.28.45,1.64.81.36.37.54.83.54,1.4,0,.47-.13.89-.4,1.26-.27.37-.64.66-1.12.87s-1.04.32-1.67.32c-.83,0-1.52-.18-2.07-.54-.55-.36-.89-.89-1.04-1.59l1.19-.3c.11.44.33.77.65.99.32.22.73.33,1.25.33.59,0,1.05-.12,1.4-.38.35-.25.52-.55.52-.9,0-.29-.1-.52-.3-.72s-.5-.34-.92-.43l-1.36-.32c-.75-.18-1.3-.45-1.65-.83-.35-.38-.52-.84-.52-1.41,0-.46.13-.87.39-1.23.26-.35.62-.63,1.07-.84.45-.2.97-.3,1.54-.3.81,0,1.45.18,1.91.53.46.36.79.82.99,1.41Z"/>
    </g>
  </g>
</svg>