<?xml version="1.0" encoding="UTF-8"?>
<svg xmlns="http://www.w3.org/2000/svg" viewBox="0 0 160 160">
  <defs>
    <style>
      .cls-1 {
        fill: #fff;
      }
    </style>
  </defs>
  <g id="Camada_2">
    <circle cx="80" cy="79.88" r="80"/>
  </g>
  <g id="Camada_1">
    <g>
      <path class="cls-1" d="M25.37,83.97v-10.91h3.69c.86,0,1.56.15,2.1.46.54.31.95.72,1.21,1.24s.39,1.1.39,1.75-.13,1.23-.39,1.75c-.26.53-.66.94-1.21,1.25-.54.31-1.24.47-2.09.47h-2.64v-1.17h2.6c.59,0,1.06-.1,1.41-.3.35-.2.61-.48.77-.82s.24-.74.24-1.17-.08-.83-.24-1.17c-.16-.34-.42-.62-.78-.81-.36-.2-.83-.29-1.43-.29h-2.32v9.74h-1.32Z"/>
      <path class="cls-1" d="M34.72,83.97v-8.18h1.21v1.24h.08c.15-.41.42-.73.81-.99.39-.25.83-.38,1.32-.38.09,0,.21,0,.35,0s.24,0,.31.02v1.28s-.14-.03-.29-.05c-.15-.02-.31-.03-.48-.03-.4,0-.75.08-1.06.25-.31.17-.56.39-.73.68-.18.29-.27.62-.27.99v5.18h-1.26Z"/>
      <path class="cls-1" d="M43.63,84.14c-.74,0-1.39-.18-1.94-.53s-.99-.84-1.3-1.48c-.31-.63-.47-1.37-.47-2.22s.16-1.6.47-2.23c.31-.64.74-1.13,1.3-1.48s1.2-.53,1.94-.53,1.39.18,1.94.53.99.84,1.3,1.48c.31.63.47,1.38.47,2.23s-.16,1.58-.47,2.22c-.31.63-.74,1.12-1.3,1.48s-1.2.53-1.94.53ZM43.63,83.01c.56,0,1.02-.14,1.38-.43s.63-.67.8-1.13c.17-.47.26-.98.26-1.52s-.09-1.06-.26-1.53c-.17-.47-.44-.85-.8-1.15-.36-.29-.82-.44-1.38-.44s-1.02.14-1.39.44c-.36.29-.63.67-.8,1.15s-.26.98-.26,1.53.09,1.05.26,1.52.44.85.8,1.13.82.43,1.39.43Z"/>
      <path class="cls-1" d="M52.56,87.21c-.61,0-1.13-.08-1.57-.23-.44-.15-.8-.36-1.09-.61-.29-.25-.52-.52-.69-.8l1-.7c.11.15.26.32.43.51.17.19.41.36.72.51.3.14.7.21,1.2.21.66,0,1.21-.16,1.64-.48.43-.32.64-.82.64-1.5v-1.66h-.11c-.09.15-.22.33-.39.55s-.41.41-.72.58c-.31.17-.74.25-1.27.25-.66,0-1.25-.16-1.78-.47-.52-.31-.94-.77-1.24-1.36-.3-.6-.46-1.32-.46-2.17s.15-1.57.44-2.19c.29-.62.71-1.11,1.23-1.45.53-.34,1.13-.51,1.82-.51.53,0,.96.09,1.27.26s.56.38.72.6c.17.22.3.4.39.55h.13v-1.3h1.21v8.42c0,.7-.16,1.28-.48,1.72-.32.44-.74.77-1.28.97-.53.21-1.13.31-1.78.31ZM52.51,82.72c.5,0,.93-.12,1.28-.35.35-.23.61-.56.79-1,.18-.43.27-.95.27-1.55s-.09-1.11-.27-1.56c-.18-.45-.44-.8-.79-1.06-.35-.26-.78-.38-1.29-.38s-.98.13-1.33.4c-.35.27-.62.63-.79,1.09s-.26.96-.26,1.51.09,1.07.27,1.5c.18.43.45.78.8,1.02.35.25.79.37,1.32.37Z"/>
      <path class="cls-1" d="M58.4,83.97v-8.18h1.21v1.24h.08c.15-.41.42-.73.81-.99.39-.25.83-.38,1.32-.38.09,0,.21,0,.35,0s.24,0,.31.02v1.28s-.14-.03-.29-.05c-.15-.02-.31-.03-.48-.03-.4,0-.75.08-1.06.25-.31.17-.56.39-.73.68-.18.29-.27.62-.27.99v5.18h-1.26Z"/>
      <path class="cls-1" d="M66.39,84.17c-.52,0-.99-.1-1.41-.3-.42-.2-.76-.48-1.01-.86-.25-.38-.37-.83-.37-1.36,0-.47.09-.85.28-1.14s.43-.52.74-.69c.31-.17.65-.29,1.03-.38.37-.08.75-.15,1.13-.2.5-.06.9-.11,1.21-.15.31-.03.54-.09.68-.17.14-.08.22-.22.22-.43v-.04c0-.53-.14-.93-.43-1.23-.29-.29-.72-.44-1.3-.44s-1.07.13-1.41.39c-.34.26-.58.54-.72.84l-1.19-.43c.21-.5.5-.89.85-1.16s.75-.47,1.17-.59.84-.17,1.25-.17c.26,0,.57.03.91.09.34.06.67.19,1,.38.32.19.59.48.8.87.21.39.32.91.32,1.55v5.39h-1.26v-1.11h-.06c-.09.18-.23.37-.43.57-.2.2-.46.38-.79.52-.33.14-.73.21-1.21.21ZM66.58,83.04c.5,0,.92-.1,1.26-.29s.6-.45.78-.76.26-.63.26-.97v-1.15c-.05.06-.17.12-.35.17s-.39.1-.62.13c-.23.04-.46.07-.68.1-.22.03-.4.05-.53.07-.33.04-.63.11-.91.21s-.51.23-.68.42c-.17.19-.26.44-.26.76,0,.44.16.77.49.99.32.22.74.33,1.24.33Z"/>
      <path class="cls-1" d="M72.44,83.97v-8.18h1.21v1.28h.11c.17-.44.45-.78.83-1.02.38-.24.84-.37,1.37-.37s.99.12,1.35.37.64.58.84,1.02h.08c.21-.42.52-.76.94-1.01s.92-.38,1.51-.38c.73,0,1.33.23,1.79.68.47.46.7,1.17.7,2.13v5.48h-1.26v-5.48c0-.6-.17-1.03-.5-1.29s-.72-.39-1.17-.39c-.58,0-1.02.17-1.34.52-.32.35-.47.78-.47,1.31v5.33h-1.28v-5.6c0-.46-.15-.84-.45-1.13-.3-.29-.69-.43-1.17-.43-.33,0-.63.09-.91.26-.28.17-.51.42-.68.72s-.26.66-.26,1.06v5.11h-1.26Z"/>
      <path class="cls-1" d="M87.88,84.17c-.52,0-.99-.1-1.41-.3-.42-.2-.76-.48-1.01-.86-.25-.38-.37-.83-.37-1.36,0-.47.09-.85.28-1.14s.43-.52.74-.69c.31-.17.65-.29,1.03-.38.37-.08.75-.15,1.13-.2.5-.06.9-.11,1.21-.15.31-.03.54-.09.68-.17.14-.08.22-.22.22-.43v-.04c0-.53-.14-.93-.43-1.23-.29-.29-.72-.44-1.3-.44s-1.07.13-1.41.39c-.34.26-.58.54-.72.84l-1.19-.43c.21-.5.5-.89.85-1.16s.75-.47,1.17-.59.84-.17,1.25-.17c.26,0,.57.03.91.09.34.06.67.19,1,.38.32.19.59.48.8.87.21.39.32.91.32,1.55v5.39h-1.26v-1.11h-.06c-.09.18-.23.37-.43.57-.2.2-.46.38-.79.52-.33.14-.73.21-1.21.21ZM88.08,83.04c.5,0,.92-.1,1.26-.29s.6-.45.78-.76.26-.63.26-.97v-1.15c-.05.06-.17.12-.35.17s-.39.1-.62.13c-.23.04-.46.07-.68.1-.22.03-.4.05-.53.07-.33.04-.63.11-.91.21s-.51.23-.68.42c-.17.19-.26.44-.26.76,0,.44.16.77.49.99.32.22.74.33,1.24.33Z"/>
      <path class="cls-1" d="M97.26,84.14c-.77,0-1.43-.18-1.98-.54-.55-.36-.98-.86-1.28-1.5s-.45-1.36-.45-2.18.15-1.57.46-2.2c.31-.64.74-1.14,1.29-1.5.55-.36,1.2-.54,1.94-.54.58,0,1.09.11,1.56.32.46.21.84.51,1.13.9s.48.83.55,1.34h-1.26c-.1-.37-.31-.71-.64-.99-.33-.29-.77-.43-1.32-.43-.49,0-.92.13-1.29.38s-.65.61-.86,1.07c-.2.46-.31,1-.31,1.62s.1,1.18.3,1.65.48.83.85,1.09c.37.26.8.39,1.3.39.33,0,.62-.06.89-.17.27-.11.49-.28.68-.49s.32-.47.39-.77h1.26c-.07.48-.25.92-.52,1.3-.28.39-.65.69-1.1.92-.46.23-.99.34-1.59.34Z"/>
      <path class="cls-1" d="M104.72,84.17c-.52,0-.99-.1-1.41-.3-.42-.2-.76-.48-1.01-.86-.25-.38-.37-.83-.37-1.36,0-.47.09-.85.28-1.14s.43-.52.74-.69c.31-.17.65-.29,1.03-.38.37-.08.75-.15,1.13-.2.5-.06.9-.11,1.21-.15.31-.03.54-.09.68-.17.14-.08.22-.22.22-.43v-.04c0-.53-.14-.93-.43-1.23-.29-.29-.72-.44-1.3-.44s-1.07.13-1.41.39c-.34.26-.58.54-.72.84l-1.19-.43c.21-.5.5-.89.85-1.16s.75-.47,1.17-.59.84-.17,1.25-.17c.26,0,.57.03.91.09.34.06.67.19,1,.38.32.19.59.48.8.87.21.39.32.91.32,1.55v5.39h-1.26v-1.11h-.06c-.09.18-.23.37-.43.57-.2.2-.46.38-.79.52-.33.14-.73.21-1.21.21ZM104.91,83.04c.5,0,.92-.1,1.26-.29s.6-.45.78-.76.26-.63.26-.97v-1.15c-.05.06-.17.12-.35.17s-.39.1-.62.13c-.23.04-.46.07-.68.1-.22.03-.4.05-.53.07-.33.04-.63.11-.91.21s-.51.23-.68.42c-.17.19-.26.44-.26.76,0,.44.16.77.49.99.32.22.74.33,1.24.33Z"/>
      <path class="cls-1" d="M114.09,84.14c-.77,0-1.43-.18-1.98-.54-.55-.36-.98-.86-1.28-1.5s-.45-1.36-.45-2.18.15-1.57.46-2.2c.31-.64.74-1.14,1.29-1.5.55-.36,1.2-.54,1.94-.54.58,0,1.09.11,1.56.32.46.21.84.51,1.13.9s.48.83.55,1.34h-1.26c-.1-.37-.31-.71-.64-.99-.33-.29-.77-.43-1.32-.43-.49,0-.92.13-1.29.38s-.65.61-.86,1.07c-.2.46-.31,1-.31,1.62s.1,1.18.3,1.65.48.83.85,1.09c.37.26.8.39,1.3.39.33,0,.62-.06.89-.17.27-.11.49-.28.68-.49s.32-.47.39-.77h1.26c-.07.48-.25.92-.52,1.3-.28.39-.65.69-1.1.92-.46.23-.99.34-1.59.34ZM113.49,83.93h1.04l-.09.43c.28.04.53.16.76.35.23.19.35.49.35.91,0,.46-.19.83-.57,1.12-.38.29-.94.43-1.67.43l-.04-.83c.33,0,.6-.05.82-.16.22-.11.33-.28.33-.53s-.09-.41-.27-.5c-.18-.09-.47-.15-.88-.18l.21-1.04Z"/>
      <path class="cls-1" d="M121.55,84.17c-.52,0-.99-.1-1.41-.3-.42-.2-.76-.48-1.01-.86-.25-.38-.37-.83-.37-1.36,0-.47.09-.85.28-1.14s.43-.52.74-.69c.31-.17.65-.29,1.03-.38.37-.08.75-.15,1.13-.2.5-.06.9-.11,1.21-.15.31-.03.54-.09.68-.17.14-.08.22-.22.22-.43v-.04c0-.53-.14-.93-.43-1.23-.29-.29-.72-.44-1.3-.44s-1.07.13-1.41.39c-.34.26-.58.54-.72.84l-1.19-.43c.21-.5.5-.89.85-1.16s.75-.47,1.17-.59.84-.17,1.25-.17c.26,0,.57.03.91.09.34.06.67.19,1,.38.32.19.59.48.8.87.21.39.32.91.32,1.55v5.39h-1.26v-1.11h-.06c-.09.18-.23.37-.43.57-.2.2-.46.38-.79.52-.33.14-.73.21-1.21.21ZM120.72,74.81l-.98-.04c0-.54.16-.99.47-1.33.31-.35.69-.52,1.15-.52.2,0,.38.03.54.1s.31.15.45.24.29.17.44.24c.15.07.32.1.51.1.2,0,.37-.08.51-.24s.21-.35.21-.57l.96.08c0,.55-.16,1-.47,1.32s-.69.49-1.15.49c-.24,0-.45-.04-.61-.1-.16-.07-.3-.15-.43-.24-.12-.09-.26-.17-.39-.24-.14-.07-.31-.1-.51-.1s-.37.08-.5.24c-.13.16-.2.35-.2.57ZM121.74,83.04c.5,0,.92-.1,1.26-.29s.6-.45.78-.76.26-.63.26-.97v-1.15c-.05.06-.17.12-.35.17s-.39.1-.62.13c-.23.04-.46.07-.68.1-.22.03-.4.05-.53.07-.33.04-.63.11-.91.21s-.51.23-.68.42c-.17.19-.26.44-.26.76,0,.44.16.77.49.99.32.22.74.33,1.24.33Z"/>
      <path class="cls-1" d="M130.92,84.14c-.74,0-1.39-.18-1.94-.53s-.99-.84-1.3-1.48c-.31-.63-.47-1.37-.47-2.22s.16-1.6.47-2.23c.31-.64.74-1.13,1.3-1.48s1.2-.53,1.94-.53,1.39.18,1.94.53.99.84,1.3,1.48c.31.63.47,1.38.47,2.23s-.16,1.58-.47,2.22c-.31.63-.74,1.12-1.3,1.48s-1.2.53-1.94.53ZM130.92,83.01c.56,0,1.02-.14,1.38-.43s.63-.67.8-1.13c.17-.47.26-.98.26-1.52s-.09-1.06-.26-1.53c-.17-.47-.44-.85-.8-1.15-.36-.29-.82-.44-1.38-.44s-1.02.14-1.39.44c-.36.29-.63.67-.8,1.15s-.26.98-.26,1.53.09,1.05.26,1.52.44.85.8,1.13.82.43,1.39.43Z"/>
    </g>
  </g>
</svg>